<?xml version="1.0" encoding="utf-8" standalone="no"?>
<!DOCTYPE svg PUBLIC "-//W3C//DTD SVG 1.1//EN"
  "http://www.w3.org/Graphics/SVG/1.1/DTD/svg11.dtd">
<svg xmlns:xlink="http://www.w3.org/1999/xlink" width="856.244375pt" height="351.070375pt" viewBox="0 0 856.244375 351.070375" xmlns="http://www.w3.org/2000/svg" version="1.1">
 <metadata>
  <rdf:RDF xmlns:dc="http://purl.org/dc/elements/1.1/" xmlns:cc="http://creativecommons.org/ns#" xmlns:rdf="http://www.w3.org/1999/02/22-rdf-syntax-ns#">
   <cc:Work>
    <dc:type rdf:resource="http://purl.org/dc/dcmitype/StillImage"/>
    <dc:date>2026-06-04T12:58:31.306117</dc:date>
    <dc:format>image/svg+xml</dc:format>
    <dc:creator>
     <cc:Agent>
      <dc:title>Matplotlib v3.10.9, https://matplotlib.org/</dc:title>
     </cc:Agent>
    </dc:creator>
   </cc:Work>
  </rdf:RDF>
 </metadata>
 <defs>
  <style type="text/css">*{stroke-linejoin: round; stroke-linecap: butt}</style>
 </defs>
 <g id="figure_1">
  <g id="patch_1">
   <path d="M 0 351.070375 
L 856.244375 351.070375 
L 856.244375 0 
L 0 0 
L 0 351.070375 
z
" style="fill: none"/>
  </g>
  <g id="axes_1">
   <g id="patch_2">
    <path d="M 44.059375 313.514125 
L 849.044375 313.514125 
L 849.044375 22.318125 
L 44.059375 22.318125 
L 44.059375 313.514125 
z
" style="fill: none"/>
   </g>
   <g id="line2d_1">
    <path d="M 44.059375 287.663392 
L 849.044375 287.663392 
" clip-path="url(#p5a99d4ce82)" style="fill: none; stroke-dasharray: 2.1,1.4; stroke-dashoffset: 0; stroke: #4c72b0; stroke-opacity: 0.6; stroke-width: 0.7"/>
   </g>
   <g id="line2d_2">
    <path d="M 44.059375 300.277943 
L 849.044375 300.277943 
" clip-path="url(#p5a99d4ce82)" style="fill: none; stroke-dasharray: 2.1,1.4; stroke-dashoffset: 0; stroke: #dd8452; stroke-opacity: 0.6; stroke-width: 0.7"/>
   </g>
   <g id="line2d_3">
    <path d="M 44.059375 300.277943 
L 849.044375 300.277943 
" clip-path="url(#p5a99d4ce82)" style="fill: none; stroke-dasharray: 2.1,1.4; stroke-dashoffset: 0; stroke: #55a868; stroke-opacity: 0.6; stroke-width: 0.7"/>
   </g>
   <g id="matplotlib.axis_1">
    <g id="xtick_1">
     <g id="line2d_4">
      <path d="M 216.827399 313.514125 
L 216.827399 22.318125 
" clip-path="url(#p5a99d4ce82)" style="fill: none; stroke: #b0b0b0; stroke-opacity: 0.25; stroke-width: 0.5; stroke-linecap: square"/>
     </g>
     <g id="line2d_5">
      <defs>
       <path id="m3aa6380d27" d="M 0 0 
L 0 3.5 
" style="stroke: #000000; stroke-width: 0.8"/>
      </defs>
      <g>
       <use xlink:href="#m3aa6380d27" x="216.827399" y="313.514125" style="stroke: #000000; stroke-width: 0.8"/>
      </g>
     </g>
     <g id="text_1">
      <!-- $\mathdefault{10^{8}}$ -->
      <g transform="translate(208.027399 328.112563) scale(0.1 -0.1)">
       <defs>
        <path id="DejaVuSans-31" d="M 794 531 
L 1825 531 
L 1825 4091 
L 703 3866 
L 703 4441 
L 1819 4666 
L 2450 4666 
L 2450 531 
L 3481 531 
L 3481 0 
L 794 0 
L 794 531 
z
" transform="scale(0.015625)"/>
        <path id="DejaVuSans-30" d="M 2034 4250 
Q 1547 4250 1301 3770 
Q 1056 3291 1056 2328 
Q 1056 1369 1301 889 
Q 1547 409 2034 409 
Q 2525 409 2770 889 
Q 3016 1369 3016 2328 
Q 3016 3291 2770 3770 
Q 2525 4250 2034 4250 
z
M 2034 4750 
Q 2819 4750 3233 4129 
Q 3647 3509 3647 2328 
Q 3647 1150 3233 529 
Q 2819 -91 2034 -91 
Q 1250 -91 836 529 
Q 422 1150 422 2328 
Q 422 3509 836 4129 
Q 1250 4750 2034 4750 
z
" transform="scale(0.015625)"/>
        <path id="DejaVuSans-38" d="M 2034 2216 
Q 1584 2216 1326 1975 
Q 1069 1734 1069 1313 
Q 1069 891 1326 650 
Q 1584 409 2034 409 
Q 2484 409 2743 651 
Q 3003 894 3003 1313 
Q 3003 1734 2745 1975 
Q 2488 2216 2034 2216 
z
M 1403 2484 
Q 997 2584 770 2862 
Q 544 3141 544 3541 
Q 544 4100 942 4425 
Q 1341 4750 2034 4750 
Q 2731 4750 3128 4425 
Q 3525 4100 3525 3541 
Q 3525 3141 3298 2862 
Q 3072 2584 2669 2484 
Q 3125 2378 3379 2068 
Q 3634 1759 3634 1313 
Q 3634 634 3220 271 
Q 2806 -91 2034 -91 
Q 1263 -91 848 271 
Q 434 634 434 1313 
Q 434 1759 690 2068 
Q 947 2378 1403 2484 
z
M 1172 3481 
Q 1172 3119 1398 2916 
Q 1625 2713 2034 2713 
Q 2441 2713 2670 2916 
Q 2900 3119 2900 3481 
Q 2900 3844 2670 4047 
Q 2441 4250 2034 4250 
Q 1625 4250 1398 4047 
Q 1172 3844 1172 3481 
z
" transform="scale(0.015625)"/>
       </defs>
       <use xlink:href="#DejaVuSans-31" transform="translate(0 0.765625)"/>
       <use xlink:href="#DejaVuSans-30" transform="translate(63.623047 0.765625)"/>
       <use xlink:href="#DejaVuSans-38" transform="translate(128.203125 39.046875) scale(0.7)"/>
      </g>
     </g>
    </g>
    <g id="xtick_2">
     <g id="line2d_6">
      <path d="M 580.493292 313.514125 
L 580.493292 22.318125 
" clip-path="url(#p5a99d4ce82)" style="fill: none; stroke: #b0b0b0; stroke-opacity: 0.25; stroke-width: 0.5; stroke-linecap: square"/>
     </g>
     <g id="line2d_7">
      <g>
       <use xlink:href="#m3aa6380d27" x="580.493292" y="313.514125" style="stroke: #000000; stroke-width: 0.8"/>
      </g>
     </g>
     <g id="text_2">
      <!-- $\mathdefault{10^{9}}$ -->
      <g transform="translate(571.693292 328.112563) scale(0.1 -0.1)">
       <defs>
        <path id="DejaVuSans-39" d="M 703 97 
L 703 672 
Q 941 559 1184 500 
Q 1428 441 1663 441 
Q 2288 441 2617 861 
Q 2947 1281 2994 2138 
Q 2813 1869 2534 1725 
Q 2256 1581 1919 1581 
Q 1219 1581 811 2004 
Q 403 2428 403 3163 
Q 403 3881 828 4315 
Q 1253 4750 1959 4750 
Q 2769 4750 3195 4129 
Q 3622 3509 3622 2328 
Q 3622 1225 3098 567 
Q 2575 -91 1691 -91 
Q 1453 -91 1209 -44 
Q 966 3 703 97 
z
M 1959 2075 
Q 2384 2075 2632 2365 
Q 2881 2656 2881 3163 
Q 2881 3666 2632 3958 
Q 2384 4250 1959 4250 
Q 1534 4250 1286 3958 
Q 1038 3666 1038 3163 
Q 1038 2656 1286 2365 
Q 1534 2075 1959 2075 
z
" transform="scale(0.015625)"/>
       </defs>
       <use xlink:href="#DejaVuSans-31" transform="translate(0 0.765625)"/>
       <use xlink:href="#DejaVuSans-30" transform="translate(63.623047 0.765625)"/>
       <use xlink:href="#DejaVuSans-39" transform="translate(128.203125 39.046875) scale(0.7)"/>
      </g>
     </g>
    </g>
    <g id="xtick_3">
     <g id="line2d_8">
      <path d="M 72.11019 313.514125 
L 72.11019 22.318125 
" clip-path="url(#p5a99d4ce82)" style="fill: none; stroke: #b0b0b0; stroke-opacity: 0.25; stroke-width: 0.5; stroke-linecap: square"/>
     </g>
     <g id="line2d_9">
      <defs>
       <path id="m2126cb2c5d" d="M 0 0 
L 0 2 
" style="stroke: #000000; stroke-width: 0.6"/>
      </defs>
      <g>
       <use xlink:href="#m2126cb2c5d" x="72.11019" y="313.514125" style="stroke: #000000; stroke-width: 0.6"/>
      </g>
     </g>
    </g>
    <g id="xtick_4">
     <g id="line2d_10">
      <path d="M 107.353057 313.514125 
L 107.353057 22.318125 
" clip-path="url(#p5a99d4ce82)" style="fill: none; stroke: #b0b0b0; stroke-opacity: 0.25; stroke-width: 0.5; stroke-linecap: square"/>
     </g>
     <g id="line2d_11">
      <g>
       <use xlink:href="#m2126cb2c5d" x="107.353057" y="313.514125" style="stroke: #000000; stroke-width: 0.6"/>
      </g>
     </g>
    </g>
    <g id="xtick_5">
     <g id="line2d_12">
      <path d="M 136.148575 313.514125 
L 136.148575 22.318125 
" clip-path="url(#p5a99d4ce82)" style="fill: none; stroke: #b0b0b0; stroke-opacity: 0.25; stroke-width: 0.5; stroke-linecap: square"/>
     </g>
     <g id="line2d_13">
      <g>
       <use xlink:href="#m2126cb2c5d" x="136.148575" y="313.514125" style="stroke: #000000; stroke-width: 0.6"/>
      </g>
     </g>
    </g>
    <g id="xtick_6">
     <g id="line2d_14">
      <path d="M 160.494839 313.514125 
L 160.494839 22.318125 
" clip-path="url(#p5a99d4ce82)" style="fill: none; stroke: #b0b0b0; stroke-opacity: 0.25; stroke-width: 0.5; stroke-linecap: square"/>
     </g>
     <g id="line2d_15">
      <g>
       <use xlink:href="#m2126cb2c5d" x="160.494839" y="313.514125" style="stroke: #000000; stroke-width: 0.6"/>
      </g>
     </g>
    </g>
    <g id="xtick_7">
     <g id="line2d_16">
      <path d="M 181.584533 313.514125 
L 181.584533 22.318125 
" clip-path="url(#p5a99d4ce82)" style="fill: none; stroke: #b0b0b0; stroke-opacity: 0.25; stroke-width: 0.5; stroke-linecap: square"/>
     </g>
     <g id="line2d_17">
      <g>
       <use xlink:href="#m2126cb2c5d" x="181.584533" y="313.514125" style="stroke: #000000; stroke-width: 0.6"/>
      </g>
     </g>
    </g>
    <g id="xtick_8">
     <g id="line2d_18">
      <path d="M 200.18696 313.514125 
L 200.18696 22.318125 
" clip-path="url(#p5a99d4ce82)" style="fill: none; stroke: #b0b0b0; stroke-opacity: 0.25; stroke-width: 0.5; stroke-linecap: square"/>
     </g>
     <g id="line2d_19">
      <g>
       <use xlink:href="#m2126cb2c5d" x="200.18696" y="313.514125" style="stroke: #000000; stroke-width: 0.6"/>
      </g>
     </g>
    </g>
    <g id="xtick_9">
     <g id="line2d_20">
      <path d="M 326.301741 313.514125 
L 326.301741 22.318125 
" clip-path="url(#p5a99d4ce82)" style="fill: none; stroke: #b0b0b0; stroke-opacity: 0.25; stroke-width: 0.5; stroke-linecap: square"/>
     </g>
     <g id="line2d_21">
      <g>
       <use xlink:href="#m2126cb2c5d" x="326.301741" y="313.514125" style="stroke: #000000; stroke-width: 0.6"/>
      </g>
     </g>
    </g>
    <g id="xtick_10">
     <g id="line2d_22">
      <path d="M 390.340126 313.514125 
L 390.340126 22.318125 
" clip-path="url(#p5a99d4ce82)" style="fill: none; stroke: #b0b0b0; stroke-opacity: 0.25; stroke-width: 0.5; stroke-linecap: square"/>
     </g>
     <g id="line2d_23">
      <g>
       <use xlink:href="#m2126cb2c5d" x="390.340126" y="313.514125" style="stroke: #000000; stroke-width: 0.6"/>
      </g>
     </g>
    </g>
    <g id="xtick_11">
     <g id="line2d_24">
      <path d="M 435.776084 313.514125 
L 435.776084 22.318125 
" clip-path="url(#p5a99d4ce82)" style="fill: none; stroke: #b0b0b0; stroke-opacity: 0.25; stroke-width: 0.5; stroke-linecap: square"/>
     </g>
     <g id="line2d_25">
      <g>
       <use xlink:href="#m2126cb2c5d" x="435.776084" y="313.514125" style="stroke: #000000; stroke-width: 0.6"/>
      </g>
     </g>
    </g>
    <g id="xtick_12">
     <g id="line2d_26">
      <path d="M 471.01895 313.514125 
L 471.01895 22.318125 
" clip-path="url(#p5a99d4ce82)" style="fill: none; stroke: #b0b0b0; stroke-opacity: 0.25; stroke-width: 0.5; stroke-linecap: square"/>
     </g>
     <g id="line2d_27">
      <g>
       <use xlink:href="#m2126cb2c5d" x="471.01895" y="313.514125" style="stroke: #000000; stroke-width: 0.6"/>
      </g>
     </g>
    </g>
    <g id="xtick_13">
     <g id="line2d_28">
      <path d="M 499.814469 313.514125 
L 499.814469 22.318125 
" clip-path="url(#p5a99d4ce82)" style="fill: none; stroke: #b0b0b0; stroke-opacity: 0.25; stroke-width: 0.5; stroke-linecap: square"/>
     </g>
     <g id="line2d_29">
      <g>
       <use xlink:href="#m2126cb2c5d" x="499.814469" y="313.514125" style="stroke: #000000; stroke-width: 0.6"/>
      </g>
     </g>
    </g>
    <g id="xtick_14">
     <g id="line2d_30">
      <path d="M 524.160733 313.514125 
L 524.160733 22.318125 
" clip-path="url(#p5a99d4ce82)" style="fill: none; stroke: #b0b0b0; stroke-opacity: 0.25; stroke-width: 0.5; stroke-linecap: square"/>
     </g>
     <g id="line2d_31">
      <g>
       <use xlink:href="#m2126cb2c5d" x="524.160733" y="313.514125" style="stroke: #000000; stroke-width: 0.6"/>
      </g>
     </g>
    </g>
    <g id="xtick_15">
     <g id="line2d_32">
      <path d="M 545.250426 313.514125 
L 545.250426 22.318125 
" clip-path="url(#p5a99d4ce82)" style="fill: none; stroke: #b0b0b0; stroke-opacity: 0.25; stroke-width: 0.5; stroke-linecap: square"/>
     </g>
     <g id="line2d_33">
      <g>
       <use xlink:href="#m2126cb2c5d" x="545.250426" y="313.514125" style="stroke: #000000; stroke-width: 0.6"/>
      </g>
     </g>
    </g>
    <g id="xtick_16">
     <g id="line2d_34">
      <path d="M 563.852854 313.514125 
L 563.852854 22.318125 
" clip-path="url(#p5a99d4ce82)" style="fill: none; stroke: #b0b0b0; stroke-opacity: 0.25; stroke-width: 0.5; stroke-linecap: square"/>
     </g>
     <g id="line2d_35">
      <g>
       <use xlink:href="#m2126cb2c5d" x="563.852854" y="313.514125" style="stroke: #000000; stroke-width: 0.6"/>
      </g>
     </g>
    </g>
    <g id="xtick_17">
     <g id="line2d_36">
      <path d="M 689.967635 313.514125 
L 689.967635 22.318125 
" clip-path="url(#p5a99d4ce82)" style="fill: none; stroke: #b0b0b0; stroke-opacity: 0.25; stroke-width: 0.5; stroke-linecap: square"/>
     </g>
     <g id="line2d_37">
      <g>
       <use xlink:href="#m2126cb2c5d" x="689.967635" y="313.514125" style="stroke: #000000; stroke-width: 0.6"/>
      </g>
     </g>
    </g>
    <g id="xtick_18">
     <g id="line2d_38">
      <path d="M 754.00602 313.514125 
L 754.00602 22.318125 
" clip-path="url(#p5a99d4ce82)" style="fill: none; stroke: #b0b0b0; stroke-opacity: 0.25; stroke-width: 0.5; stroke-linecap: square"/>
     </g>
     <g id="line2d_39">
      <g>
       <use xlink:href="#m2126cb2c5d" x="754.00602" y="313.514125" style="stroke: #000000; stroke-width: 0.6"/>
      </g>
     </g>
    </g>
    <g id="xtick_19">
     <g id="line2d_40">
      <path d="M 799.441977 313.514125 
L 799.441977 22.318125 
" clip-path="url(#p5a99d4ce82)" style="fill: none; stroke: #b0b0b0; stroke-opacity: 0.25; stroke-width: 0.5; stroke-linecap: square"/>
     </g>
     <g id="line2d_41">
      <g>
       <use xlink:href="#m2126cb2c5d" x="799.441977" y="313.514125" style="stroke: #000000; stroke-width: 0.6"/>
      </g>
     </g>
    </g>
    <g id="xtick_20">
     <g id="line2d_42">
      <path d="M 834.684843 313.514125 
L 834.684843 22.318125 
" clip-path="url(#p5a99d4ce82)" style="fill: none; stroke: #b0b0b0; stroke-opacity: 0.25; stroke-width: 0.5; stroke-linecap: square"/>
     </g>
     <g id="line2d_43">
      <g>
       <use xlink:href="#m2126cb2c5d" x="834.684843" y="313.514125" style="stroke: #000000; stroke-width: 0.6"/>
      </g>
     </g>
    </g>
    <g id="text_3">
     <!-- model params (N) -->
     <g transform="translate(401.329219 341.790687) scale(0.1 -0.1)">
      <defs>
       <path id="DejaVuSans-6d" d="M 3328 2828 
Q 3544 3216 3844 3400 
Q 4144 3584 4550 3584 
Q 5097 3584 5394 3201 
Q 5691 2819 5691 2113 
L 5691 0 
L 5113 0 
L 5113 2094 
Q 5113 2597 4934 2840 
Q 4756 3084 4391 3084 
Q 3944 3084 3684 2787 
Q 3425 2491 3425 1978 
L 3425 0 
L 2847 0 
L 2847 2094 
Q 2847 2600 2669 2842 
Q 2491 3084 2119 3084 
Q 1678 3084 1418 2786 
Q 1159 2488 1159 1978 
L 1159 0 
L 581 0 
L 581 3500 
L 1159 3500 
L 1159 2956 
Q 1356 3278 1631 3431 
Q 1906 3584 2284 3584 
Q 2666 3584 2933 3390 
Q 3200 3197 3328 2828 
z
" transform="scale(0.015625)"/>
       <path id="DejaVuSans-6f" d="M 1959 3097 
Q 1497 3097 1228 2736 
Q 959 2375 959 1747 
Q 959 1119 1226 758 
Q 1494 397 1959 397 
Q 2419 397 2687 759 
Q 2956 1122 2956 1747 
Q 2956 2369 2687 2733 
Q 2419 3097 1959 3097 
z
M 1959 3584 
Q 2709 3584 3137 3096 
Q 3566 2609 3566 1747 
Q 3566 888 3137 398 
Q 2709 -91 1959 -91 
Q 1206 -91 779 398 
Q 353 888 353 1747 
Q 353 2609 779 3096 
Q 1206 3584 1959 3584 
z
" transform="scale(0.015625)"/>
       <path id="DejaVuSans-64" d="M 2906 2969 
L 2906 4863 
L 3481 4863 
L 3481 0 
L 2906 0 
L 2906 525 
Q 2725 213 2448 61 
Q 2172 -91 1784 -91 
Q 1150 -91 751 415 
Q 353 922 353 1747 
Q 353 2572 751 3078 
Q 1150 3584 1784 3584 
Q 2172 3584 2448 3432 
Q 2725 3281 2906 2969 
z
M 947 1747 
Q 947 1113 1208 752 
Q 1469 391 1925 391 
Q 2381 391 2643 752 
Q 2906 1113 2906 1747 
Q 2906 2381 2643 2742 
Q 2381 3103 1925 3103 
Q 1469 3103 1208 2742 
Q 947 2381 947 1747 
z
" transform="scale(0.015625)"/>
       <path id="DejaVuSans-65" d="M 3597 1894 
L 3597 1613 
L 953 1613 
Q 991 1019 1311 708 
Q 1631 397 2203 397 
Q 2534 397 2845 478 
Q 3156 559 3463 722 
L 3463 178 
Q 3153 47 2828 -22 
Q 2503 -91 2169 -91 
Q 1331 -91 842 396 
Q 353 884 353 1716 
Q 353 2575 817 3079 
Q 1281 3584 2069 3584 
Q 2775 3584 3186 3129 
Q 3597 2675 3597 1894 
z
M 3022 2063 
Q 3016 2534 2758 2815 
Q 2500 3097 2075 3097 
Q 1594 3097 1305 2825 
Q 1016 2553 972 2059 
L 3022 2063 
z
" transform="scale(0.015625)"/>
       <path id="DejaVuSans-6c" d="M 603 4863 
L 1178 4863 
L 1178 0 
L 603 0 
L 603 4863 
z
" transform="scale(0.015625)"/>
       <path id="DejaVuSans-20" transform="scale(0.015625)"/>
       <path id="DejaVuSans-70" d="M 1159 525 
L 1159 -1331 
L 581 -1331 
L 581 3500 
L 1159 3500 
L 1159 2969 
Q 1341 3281 1617 3432 
Q 1894 3584 2278 3584 
Q 2916 3584 3314 3078 
Q 3713 2572 3713 1747 
Q 3713 922 3314 415 
Q 2916 -91 2278 -91 
Q 1894 -91 1617 61 
Q 1341 213 1159 525 
z
M 3116 1747 
Q 3116 2381 2855 2742 
Q 2594 3103 2138 3103 
Q 1681 3103 1420 2742 
Q 1159 2381 1159 1747 
Q 1159 1113 1420 752 
Q 1681 391 2138 391 
Q 2594 391 2855 752 
Q 3116 1113 3116 1747 
z
" transform="scale(0.015625)"/>
       <path id="DejaVuSans-61" d="M 2194 1759 
Q 1497 1759 1228 1600 
Q 959 1441 959 1056 
Q 959 750 1161 570 
Q 1363 391 1709 391 
Q 2188 391 2477 730 
Q 2766 1069 2766 1631 
L 2766 1759 
L 2194 1759 
z
M 3341 1997 
L 3341 0 
L 2766 0 
L 2766 531 
Q 2569 213 2275 61 
Q 1981 -91 1556 -91 
Q 1019 -91 701 211 
Q 384 513 384 1019 
Q 384 1609 779 1909 
Q 1175 2209 1959 2209 
L 2766 2209 
L 2766 2266 
Q 2766 2663 2505 2880 
Q 2244 3097 1772 3097 
Q 1472 3097 1187 3025 
Q 903 2953 641 2809 
L 641 3341 
Q 956 3463 1253 3523 
Q 1550 3584 1831 3584 
Q 2591 3584 2966 3190 
Q 3341 2797 3341 1997 
z
" transform="scale(0.015625)"/>
       <path id="DejaVuSans-72" d="M 2631 2963 
Q 2534 3019 2420 3045 
Q 2306 3072 2169 3072 
Q 1681 3072 1420 2755 
Q 1159 2438 1159 1844 
L 1159 0 
L 581 0 
L 581 3500 
L 1159 3500 
L 1159 2956 
Q 1341 3275 1631 3429 
Q 1922 3584 2338 3584 
Q 2397 3584 2469 3576 
Q 2541 3569 2628 3553 
L 2631 2963 
z
" transform="scale(0.015625)"/>
       <path id="DejaVuSans-73" d="M 2834 3397 
L 2834 2853 
Q 2591 2978 2328 3040 
Q 2066 3103 1784 3103 
Q 1356 3103 1142 2972 
Q 928 2841 928 2578 
Q 928 2378 1081 2264 
Q 1234 2150 1697 2047 
L 1894 2003 
Q 2506 1872 2764 1633 
Q 3022 1394 3022 966 
Q 3022 478 2636 193 
Q 2250 -91 1575 -91 
Q 1294 -91 989 -36 
Q 684 19 347 128 
L 347 722 
Q 666 556 975 473 
Q 1284 391 1588 391 
Q 1994 391 2212 530 
Q 2431 669 2431 922 
Q 2431 1156 2273 1281 
Q 2116 1406 1581 1522 
L 1381 1569 
Q 847 1681 609 1914 
Q 372 2147 372 2553 
Q 372 3047 722 3315 
Q 1072 3584 1716 3584 
Q 2034 3584 2315 3537 
Q 2597 3491 2834 3397 
z
" transform="scale(0.015625)"/>
       <path id="DejaVuSans-28" d="M 1984 4856 
Q 1566 4138 1362 3434 
Q 1159 2731 1159 2009 
Q 1159 1288 1364 580 
Q 1569 -128 1984 -844 
L 1484 -844 
Q 1016 -109 783 600 
Q 550 1309 550 2009 
Q 550 2706 781 3412 
Q 1013 4119 1484 4856 
L 1984 4856 
z
" transform="scale(0.015625)"/>
       <path id="DejaVuSans-4e" d="M 628 4666 
L 1478 4666 
L 3547 763 
L 3547 4666 
L 4159 4666 
L 4159 0 
L 3309 0 
L 1241 3903 
L 1241 0 
L 628 0 
L 628 4666 
z
" transform="scale(0.015625)"/>
       <path id="DejaVuSans-29" d="M 513 4856 
L 1013 4856 
Q 1481 4119 1714 3412 
Q 1947 2706 1947 2009 
Q 1947 1309 1714 600 
Q 1481 -109 1013 -844 
L 513 -844 
Q 928 -128 1133 580 
Q 1338 1288 1338 2009 
Q 1338 2731 1133 3434 
Q 928 4138 513 4856 
z
" transform="scale(0.015625)"/>
      </defs>
      <use xlink:href="#DejaVuSans-6d"/>
      <use xlink:href="#DejaVuSans-6f" transform="translate(97.412109 0)"/>
      <use xlink:href="#DejaVuSans-64" transform="translate(158.59375 0)"/>
      <use xlink:href="#DejaVuSans-65" transform="translate(222.070312 0)"/>
      <use xlink:href="#DejaVuSans-6c" transform="translate(283.59375 0)"/>
      <use xlink:href="#DejaVuSans-20" transform="translate(311.376953 0)"/>
      <use xlink:href="#DejaVuSans-70" transform="translate(343.164062 0)"/>
      <use xlink:href="#DejaVuSans-61" transform="translate(406.640625 0)"/>
      <use xlink:href="#DejaVuSans-72" transform="translate(467.919922 0)"/>
      <use xlink:href="#DejaVuSans-61" transform="translate(509.033203 0)"/>
      <use xlink:href="#DejaVuSans-6d" transform="translate(570.3125 0)"/>
      <use xlink:href="#DejaVuSans-73" transform="translate(667.724609 0)"/>
      <use xlink:href="#DejaVuSans-20" transform="translate(719.824219 0)"/>
      <use xlink:href="#DejaVuSans-28" transform="translate(751.611328 0)"/>
      <use xlink:href="#DejaVuSans-4e" transform="translate(790.625 0)"/>
      <use xlink:href="#DejaVuSans-29" transform="translate(865.429688 0)"/>
     </g>
    </g>
   </g>
   <g id="matplotlib.axis_2">
    <g id="ytick_1">
     <g id="line2d_44">
      <path d="M 44.059375 300.277943 
L 849.044375 300.277943 
" clip-path="url(#p5a99d4ce82)" style="fill: none; stroke: #b0b0b0; stroke-opacity: 0.25; stroke-width: 0.5; stroke-linecap: square"/>
     </g>
     <g id="line2d_45">
      <defs>
       <path id="m08d4e35c8d" d="M 0 0 
L -3.5 0 
" style="stroke: #000000; stroke-width: 0.8"/>
      </defs>
      <g>
       <use xlink:href="#m08d4e35c8d" x="44.059375" y="300.277943" style="stroke: #000000; stroke-width: 0.8"/>
      </g>
     </g>
     <g id="text_4">
      <!-- 0.0 -->
      <g transform="translate(21.15625 304.077162) scale(0.1 -0.1)">
       <defs>
        <path id="DejaVuSans-2e" d="M 684 794 
L 1344 794 
L 1344 0 
L 684 0 
L 684 794 
z
" transform="scale(0.015625)"/>
       </defs>
       <use xlink:href="#DejaVuSans-30"/>
       <use xlink:href="#DejaVuSans-2e" transform="translate(63.623047 0)"/>
       <use xlink:href="#DejaVuSans-30" transform="translate(95.410156 0)"/>
      </g>
     </g>
    </g>
    <g id="ytick_2">
     <g id="line2d_46">
      <path d="M 44.059375 256.847261 
L 849.044375 256.847261 
" clip-path="url(#p5a99d4ce82)" style="fill: none; stroke: #b0b0b0; stroke-opacity: 0.25; stroke-width: 0.5; stroke-linecap: square"/>
     </g>
     <g id="line2d_47">
      <g>
       <use xlink:href="#m08d4e35c8d" x="44.059375" y="256.847261" style="stroke: #000000; stroke-width: 0.8"/>
      </g>
     </g>
     <g id="text_5">
      <!-- 0.2 -->
      <g transform="translate(21.15625 260.64648) scale(0.1 -0.1)">
       <defs>
        <path id="DejaVuSans-32" d="M 1228 531 
L 3431 531 
L 3431 0 
L 469 0 
L 469 531 
Q 828 903 1448 1529 
Q 2069 2156 2228 2338 
Q 2531 2678 2651 2914 
Q 2772 3150 2772 3378 
Q 2772 3750 2511 3984 
Q 2250 4219 1831 4219 
Q 1534 4219 1204 4116 
Q 875 4013 500 3803 
L 500 4441 
Q 881 4594 1212 4672 
Q 1544 4750 1819 4750 
Q 2544 4750 2975 4387 
Q 3406 4025 3406 3419 
Q 3406 3131 3298 2873 
Q 3191 2616 2906 2266 
Q 2828 2175 2409 1742 
Q 1991 1309 1228 531 
z
" transform="scale(0.015625)"/>
       </defs>
       <use xlink:href="#DejaVuSans-30"/>
       <use xlink:href="#DejaVuSans-2e" transform="translate(63.623047 0)"/>
       <use xlink:href="#DejaVuSans-32" transform="translate(95.410156 0)"/>
      </g>
     </g>
    </g>
    <g id="ytick_3">
     <g id="line2d_48">
      <path d="M 44.059375 213.416579 
L 849.044375 213.416579 
" clip-path="url(#p5a99d4ce82)" style="fill: none; stroke: #b0b0b0; stroke-opacity: 0.25; stroke-width: 0.5; stroke-linecap: square"/>
     </g>
     <g id="line2d_49">
      <g>
       <use xlink:href="#m08d4e35c8d" x="44.059375" y="213.416579" style="stroke: #000000; stroke-width: 0.8"/>
      </g>
     </g>
     <g id="text_6">
      <!-- 0.4 -->
      <g transform="translate(21.15625 217.215798) scale(0.1 -0.1)">
       <defs>
        <path id="DejaVuSans-34" d="M 2419 4116 
L 825 1625 
L 2419 1625 
L 2419 4116 
z
M 2253 4666 
L 3047 4666 
L 3047 1625 
L 3713 1625 
L 3713 1100 
L 3047 1100 
L 3047 0 
L 2419 0 
L 2419 1100 
L 313 1100 
L 313 1709 
L 2253 4666 
z
" transform="scale(0.015625)"/>
       </defs>
       <use xlink:href="#DejaVuSans-30"/>
       <use xlink:href="#DejaVuSans-2e" transform="translate(63.623047 0)"/>
       <use xlink:href="#DejaVuSans-34" transform="translate(95.410156 0)"/>
      </g>
     </g>
    </g>
    <g id="ytick_4">
     <g id="line2d_50">
      <path d="M 44.059375 169.985897 
L 849.044375 169.985897 
" clip-path="url(#p5a99d4ce82)" style="fill: none; stroke: #b0b0b0; stroke-opacity: 0.25; stroke-width: 0.5; stroke-linecap: square"/>
     </g>
     <g id="line2d_51">
      <g>
       <use xlink:href="#m08d4e35c8d" x="44.059375" y="169.985897" style="stroke: #000000; stroke-width: 0.8"/>
      </g>
     </g>
     <g id="text_7">
      <!-- 0.6 -->
      <g transform="translate(21.15625 173.785115) scale(0.1 -0.1)">
       <defs>
        <path id="DejaVuSans-36" d="M 2113 2584 
Q 1688 2584 1439 2293 
Q 1191 2003 1191 1497 
Q 1191 994 1439 701 
Q 1688 409 2113 409 
Q 2538 409 2786 701 
Q 3034 994 3034 1497 
Q 3034 2003 2786 2293 
Q 2538 2584 2113 2584 
z
M 3366 4563 
L 3366 3988 
Q 3128 4100 2886 4159 
Q 2644 4219 2406 4219 
Q 1781 4219 1451 3797 
Q 1122 3375 1075 2522 
Q 1259 2794 1537 2939 
Q 1816 3084 2150 3084 
Q 2853 3084 3261 2657 
Q 3669 2231 3669 1497 
Q 3669 778 3244 343 
Q 2819 -91 2113 -91 
Q 1303 -91 875 529 
Q 447 1150 447 2328 
Q 447 3434 972 4092 
Q 1497 4750 2381 4750 
Q 2619 4750 2861 4703 
Q 3103 4656 3366 4563 
z
" transform="scale(0.015625)"/>
       </defs>
       <use xlink:href="#DejaVuSans-30"/>
       <use xlink:href="#DejaVuSans-2e" transform="translate(63.623047 0)"/>
       <use xlink:href="#DejaVuSans-36" transform="translate(95.410156 0)"/>
      </g>
     </g>
    </g>
    <g id="ytick_5">
     <g id="line2d_52">
      <path d="M 44.059375 126.555214 
L 849.044375 126.555214 
" clip-path="url(#p5a99d4ce82)" style="fill: none; stroke: #b0b0b0; stroke-opacity: 0.25; stroke-width: 0.5; stroke-linecap: square"/>
     </g>
     <g id="line2d_53">
      <g>
       <use xlink:href="#m08d4e35c8d" x="44.059375" y="126.555214" style="stroke: #000000; stroke-width: 0.8"/>
      </g>
     </g>
     <g id="text_8">
      <!-- 0.8 -->
      <g transform="translate(21.15625 130.354433) scale(0.1 -0.1)">
       <use xlink:href="#DejaVuSans-30"/>
       <use xlink:href="#DejaVuSans-2e" transform="translate(63.623047 0)"/>
       <use xlink:href="#DejaVuSans-38" transform="translate(95.410156 0)"/>
      </g>
     </g>
    </g>
    <g id="ytick_6">
     <g id="line2d_54">
      <path d="M 44.059375 83.124532 
L 849.044375 83.124532 
" clip-path="url(#p5a99d4ce82)" style="fill: none; stroke: #b0b0b0; stroke-opacity: 0.25; stroke-width: 0.5; stroke-linecap: square"/>
     </g>
     <g id="line2d_55">
      <g>
       <use xlink:href="#m08d4e35c8d" x="44.059375" y="83.124532" style="stroke: #000000; stroke-width: 0.8"/>
      </g>
     </g>
     <g id="text_9">
      <!-- 1.0 -->
      <g transform="translate(21.15625 86.923751) scale(0.1 -0.1)">
       <use xlink:href="#DejaVuSans-31"/>
       <use xlink:href="#DejaVuSans-2e" transform="translate(63.623047 0)"/>
       <use xlink:href="#DejaVuSans-30" transform="translate(95.410156 0)"/>
      </g>
     </g>
    </g>
    <g id="ytick_7">
     <g id="line2d_56">
      <path d="M 44.059375 39.69385 
L 849.044375 39.69385 
" clip-path="url(#p5a99d4ce82)" style="fill: none; stroke: #b0b0b0; stroke-opacity: 0.25; stroke-width: 0.5; stroke-linecap: square"/>
     </g>
     <g id="line2d_57">
      <g>
       <use xlink:href="#m08d4e35c8d" x="44.059375" y="39.69385" style="stroke: #000000; stroke-width: 0.8"/>
      </g>
     </g>
     <g id="text_10">
      <!-- 1.2 -->
      <g transform="translate(21.15625 43.493069) scale(0.1 -0.1)">
       <use xlink:href="#DejaVuSans-31"/>
       <use xlink:href="#DejaVuSans-2e" transform="translate(63.623047 0)"/>
       <use xlink:href="#DejaVuSans-32" transform="translate(95.410156 0)"/>
      </g>
     </g>
    </g>
    <g id="text_11">
     <!-- eval/val_&lt;region&gt;/loss -->
     <g transform="translate(14.798438 225.534875) rotate(-90) scale(0.1 -0.1)">
      <defs>
       <path id="DejaVuSans-76" d="M 191 3500 
L 800 3500 
L 1894 563 
L 2988 3500 
L 3597 3500 
L 2284 0 
L 1503 0 
L 191 3500 
z
" transform="scale(0.015625)"/>
       <path id="DejaVuSans-2f" d="M 1625 4666 
L 2156 4666 
L 531 -594 
L 0 -594 
L 1625 4666 
z
" transform="scale(0.015625)"/>
       <path id="DejaVuSans-5f" d="M 3263 -1063 
L 3263 -1509 
L -63 -1509 
L -63 -1063 
L 3263 -1063 
z
" transform="scale(0.015625)"/>
       <path id="DejaVuSans-3c" d="M 4684 3150 
L 1459 2003 
L 4684 863 
L 4684 294 
L 678 1747 
L 678 2266 
L 4684 3719 
L 4684 3150 
z
" transform="scale(0.015625)"/>
       <path id="DejaVuSans-67" d="M 2906 1791 
Q 2906 2416 2648 2759 
Q 2391 3103 1925 3103 
Q 1463 3103 1205 2759 
Q 947 2416 947 1791 
Q 947 1169 1205 825 
Q 1463 481 1925 481 
Q 2391 481 2648 825 
Q 2906 1169 2906 1791 
z
M 3481 434 
Q 3481 -459 3084 -895 
Q 2688 -1331 1869 -1331 
Q 1566 -1331 1297 -1286 
Q 1028 -1241 775 -1147 
L 775 -588 
Q 1028 -725 1275 -790 
Q 1522 -856 1778 -856 
Q 2344 -856 2625 -561 
Q 2906 -266 2906 331 
L 2906 616 
Q 2728 306 2450 153 
Q 2172 0 1784 0 
Q 1141 0 747 490 
Q 353 981 353 1791 
Q 353 2603 747 3093 
Q 1141 3584 1784 3584 
Q 2172 3584 2450 3431 
Q 2728 3278 2906 2969 
L 2906 3500 
L 3481 3500 
L 3481 434 
z
" transform="scale(0.015625)"/>
       <path id="DejaVuSans-69" d="M 603 3500 
L 1178 3500 
L 1178 0 
L 603 0 
L 603 3500 
z
M 603 4863 
L 1178 4863 
L 1178 4134 
L 603 4134 
L 603 4863 
z
" transform="scale(0.015625)"/>
       <path id="DejaVuSans-6e" d="M 3513 2113 
L 3513 0 
L 2938 0 
L 2938 2094 
Q 2938 2591 2744 2837 
Q 2550 3084 2163 3084 
Q 1697 3084 1428 2787 
Q 1159 2491 1159 1978 
L 1159 0 
L 581 0 
L 581 3500 
L 1159 3500 
L 1159 2956 
Q 1366 3272 1645 3428 
Q 1925 3584 2291 3584 
Q 2894 3584 3203 3211 
Q 3513 2838 3513 2113 
z
" transform="scale(0.015625)"/>
       <path id="DejaVuSans-3e" d="M 678 3150 
L 678 3719 
L 4684 2266 
L 4684 1747 
L 678 294 
L 678 863 
L 3897 2003 
L 678 3150 
z
" transform="scale(0.015625)"/>
      </defs>
      <use xlink:href="#DejaVuSans-65"/>
      <use xlink:href="#DejaVuSans-76" transform="translate(61.523438 0)"/>
      <use xlink:href="#DejaVuSans-61" transform="translate(120.703125 0)"/>
      <use xlink:href="#DejaVuSans-6c" transform="translate(181.982422 0)"/>
      <use xlink:href="#DejaVuSans-2f" transform="translate(209.765625 0)"/>
      <use xlink:href="#DejaVuSans-76" transform="translate(243.457031 0)"/>
      <use xlink:href="#DejaVuSans-61" transform="translate(302.636719 0)"/>
      <use xlink:href="#DejaVuSans-6c" transform="translate(363.916016 0)"/>
      <use xlink:href="#DejaVuSans-5f" transform="translate(391.699219 0)"/>
      <use xlink:href="#DejaVuSans-3c" transform="translate(441.699219 0)"/>
      <use xlink:href="#DejaVuSans-72" transform="translate(525.488281 0)"/>
      <use xlink:href="#DejaVuSans-65" transform="translate(564.351562 0)"/>
      <use xlink:href="#DejaVuSans-67" transform="translate(625.875 0)"/>
      <use xlink:href="#DejaVuSans-69" transform="translate(689.351562 0)"/>
      <use xlink:href="#DejaVuSans-6f" transform="translate(717.134766 0)"/>
      <use xlink:href="#DejaVuSans-6e" transform="translate(778.316406 0)"/>
      <use xlink:href="#DejaVuSans-3e" transform="translate(841.695312 0)"/>
      <use xlink:href="#DejaVuSans-2f" transform="translate(925.484375 0)"/>
      <use xlink:href="#DejaVuSans-6c" transform="translate(959.175781 0)"/>
      <use xlink:href="#DejaVuSans-6f" transform="translate(986.958984 0)"/>
      <use xlink:href="#DejaVuSans-73" transform="translate(1048.140625 0)"/>
      <use xlink:href="#DejaVuSans-73" transform="translate(1100.240234 0)"/>
     </g>
    </g>
   </g>
   <g id="line2d_58">
    <path d="M 80.649602 79.157012 
L 99.036651 86.190094 
L 117.4237 92.985945 
L 135.810749 99.552566 
L 154.197798 105.89769 
L 172.584847 112.028788 
L 190.971896 117.953079 
L 209.358944 123.677539 
L 231.423403 130.292589 
L 253.487862 136.640794 
L 275.55232 142.732917 
L 297.616779 148.579289 
L 319.681238 154.189824 
L 341.745696 159.574034 
L 363.810155 164.74105 
L 385.874614 169.699633 
L 407.939072 174.458191 
L 433.680941 179.767779 
L 459.422809 184.828335 
L 485.164678 189.651539 
L 510.906546 194.248523 
L 536.648415 198.629898 
L 562.390283 202.805777 
L 591.809561 207.338924 
L 621.228839 211.629907 
L 650.648118 215.691664 
L 680.067396 219.536439 
L 709.486674 223.175823 
L 742.583362 227.038264 
L 775.68005 230.669366 
L 808.776738 234.082986 
L 812.454148 234.449425 
L 812.454148 234.449425 
" clip-path="url(#p5a99d4ce82)" style="fill: none; stroke: #4c72b0; stroke-opacity: 0.9; stroke-width: 1.3; stroke-linecap: square"/>
   </g>
   <g id="line2d_59">
    <path d="M 80.649602 52.255032 
L 154.197798 59.740771 
L 227.745993 67.000579 
L 301.294189 74.041274 
L 378.519794 81.205417 
L 455.745399 88.142696 
L 532.971005 94.860295 
L 613.87402 101.669736 
L 694.777035 108.253449 
L 775.68005 114.618917 
L 812.454148 117.44213 
L 812.454148 117.44213 
" clip-path="url(#p5a99d4ce82)" style="fill: none; stroke: #dd8452; stroke-opacity: 0.9; stroke-width: 1.3; stroke-linecap: square"/>
   </g>
   <g id="line2d_60">
    <path d="M 80.649602 35.554307 
L 190.971896 43.041406 
L 304.971599 50.555685 
L 418.971302 57.850461 
L 536.648415 65.157109 
L 654.325527 72.243538 
L 775.68005 79.327791 
L 812.454148 81.430766 
L 812.454148 81.430766 
" clip-path="url(#p5a99d4ce82)" style="fill: none; stroke: #55a868; stroke-opacity: 0.9; stroke-width: 1.3; stroke-linecap: square"/>
   </g>
   <g id="patch_3">
    <path d="M 44.059375 313.514125 
L 44.059375 22.318125 
" style="fill: none; stroke: #000000; stroke-width: 0.8; stroke-linejoin: miter; stroke-linecap: square"/>
   </g>
   <g id="patch_4">
    <path d="M 849.044375 313.514125 
L 849.044375 22.318125 
" style="fill: none; stroke: #000000; stroke-width: 0.8; stroke-linejoin: miter; stroke-linecap: square"/>
   </g>
   <g id="patch_5">
    <path d="M 44.059375 313.514125 
L 849.044375 313.514125 
" style="fill: none; stroke: #000000; stroke-width: 0.8; stroke-linejoin: miter; stroke-linecap: square"/>
   </g>
   <g id="patch_6">
    <path d="M 44.059375 22.318125 
L 849.044375 22.318125 
" style="fill: none; stroke: #000000; stroke-width: 0.8; stroke-linejoin: miter; stroke-linecap: square"/>
   </g>
   <g id="PathCollection_1">
    <defs>
     <path id="mb645d7fb67" d="M 0 3.24037 
C 0.859356 3.24037 1.683631 2.898944 2.291288 2.291288 
C 2.898944 1.683631 3.24037 0.859356 3.24037 0 
C 3.24037 -0.859356 2.898944 -1.683631 2.291288 -2.291288 
C 1.683631 -2.898944 0.859356 -3.24037 0 -3.24037 
C -0.859356 -3.24037 -1.683631 -2.898944 -2.291288 -2.291288 
C -2.898944 -1.683631 -3.24037 -0.859356 -3.24037 0 
C -3.24037 0.859356 -2.898944 1.683631 -2.291288 2.291288 
C -1.683631 2.898944 -0.859356 3.24037 0 3.24037 
z
" style="stroke: #000000; stroke-width: 0.5"/>
    </defs>
    <g clip-path="url(#p5a99d4ce82)">
     <use xlink:href="#mb645d7fb67" x="93.818734" y="87.357306" style="fill: #4c72b0; stroke: #000000; stroke-width: 0.5"/>
     <use xlink:href="#mb645d7fb67" x="172.485377" y="106.795425" style="fill: #4c72b0; stroke: #000000; stroke-width: 0.5"/>
     <use xlink:href="#mb645d7fb67" x="256.409529" y="138.702444" style="fill: #4c72b0; stroke: #000000; stroke-width: 0.5"/>
     <use xlink:href="#mb645d7fb67" x="364.578581" y="163.1751" style="fill: #4c72b0; stroke: #000000; stroke-width: 0.5"/>
     <use xlink:href="#mb645d7fb67" x="463.201725" y="188.014531" style="fill: #4c72b0; stroke: #000000; stroke-width: 0.5"/>
     <use xlink:href="#mb645d7fb67" x="598.500382" y="210.291858" style="fill: #4c72b0; stroke: #000000; stroke-width: 0.5"/>
     <use xlink:href="#mb645d7fb67" x="710.062963" y="222.931753" style="fill: #4c72b0; stroke: #000000; stroke-width: 0.5"/>
     <use xlink:href="#mb645d7fb67" x="800.299068" y="231.685925" style="fill: #4c72b0; stroke: #000000; stroke-width: 0.5"/>
    </g>
   </g>
   <g id="PathCollection_2">
    <defs>
     <path id="mb9b1a6a8d8" d="M 0 3.24037 
C 0.859356 3.24037 1.683631 2.898944 2.291288 2.291288 
C 2.898944 1.683631 3.24037 0.859356 3.24037 0 
C 3.24037 -0.859356 2.898944 -1.683631 2.291288 -2.291288 
C 1.683631 -2.898944 0.859356 -3.24037 0 -3.24037 
C -0.859356 -3.24037 -1.683631 -2.898944 -2.291288 -2.291288 
C -2.898944 -1.683631 -3.24037 -0.859356 -3.24037 0 
C -3.24037 0.859356 -2.898944 1.683631 -2.291288 2.291288 
C -1.683631 2.898944 -0.859356 3.24037 0 3.24037 
z
" style="stroke: #000000; stroke-width: 0.5"/>
    </defs>
    <g clip-path="url(#p5a99d4ce82)">
     <use xlink:href="#mb9b1a6a8d8" x="93.818734" y="58.500944" style="fill: #dd8452; stroke: #000000; stroke-width: 0.5"/>
     <use xlink:href="#mb9b1a6a8d8" x="172.485377" y="62.163136" style="fill: #dd8452; stroke: #000000; stroke-width: 0.5"/>
     <use xlink:href="#mb9b1a6a8d8" x="256.409529" y="68.499813" style="fill: #dd8452; stroke: #000000; stroke-width: 0.5"/>
     <use xlink:href="#mb9b1a6a8d8" x="364.578581" y="75.577781" style="fill: #dd8452; stroke: #000000; stroke-width: 0.5"/>
     <use xlink:href="#mb9b1a6a8d8" x="463.201725" y="84.435836" style="fill: #dd8452; stroke: #000000; stroke-width: 0.5"/>
     <use xlink:href="#mb9b1a6a8d8" x="598.500382" y="98.533865" style="fill: #dd8452; stroke: #000000; stroke-width: 0.5"/>
     <use xlink:href="#mb9b1a6a8d8" x="710.062963" y="110.745775" style="fill: #dd8452; stroke: #000000; stroke-width: 0.5"/>
     <use xlink:href="#mb9b1a6a8d8" x="800.299068" y="121.712068" style="fill: #dd8452; stroke: #000000; stroke-width: 0.5"/>
    </g>
   </g>
   <g id="PathCollection_3">
    <defs>
     <path id="mcf85a96935" d="M 0 3.24037 
C 0.859356 3.24037 1.683631 2.898944 2.291288 2.291288 
C 2.898944 1.683631 3.24037 0.859356 3.24037 0 
C 3.24037 -0.859356 2.898944 -1.683631 2.291288 -2.291288 
C 1.683631 -2.898944 0.859356 -3.24037 0 -3.24037 
C -0.859356 -3.24037 -1.683631 -2.898944 -2.291288 -2.291288 
C -2.898944 -1.683631 -3.24037 -0.859356 -3.24037 0 
C -3.24037 0.859356 -2.898944 1.683631 -2.291288 2.291288 
C -1.683631 2.898944 -0.859356 3.24037 0 3.24037 
z
" style="stroke: #000000; stroke-width: 0.5"/>
    </defs>
    <g clip-path="url(#p5a99d4ce82)">
     <use xlink:href="#mcf85a96935" x="93.818734" y="39.07639" style="fill: #55a868; stroke: #000000; stroke-width: 0.5"/>
     <use xlink:href="#mcf85a96935" x="172.485377" y="41.812356" style="fill: #55a868; stroke: #000000; stroke-width: 0.5"/>
     <use xlink:href="#mcf85a96935" x="256.409529" y="47.314989" style="fill: #55a868; stroke: #000000; stroke-width: 0.5"/>
     <use xlink:href="#mcf85a96935" x="364.578581" y="52.641748" style="fill: #55a868; stroke: #000000; stroke-width: 0.5"/>
     <use xlink:href="#mcf85a96935" x="463.201725" y="58.602213" style="fill: #55a868; stroke: #000000; stroke-width: 0.5"/>
     <use xlink:href="#mcf85a96935" x="598.500382" y="66.398227" style="fill: #55a868; stroke: #000000; stroke-width: 0.5"/>
     <use xlink:href="#mcf85a96935" x="710.062963" y="74.94467" style="fill: #55a868; stroke: #000000; stroke-width: 0.5"/>
     <use xlink:href="#mcf85a96935" x="800.299068" y="85.069374" style="fill: #55a868; stroke: #000000; stroke-width: 0.5"/>
    </g>
   </g>
   <g id="text_12">
    <!-- Per-region Kaplan scaling fit (parameter scaling sweep, v0.5) -->
    <g transform="translate(263.619375 16.318125) scale(0.12 -0.12)">
     <defs>
      <path id="DejaVuSans-50" d="M 1259 4147 
L 1259 2394 
L 2053 2394 
Q 2494 2394 2734 2622 
Q 2975 2850 2975 3272 
Q 2975 3691 2734 3919 
Q 2494 4147 2053 4147 
L 1259 4147 
z
M 628 4666 
L 2053 4666 
Q 2838 4666 3239 4311 
Q 3641 3956 3641 3272 
Q 3641 2581 3239 2228 
Q 2838 1875 2053 1875 
L 1259 1875 
L 1259 0 
L 628 0 
L 628 4666 
z
" transform="scale(0.015625)"/>
      <path id="DejaVuSans-2d" d="M 313 2009 
L 1997 2009 
L 1997 1497 
L 313 1497 
L 313 2009 
z
" transform="scale(0.015625)"/>
      <path id="DejaVuSans-4b" d="M 628 4666 
L 1259 4666 
L 1259 2694 
L 3353 4666 
L 4166 4666 
L 1850 2491 
L 4331 0 
L 3500 0 
L 1259 2247 
L 1259 0 
L 628 0 
L 628 4666 
z
" transform="scale(0.015625)"/>
      <path id="DejaVuSans-63" d="M 3122 3366 
L 3122 2828 
Q 2878 2963 2633 3030 
Q 2388 3097 2138 3097 
Q 1578 3097 1268 2742 
Q 959 2388 959 1747 
Q 959 1106 1268 751 
Q 1578 397 2138 397 
Q 2388 397 2633 464 
Q 2878 531 3122 666 
L 3122 134 
Q 2881 22 2623 -34 
Q 2366 -91 2075 -91 
Q 1284 -91 818 406 
Q 353 903 353 1747 
Q 353 2603 823 3093 
Q 1294 3584 2113 3584 
Q 2378 3584 2631 3529 
Q 2884 3475 3122 3366 
z
" transform="scale(0.015625)"/>
      <path id="DejaVuSans-66" d="M 2375 4863 
L 2375 4384 
L 1825 4384 
Q 1516 4384 1395 4259 
Q 1275 4134 1275 3809 
L 1275 3500 
L 2222 3500 
L 2222 3053 
L 1275 3053 
L 1275 0 
L 697 0 
L 697 3053 
L 147 3053 
L 147 3500 
L 697 3500 
L 697 3744 
Q 697 4328 969 4595 
Q 1241 4863 1831 4863 
L 2375 4863 
z
" transform="scale(0.015625)"/>
      <path id="DejaVuSans-74" d="M 1172 4494 
L 1172 3500 
L 2356 3500 
L 2356 3053 
L 1172 3053 
L 1172 1153 
Q 1172 725 1289 603 
Q 1406 481 1766 481 
L 2356 481 
L 2356 0 
L 1766 0 
Q 1100 0 847 248 
Q 594 497 594 1153 
L 594 3053 
L 172 3053 
L 172 3500 
L 594 3500 
L 594 4494 
L 1172 4494 
z
" transform="scale(0.015625)"/>
      <path id="DejaVuSans-77" d="M 269 3500 
L 844 3500 
L 1563 769 
L 2278 3500 
L 2956 3500 
L 3675 769 
L 4391 3500 
L 4966 3500 
L 4050 0 
L 3372 0 
L 2619 2869 
L 1863 0 
L 1184 0 
L 269 3500 
z
" transform="scale(0.015625)"/>
      <path id="DejaVuSans-2c" d="M 750 794 
L 1409 794 
L 1409 256 
L 897 -744 
L 494 -744 
L 750 256 
L 750 794 
z
" transform="scale(0.015625)"/>
      <path id="DejaVuSans-35" d="M 691 4666 
L 3169 4666 
L 3169 4134 
L 1269 4134 
L 1269 2991 
Q 1406 3038 1543 3061 
Q 1681 3084 1819 3084 
Q 2600 3084 3056 2656 
Q 3513 2228 3513 1497 
Q 3513 744 3044 326 
Q 2575 -91 1722 -91 
Q 1428 -91 1123 -41 
Q 819 9 494 109 
L 494 744 
Q 775 591 1075 516 
Q 1375 441 1709 441 
Q 2250 441 2565 725 
Q 2881 1009 2881 1497 
Q 2881 1984 2565 2268 
Q 2250 2553 1709 2553 
Q 1456 2553 1204 2497 
Q 953 2441 691 2322 
L 691 4666 
z
" transform="scale(0.015625)"/>
     </defs>
     <use xlink:href="#DejaVuSans-50"/>
     <use xlink:href="#DejaVuSans-65" transform="translate(56.677734 0)"/>
     <use xlink:href="#DejaVuSans-72" transform="translate(118.201172 0)"/>
     <use xlink:href="#DejaVuSans-2d" transform="translate(152.939453 0)"/>
     <use xlink:href="#DejaVuSans-72" transform="translate(189.023438 0)"/>
     <use xlink:href="#DejaVuSans-65" transform="translate(227.886719 0)"/>
     <use xlink:href="#DejaVuSans-67" transform="translate(289.410156 0)"/>
     <use xlink:href="#DejaVuSans-69" transform="translate(352.886719 0)"/>
     <use xlink:href="#DejaVuSans-6f" transform="translate(380.669922 0)"/>
     <use xlink:href="#DejaVuSans-6e" transform="translate(441.851562 0)"/>
     <use xlink:href="#DejaVuSans-20" transform="translate(505.230469 0)"/>
     <use xlink:href="#DejaVuSans-4b" transform="translate(537.017578 0)"/>
     <use xlink:href="#DejaVuSans-61" transform="translate(600.84375 0)"/>
     <use xlink:href="#DejaVuSans-70" transform="translate(662.123047 0)"/>
     <use xlink:href="#DejaVuSans-6c" transform="translate(725.599609 0)"/>
     <use xlink:href="#DejaVuSans-61" transform="translate(753.382812 0)"/>
     <use xlink:href="#DejaVuSans-6e" transform="translate(814.662109 0)"/>
     <use xlink:href="#DejaVuSans-20" transform="translate(878.041016 0)"/>
     <use xlink:href="#DejaVuSans-73" transform="translate(909.828125 0)"/>
     <use xlink:href="#DejaVuSans-63" transform="translate(961.927734 0)"/>
     <use xlink:href="#DejaVuSans-61" transform="translate(1016.908203 0)"/>
     <use xlink:href="#DejaVuSans-6c" transform="translate(1078.1875 0)"/>
     <use xlink:href="#DejaVuSans-69" transform="translate(1105.970703 0)"/>
     <use xlink:href="#DejaVuSans-6e" transform="translate(1133.753906 0)"/>
     <use xlink:href="#DejaVuSans-67" transform="translate(1197.132812 0)"/>
     <use xlink:href="#DejaVuSans-20" transform="translate(1260.609375 0)"/>
     <use xlink:href="#DejaVuSans-66" transform="translate(1292.396484 0)"/>
     <use xlink:href="#DejaVuSans-69" transform="translate(1327.601562 0)"/>
     <use xlink:href="#DejaVuSans-74" transform="translate(1355.384766 0)"/>
     <use xlink:href="#DejaVuSans-20" transform="translate(1394.59375 0)"/>
     <use xlink:href="#DejaVuSans-28" transform="translate(1426.380859 0)"/>
     <use xlink:href="#DejaVuSans-70" transform="translate(1465.394531 0)"/>
     <use xlink:href="#DejaVuSans-61" transform="translate(1528.871094 0)"/>
     <use xlink:href="#DejaVuSans-72" transform="translate(1590.150391 0)"/>
     <use xlink:href="#DejaVuSans-61" transform="translate(1631.263672 0)"/>
     <use xlink:href="#DejaVuSans-6d" transform="translate(1692.542969 0)"/>
     <use xlink:href="#DejaVuSans-65" transform="translate(1789.955078 0)"/>
     <use xlink:href="#DejaVuSans-74" transform="translate(1851.478516 0)"/>
     <use xlink:href="#DejaVuSans-65" transform="translate(1890.6875 0)"/>
     <use xlink:href="#DejaVuSans-72" transform="translate(1952.210938 0)"/>
     <use xlink:href="#DejaVuSans-20" transform="translate(1993.324219 0)"/>
     <use xlink:href="#DejaVuSans-73" transform="translate(2025.111328 0)"/>
     <use xlink:href="#DejaVuSans-63" transform="translate(2077.210938 0)"/>
     <use xlink:href="#DejaVuSans-61" transform="translate(2132.191406 0)"/>
     <use xlink:href="#DejaVuSans-6c" transform="translate(2193.470703 0)"/>
     <use xlink:href="#DejaVuSans-69" transform="translate(2221.253906 0)"/>
     <use xlink:href="#DejaVuSans-6e" transform="translate(2249.037109 0)"/>
     <use xlink:href="#DejaVuSans-67" transform="translate(2312.416016 0)"/>
     <use xlink:href="#DejaVuSans-20" transform="translate(2375.892578 0)"/>
     <use xlink:href="#DejaVuSans-73" transform="translate(2407.679688 0)"/>
     <use xlink:href="#DejaVuSans-77" transform="translate(2459.779297 0)"/>
     <use xlink:href="#DejaVuSans-65" transform="translate(2541.566406 0)"/>
     <use xlink:href="#DejaVuSans-65" transform="translate(2603.089844 0)"/>
     <use xlink:href="#DejaVuSans-70" transform="translate(2664.613281 0)"/>
     <use xlink:href="#DejaVuSans-2c" transform="translate(2728.089844 0)"/>
     <use xlink:href="#DejaVuSans-20" transform="translate(2759.876953 0)"/>
     <use xlink:href="#DejaVuSans-76" transform="translate(2791.664062 0)"/>
     <use xlink:href="#DejaVuSans-30" transform="translate(2850.84375 0)"/>
     <use xlink:href="#DejaVuSans-2e" transform="translate(2914.466797 0)"/>
     <use xlink:href="#DejaVuSans-35" transform="translate(2946.253906 0)"/>
     <use xlink:href="#DejaVuSans-29" transform="translate(3009.876953 0)"/>
    </g>
   </g>
   <g id="legend_1">
    <g id="PathCollection_4">
     <g>
      <use xlink:href="#mb645d7fb67" x="677.981094" y="34.894219" style="fill: #4c72b0; stroke: #000000; stroke-width: 0.5"/>
     </g>
    </g>
    <g id="text_13">
     <!-- cds: α=0.29, L∞=0.058 -->
     <g transform="translate(694.181094 37.256719) scale(0.09 -0.09)">
      <defs>
       <path id="DejaVuSans-3a" d="M 750 794 
L 1409 794 
L 1409 0 
L 750 0 
L 750 794 
z
M 750 3309 
L 1409 3309 
L 1409 2516 
L 750 2516 
L 750 3309 
z
" transform="scale(0.015625)"/>
       <path id="DejaVuSans-3b1" d="M 2644 1628 
L 2506 2350 
Q 2366 3091 1809 3091 
Q 1391 3091 1200 2747 
Q 959 2316 959 1747 
Q 959 1059 1194 731 
Q 1431 397 1809 397 
Q 2228 397 2453 1063 
L 2644 1628 
z
M 2966 2584 
L 3275 3500 
L 3788 3500 
L 3147 1603 
L 3272 919 
Q 3300 766 3409 638 
Q 3538 488 3638 488 
L 3913 488 
L 3913 0 
L 3569 0 
Q 3275 0 3013 263 
Q 2884 394 2831 669 
Q 2688 322 2394 50 
Q 2256 -78 1809 -78 
Q 1075 -78 719 397 
Q 353 888 353 1747 
Q 353 2666 750 3097 
Q 1191 3578 1809 3578 
Q 2781 3578 2966 2584 
z
" transform="scale(0.015625)"/>
       <path id="DejaVuSans-3d" d="M 678 2906 
L 4684 2906 
L 4684 2381 
L 678 2381 
L 678 2906 
z
M 678 1631 
L 4684 1631 
L 4684 1100 
L 678 1100 
L 678 1631 
z
" transform="scale(0.015625)"/>
       <path id="DejaVuSans-4c" d="M 628 4666 
L 1259 4666 
L 1259 531 
L 3531 531 
L 3531 0 
L 628 0 
L 628 4666 
z
" transform="scale(0.015625)"/>
       <path id="DejaVuSans-221e" d="M 2916 1091 
Q 2819 1203 2666 1466 
Q 2456 1091 2272 925 
Q 2041 725 1681 725 
Q 1259 725 981 1041 
Q 688 1372 688 1919 
Q 688 2444 981 2800 
Q 1244 3116 1688 3116 
Q 1916 3116 2084 3022 
Q 2281 2919 2416 2741 
Q 2541 2581 2666 2366 
Q 2875 2741 3059 2906 
Q 3291 3106 3650 3106 
Q 4072 3106 4350 2791 
Q 4644 2459 4644 1913 
Q 4644 1388 4350 1031 
Q 4088 716 3644 716 
Q 3416 716 3247 809 
Q 3078 894 2916 1091 
z
M 1647 1134 
Q 2163 1134 2472 1884 
Q 2075 2703 1647 2703 
Q 1334 2703 1175 2478 
Q 1003 2238 1003 1919 
Q 1003 1569 1175 1353 
Q 1350 1134 1647 1134 
z
M 3684 2697 
Q 3219 2697 2859 1947 
Q 3253 1128 3684 1128 
Q 3997 1128 4156 1353 
Q 4328 1594 4328 1913 
Q 4328 2263 4156 2478 
Q 3981 2697 3684 2697 
z
" transform="scale(0.015625)"/>
      </defs>
      <use xlink:href="#DejaVuSans-63"/>
      <use xlink:href="#DejaVuSans-64" transform="translate(54.980469 0)"/>
      <use xlink:href="#DejaVuSans-73" transform="translate(118.457031 0)"/>
      <use xlink:href="#DejaVuSans-3a" transform="translate(170.556641 0)"/>
      <use xlink:href="#DejaVuSans-20" transform="translate(204.248047 0)"/>
      <use xlink:href="#DejaVuSans-3b1" transform="translate(236.035156 0)"/>
      <use xlink:href="#DejaVuSans-3d" transform="translate(301.953125 0)"/>
      <use xlink:href="#DejaVuSans-30" transform="translate(385.742188 0)"/>
      <use xlink:href="#DejaVuSans-2e" transform="translate(449.365234 0)"/>
      <use xlink:href="#DejaVuSans-32" transform="translate(481.152344 0)"/>
      <use xlink:href="#DejaVuSans-39" transform="translate(544.775391 0)"/>
      <use xlink:href="#DejaVuSans-2c" transform="translate(608.398438 0)"/>
      <use xlink:href="#DejaVuSans-20" transform="translate(640.185547 0)"/>
      <use xlink:href="#DejaVuSans-4c" transform="translate(671.972656 0)"/>
      <use xlink:href="#DejaVuSans-221e" transform="translate(727.685547 0)"/>
      <use xlink:href="#DejaVuSans-3d" transform="translate(810.986328 0)"/>
      <use xlink:href="#DejaVuSans-30" transform="translate(894.775391 0)"/>
      <use xlink:href="#DejaVuSans-2e" transform="translate(958.398438 0)"/>
      <use xlink:href="#DejaVuSans-30" transform="translate(990.185547 0)"/>
      <use xlink:href="#DejaVuSans-35" transform="translate(1053.808594 0)"/>
      <use xlink:href="#DejaVuSans-38" transform="translate(1117.431641 0)"/>
     </g>
    </g>
    <g id="PathCollection_5">
     <g>
      <use xlink:href="#mb9b1a6a8d8" x="677.981094" y="48.104531" style="fill: #dd8452; stroke: #000000; stroke-width: 0.5"/>
     </g>
    </g>
    <g id="text_14">
     <!-- upstream: α=0.07, L∞=0.000 -->
     <g transform="translate(694.181094 50.467031) scale(0.09 -0.09)">
      <defs>
       <path id="DejaVuSans-75" d="M 544 1381 
L 544 3500 
L 1119 3500 
L 1119 1403 
Q 1119 906 1312 657 
Q 1506 409 1894 409 
Q 2359 409 2629 706 
Q 2900 1003 2900 1516 
L 2900 3500 
L 3475 3500 
L 3475 0 
L 2900 0 
L 2900 538 
Q 2691 219 2414 64 
Q 2138 -91 1772 -91 
Q 1169 -91 856 284 
Q 544 659 544 1381 
z
M 1991 3584 
L 1991 3584 
z
" transform="scale(0.015625)"/>
       <path id="DejaVuSans-37" d="M 525 4666 
L 3525 4666 
L 3525 4397 
L 1831 0 
L 1172 0 
L 2766 4134 
L 525 4134 
L 525 4666 
z
" transform="scale(0.015625)"/>
      </defs>
      <use xlink:href="#DejaVuSans-75"/>
      <use xlink:href="#DejaVuSans-70" transform="translate(63.378906 0)"/>
      <use xlink:href="#DejaVuSans-73" transform="translate(126.855469 0)"/>
      <use xlink:href="#DejaVuSans-74" transform="translate(178.955078 0)"/>
      <use xlink:href="#DejaVuSans-72" transform="translate(218.164062 0)"/>
      <use xlink:href="#DejaVuSans-65" transform="translate(257.027344 0)"/>
      <use xlink:href="#DejaVuSans-61" transform="translate(318.550781 0)"/>
      <use xlink:href="#DejaVuSans-6d" transform="translate(379.830078 0)"/>
      <use xlink:href="#DejaVuSans-3a" transform="translate(477.242188 0)"/>
      <use xlink:href="#DejaVuSans-20" transform="translate(510.933594 0)"/>
      <use xlink:href="#DejaVuSans-3b1" transform="translate(542.720703 0)"/>
      <use xlink:href="#DejaVuSans-3d" transform="translate(608.638672 0)"/>
      <use xlink:href="#DejaVuSans-30" transform="translate(692.427734 0)"/>
      <use xlink:href="#DejaVuSans-2e" transform="translate(756.050781 0)"/>
      <use xlink:href="#DejaVuSans-30" transform="translate(787.837891 0)"/>
      <use xlink:href="#DejaVuSans-37" transform="translate(851.460938 0)"/>
      <use xlink:href="#DejaVuSans-2c" transform="translate(915.083984 0)"/>
      <use xlink:href="#DejaVuSans-20" transform="translate(946.871094 0)"/>
      <use xlink:href="#DejaVuSans-4c" transform="translate(978.658203 0)"/>
      <use xlink:href="#DejaVuSans-221e" transform="translate(1034.371094 0)"/>
      <use xlink:href="#DejaVuSans-3d" transform="translate(1117.671875 0)"/>
      <use xlink:href="#DejaVuSans-30" transform="translate(1201.460938 0)"/>
      <use xlink:href="#DejaVuSans-2e" transform="translate(1265.083984 0)"/>
      <use xlink:href="#DejaVuSans-30" transform="translate(1296.871094 0)"/>
      <use xlink:href="#DejaVuSans-30" transform="translate(1360.494141 0)"/>
      <use xlink:href="#DejaVuSans-30" transform="translate(1424.117188 0)"/>
     </g>
    </g>
    <g id="PathCollection_6">
     <g>
      <use xlink:href="#mcf85a96935" x="677.981094" y="61.314844" style="fill: #55a868; stroke: #000000; stroke-width: 0.5"/>
     </g>
    </g>
    <g id="text_15">
     <!-- downstream: α=0.04, L∞=0.000 -->
     <g transform="translate(694.181094 63.677344) scale(0.09 -0.09)">
      <use xlink:href="#DejaVuSans-64"/>
      <use xlink:href="#DejaVuSans-6f" transform="translate(63.476562 0)"/>
      <use xlink:href="#DejaVuSans-77" transform="translate(124.658203 0)"/>
      <use xlink:href="#DejaVuSans-6e" transform="translate(206.445312 0)"/>
      <use xlink:href="#DejaVuSans-73" transform="translate(269.824219 0)"/>
      <use xlink:href="#DejaVuSans-74" transform="translate(321.923828 0)"/>
      <use xlink:href="#DejaVuSans-72" transform="translate(361.132812 0)"/>
      <use xlink:href="#DejaVuSans-65" transform="translate(399.996094 0)"/>
      <use xlink:href="#DejaVuSans-61" transform="translate(461.519531 0)"/>
      <use xlink:href="#DejaVuSans-6d" transform="translate(522.798828 0)"/>
      <use xlink:href="#DejaVuSans-3a" transform="translate(620.210938 0)"/>
      <use xlink:href="#DejaVuSans-20" transform="translate(653.902344 0)"/>
      <use xlink:href="#DejaVuSans-3b1" transform="translate(685.689453 0)"/>
      <use xlink:href="#DejaVuSans-3d" transform="translate(751.607422 0)"/>
      <use xlink:href="#DejaVuSans-30" transform="translate(835.396484 0)"/>
      <use xlink:href="#DejaVuSans-2e" transform="translate(899.019531 0)"/>
      <use xlink:href="#DejaVuSans-30" transform="translate(930.806641 0)"/>
      <use xlink:href="#DejaVuSans-34" transform="translate(994.429688 0)"/>
      <use xlink:href="#DejaVuSans-2c" transform="translate(1058.052734 0)"/>
      <use xlink:href="#DejaVuSans-20" transform="translate(1089.839844 0)"/>
      <use xlink:href="#DejaVuSans-4c" transform="translate(1121.626953 0)"/>
      <use xlink:href="#DejaVuSans-221e" transform="translate(1177.339844 0)"/>
      <use xlink:href="#DejaVuSans-3d" transform="translate(1260.640625 0)"/>
      <use xlink:href="#DejaVuSans-30" transform="translate(1344.429688 0)"/>
      <use xlink:href="#DejaVuSans-2e" transform="translate(1408.052734 0)"/>
      <use xlink:href="#DejaVuSans-30" transform="translate(1439.839844 0)"/>
      <use xlink:href="#DejaVuSans-30" transform="translate(1503.462891 0)"/>
      <use xlink:href="#DejaVuSans-30" transform="translate(1567.085938 0)"/>
     </g>
    </g>
   </g>
  </g>
 </g>
 <defs>
  <clipPath id="p5a99d4ce82">
   <rect x="44.059375" y="22.318125" width="804.985" height="291.196"/>
  </clipPath>
 </defs>
</svg>
