<svg width="595" height="517" viewBox="0 0 595 517" fill="none" xmlns="http://www.w3.org/2000/svg">
<g clip-path="url(#clip0_5819_6107)">
<g clip-path="url(#clip1_5819_6107)">
<rect width="297.742" height="297.742" transform="translate(595.131 297.746) rotate(90)" fill="#B5AA9F"/>
<rect x="446.26" y="297.745" width="74.3799" height="37.2456" transform="rotate(90 446.26 297.745)" fill="#9E6D43"/>
<rect x="446.26" y="446.614" width="74.3799" height="37.2456" transform="rotate(90 446.26 446.614)" fill="#9E6D43"/>
<rect x="595.131" y="297.745" width="74.3799" height="37.2456" transform="rotate(90 595.131 297.745)" fill="#9E6D43"/>
<rect x="595.131" y="446.614" width="74.3799" height="37.2456" transform="rotate(90 595.131 446.614)" fill="#9E6D43"/>
<rect x="371.77" y="297.745" width="74.3799" height="37.2456" transform="rotate(90 371.77 297.745)" fill="#9E6D43"/>
<rect x="371.77" y="446.614" width="74.3799" height="37.2456" transform="rotate(90 371.77 446.614)" fill="#9E6D43"/>
<rect x="520.639" y="297.745" width="74.3799" height="37.2456" transform="rotate(90 520.639 297.745)" fill="#9E6D43"/>
<rect x="520.639" y="446.614" width="74.3799" height="37.2456" transform="rotate(90 520.639 446.614)" fill="#9E6D43"/>
<rect x="409.014" y="372.237" width="74.3799" height="37.1344" transform="rotate(90 409.014 372.237)" fill="#9E6D43"/>
<rect x="557.885" y="372.237" width="74.3799" height="37.1344" transform="rotate(90 557.885 372.237)" fill="#9E6D43"/>
<rect x="334.523" y="372.237" width="74.3799" height="37.1344" transform="rotate(90 334.523 372.237)" fill="#9E6D43"/>
<rect x="483.393" y="372.237" width="74.3799" height="37.1344" transform="rotate(90 483.393 372.237)" fill="#9E6D43"/>
</g>
<g clip-path="url(#clip2_5819_6107)">
<rect width="297.742" height="297.742" transform="translate(297.389)" fill="#B5AA9F"/>
<rect x="446.26" y="-0.00463867" width="37.2456" height="37.2456" transform="rotate(90 446.26 -0.00463867)" fill="#9E6D43"/>
<rect x="446.26" y="148.873" width="37.2456" height="37.2456" transform="rotate(90 446.26 148.873)" fill="#9E6D43"/>
<rect x="446.26" y="74.4915" width="37.1344" height="37.2455" transform="rotate(90 446.26 74.4915)" fill="#9E6D43"/>
<rect x="446.26" y="223.36" width="37.1344" height="37.2455" transform="rotate(90 446.26 223.36)" fill="#9E6D43"/>
<rect x="595.129" y="-0.00463867" width="37.2456" height="37.2456" transform="rotate(90 595.129 -0.00463867)" fill="#9E6D43"/>
<rect x="595.129" y="148.873" width="37.2456" height="37.2456" transform="rotate(90 595.129 148.873)" fill="#9E6D43"/>
<rect x="595.129" y="74.4915" width="37.1344" height="37.2455" transform="rotate(90 595.129 74.4915)" fill="#9E6D43"/>
<rect x="595.129" y="223.36" width="37.1344" height="37.2455" transform="rotate(90 595.129 223.36)" fill="#9E6D43"/>
<rect x="371.768" y="-0.00463867" width="37.2456" height="37.2456" transform="rotate(90 371.768 -0.00463867)" fill="#9E6D43"/>
<rect x="371.768" y="148.873" width="37.2456" height="37.2456" transform="rotate(90 371.768 148.873)" fill="#9E6D43"/>
<rect x="371.768" y="74.4915" width="37.1344" height="37.2455" transform="rotate(90 371.768 74.4915)" fill="#9E6D43"/>
<rect x="371.768" y="223.36" width="37.1344" height="37.2455" transform="rotate(90 371.768 223.36)" fill="#9E6D43"/>
<rect x="520.639" y="-0.00463867" width="37.2456" height="37.2456" transform="rotate(90 520.639 -0.00463867)" fill="#9E6D43"/>
<rect x="520.639" y="148.873" width="37.2456" height="37.2456" transform="rotate(90 520.639 148.873)" fill="#9E6D43"/>
<rect x="520.639" y="74.4915" width="37.1344" height="37.2455" transform="rotate(90 520.639 74.4915)" fill="#9E6D43"/>
<rect x="520.639" y="223.36" width="37.1344" height="37.2455" transform="rotate(90 520.639 223.36)" fill="#9E6D43"/>
<rect x="409.014" y="37.2458" width="37.1344" height="37.1344" transform="rotate(90 409.014 37.2458)" fill="#9E6D43"/>
<rect x="409.014" y="186.114" width="37.1344" height="37.1344" transform="rotate(90 409.014 186.114)" fill="#9E6D43"/>
<rect x="409.014" y="111.623" width="37.2456" height="37.1344" transform="rotate(90 409.014 111.623)" fill="#9E6D43"/>
<rect x="409.014" y="260.495" width="37.2456" height="37.1344" transform="rotate(90 409.014 260.495)" fill="#9E6D43"/>
<rect x="557.885" y="37.2458" width="37.1344" height="37.1344" transform="rotate(90 557.885 37.2458)" fill="#9E6D43"/>
<rect x="557.885" y="186.114" width="37.1344" height="37.1344" transform="rotate(90 557.885 186.114)" fill="#9E6D43"/>
<rect x="557.885" y="111.623" width="37.2456" height="37.1344" transform="rotate(90 557.885 111.623)" fill="#9E6D43"/>
<rect x="557.885" y="260.495" width="37.2456" height="37.1344" transform="rotate(90 557.885 260.495)" fill="#9E6D43"/>
<rect x="334.523" y="37.2458" width="37.1344" height="37.1344" transform="rotate(90 334.523 37.2458)" fill="#9E6D43"/>
<rect x="334.523" y="186.114" width="37.1344" height="37.1344" transform="rotate(90 334.523 186.114)" fill="#9E6D43"/>
<rect x="334.523" y="111.623" width="37.2456" height="37.1344" transform="rotate(90 334.523 111.623)" fill="#9E6D43"/>
<rect x="334.523" y="260.495" width="37.2456" height="37.1344" transform="rotate(90 334.523 260.495)" fill="#9E6D43"/>
<rect x="483.393" y="37.2458" width="37.1344" height="37.1344" transform="rotate(90 483.393 37.2458)" fill="#9E6D43"/>
<rect x="483.393" y="186.114" width="37.1344" height="37.1344" transform="rotate(90 483.393 186.114)" fill="#9E6D43"/>
<rect x="483.393" y="111.623" width="37.2456" height="37.1344" transform="rotate(90 483.393 111.623)" fill="#9E6D43"/>
<rect x="483.393" y="260.495" width="37.2456" height="37.1344" transform="rotate(90 483.393 260.495)" fill="#9E6D43"/>
</g>
<g clip-path="url(#clip3_5819_6107)">
<rect width="297.742" height="297.742" fill="#B5AA9F"/>
<rect x="148.871" y="-0.00463867" width="148.871" height="37.2456" transform="rotate(90 148.871 -0.00463867)" fill="#9E6D43"/>
<rect x="297.742" y="-0.00463867" width="148.871" height="37.2456" transform="rotate(90 297.742 -0.00463867)" fill="#9E6D43"/>
<rect x="74.3789" y="-0.00463867" width="148.871" height="37.2456" transform="rotate(90 74.3789 -0.00463867)" fill="#9E6D43"/>
<rect x="223.25" y="-0.00463867" width="148.871" height="37.2456" transform="rotate(90 223.25 -0.00463867)" fill="#9E6D43"/>
<rect x="111.625" y="148.873" width="148.871" height="37.1344" transform="rotate(90 111.625 148.873)" fill="#9E6D43"/>
<rect x="260.496" y="148.873" width="148.871" height="37.1344" transform="rotate(90 260.496 148.873)" fill="#9E6D43"/>
<rect x="37.1328" y="148.873" width="148.871" height="37.1344" transform="rotate(90 37.1328 148.873)" fill="#9E6D43"/>
<rect x="186.006" y="148.873" width="148.871" height="37.1344" transform="rotate(90 186.006 148.873)" fill="#9E6D43"/>
</g>
<g clip-path="url(#clip4_5819_6107)">
<rect width="297.742" height="297.742" transform="translate(297.742 297.746) rotate(90)" fill="#B5AA9F"/>
<rect x="148.871" y="297.745" width="74.3799" height="37.2456" transform="rotate(90 148.871 297.745)" fill="#9E6D43"/>
<rect x="148.871" y="446.614" width="74.3799" height="37.2456" transform="rotate(90 148.871 446.614)" fill="#9E6D43"/>
<rect x="297.742" y="297.745" width="74.3799" height="37.2456" transform="rotate(90 297.742 297.745)" fill="#9E6D43"/>
<rect x="297.742" y="446.614" width="74.3799" height="37.2456" transform="rotate(90 297.742 446.614)" fill="#9E6D43"/>
<rect x="74.3809" y="297.745" width="74.3799" height="37.2456" transform="rotate(90 74.3809 297.745)" fill="#9E6D43"/>
<rect x="74.3809" y="446.614" width="74.3799" height="37.2456" transform="rotate(90 74.3809 446.614)" fill="#9E6D43"/>
<rect x="223.252" y="297.745" width="74.3799" height="37.2456" transform="rotate(90 223.252 297.745)" fill="#9E6D43"/>
<rect x="223.252" y="446.614" width="74.3799" height="37.2456" transform="rotate(90 223.252 446.614)" fill="#9E6D43"/>
<rect x="111.625" y="372.237" width="74.3799" height="37.1344" transform="rotate(90 111.625 372.237)" fill="#9E6D43"/>
<rect x="260.496" y="372.237" width="74.3799" height="37.1344" transform="rotate(90 260.496 372.237)" fill="#9E6D43"/>
<rect x="37.1348" y="372.237" width="74.3799" height="37.1344" transform="rotate(90 37.1348 372.237)" fill="#9E6D43"/>
<rect x="186.006" y="372.237" width="74.3799" height="37.1344" transform="rotate(90 186.006 372.237)" fill="#9E6D43"/>
</g>
</g>
<defs>
<clipPath id="clip0_5819_6107">
<rect width="595" height="516.34" fill="white"/>
</clipPath>
<clipPath id="clip1_5819_6107">
<rect width="297.742" height="297.742" fill="white" transform="translate(595.131 297.746) rotate(90)"/>
</clipPath>
<clipPath id="clip2_5819_6107">
<rect width="297.742" height="297.742" fill="white" transform="translate(297.389)"/>
</clipPath>
<clipPath id="clip3_5819_6107">
<rect width="297.742" height="297.742" fill="white"/>
</clipPath>
<clipPath id="clip4_5819_6107">
<rect width="297.742" height="297.742" fill="white" transform="translate(297.742 297.746) rotate(90)"/>
</clipPath>
</defs>
</svg>
