<svg width="595" height="551" viewBox="0 0 595 551" fill="none" xmlns="http://www.w3.org/2000/svg">
<g clip-path="url(#clip0_5819_5544)">
<path d="M285 0H380V664H332V569H284.545V664H237.545V569H237.072V569.369H189.629V474.625H237V380H190V190H285V0ZM95.1699 189.922V0.291992H189.914V189.923L95.1699 189.922ZM47 379.553L0.28418 379.552V189.922H95.1699V379.553H95V474H47V379.553ZM142.328 379.738H189.629V474.482H142.328V379.738ZM94.8848 474.625H142.328V569.369H94.8848V474.625ZM-0.000976562 569.369V474.625H47.4424V569.37L-0.000976562 569.369ZM142.328 569.369H189.629V664.113H142.328V569.369ZM47.4424 569.369H94.7441V664.113H47.4424V569.369ZM284.515 664.255H331.958V758.999H284.515V664.255ZM189.629 664.255H237.072V758.999H189.629V664.255ZM94.8848 664.255H142.328V758.999H94.8848V664.255ZM-0.000976562 664.255H47.4424V758.999H-0.000976562V664.255Z" fill="#B5AA9F"/>
<path d="M664.002 758.999H759.002V94.999H711.002V189.999H663.547V94.999H616.547V189.999H616.074V189.63H568.631V284.374H616.002V378.999H569.002V568.999H664.002V758.999ZM474.172 569.077V758.707H568.916V569.076L474.172 569.077ZM426.002 379.446L379.286 379.447V569.077H474.172V379.446H474.002V284.999H426.002V379.446ZM521.33 379.261H568.631V284.517H521.33V379.261ZM473.887 284.374H521.33V189.63H473.887V284.374ZM379.001 189.63V284.374H426.444V189.629L379.001 189.63ZM521.33 189.63H568.631V94.8857H521.33V189.63ZM426.444 189.63H473.746V94.8857H426.444V189.63ZM663.517 94.7441H710.96V0H663.517V94.7441ZM568.631 94.7441H616.074V0H568.631V94.7441ZM473.887 94.7441H521.33V0H473.887V94.7441ZM379.001 94.7441H426.444V0H379.001V94.7441Z" fill="#B5AA9F"/>
</g>
<defs>
<clipPath id="clip0_5819_5544">
<rect width="595" height="550.34" fill="white"/>
</clipPath>
</defs>
</svg>
