<?xml version="1.0" encoding="utf-8" standalone="no"?>
<!DOCTYPE svg PUBLIC "-//W3C//DTD SVG 1.1//EN"
  "http://www.w3.org/Graphics/SVG/1.1/DTD/svg11.dtd">
<svg xmlns:xlink="http://www.w3.org/1999/xlink" width="856.31625pt" height="354.020625pt" viewBox="0 0 856.31625 354.020625" xmlns="http://www.w3.org/2000/svg" version="1.1">
 <metadata>
  <rdf:RDF xmlns:dc="http://purl.org/dc/elements/1.1/" xmlns:cc="http://creativecommons.org/ns#" xmlns:rdf="http://www.w3.org/1999/02/22-rdf-syntax-ns#">
   <cc:Work>
    <dc:type rdf:resource="http://purl.org/dc/dcmitype/StillImage"/>
    <dc:date>2026-06-04T12:57:35.124058</dc:date>
    <dc:format>image/svg+xml</dc:format>
    <dc:creator>
     <cc:Agent>
      <dc:title>Matplotlib v3.10.9, https://matplotlib.org/</dc:title>
     </cc:Agent>
    </dc:creator>
   </cc:Work>
  </rdf:RDF>
 </metadata>
 <defs>
  <style type="text/css">*{stroke-linejoin: round; stroke-linecap: butt}</style>
 </defs>
 <g id="figure_1">
  <g id="patch_1">
   <path d="M 0 354.020625 
L 856.31625 354.020625 
L 856.31625 0 
L 0 0 
L 0 354.020625 
z
" style="fill: none"/>
  </g>
  <g id="axes_1">
   <g id="patch_2">
    <path d="M 56.50625 266.153639 
L 422.51625 266.153639 
L 422.51625 27 
L 56.50625 27 
L 56.50625 266.153639 
z
" style="fill: none"/>
   </g>
   <g id="matplotlib.axis_1">
    <g id="xtick_1">
     <g id="line2d_1">
      <defs>
       <path id="m66bea28206" d="M 0 0 
L 0 3.5 
" style="stroke: #000000; stroke-width: 0.8"/>
      </defs>
      <g>
       <use xlink:href="#m66bea28206" x="73.143068" y="266.153639" style="stroke: #000000; stroke-width: 0.8"/>
      </g>
     </g>
     <g id="text_1">
      <!-- 0.7000 -->
      <g transform="translate(48.068977 292.414241) rotate(-30) scale(0.08 -0.08)">
       <defs>
        <path id="DejaVuSans-30" d="M 2034 4250 
Q 1547 4250 1301 3770 
Q 1056 3291 1056 2328 
Q 1056 1369 1301 889 
Q 1547 409 2034 409 
Q 2525 409 2770 889 
Q 3016 1369 3016 2328 
Q 3016 3291 2770 3770 
Q 2525 4250 2034 4250 
z
M 2034 4750 
Q 2819 4750 3233 4129 
Q 3647 3509 3647 2328 
Q 3647 1150 3233 529 
Q 2819 -91 2034 -91 
Q 1250 -91 836 529 
Q 422 1150 422 2328 
Q 422 3509 836 4129 
Q 1250 4750 2034 4750 
z
" transform="scale(0.015625)"/>
        <path id="DejaVuSans-2e" d="M 684 794 
L 1344 794 
L 1344 0 
L 684 0 
L 684 794 
z
" transform="scale(0.015625)"/>
        <path id="DejaVuSans-37" d="M 525 4666 
L 3525 4666 
L 3525 4397 
L 1831 0 
L 1172 0 
L 2766 4134 
L 525 4134 
L 525 4666 
z
" transform="scale(0.015625)"/>
       </defs>
       <use xlink:href="#DejaVuSans-30"/>
       <use xlink:href="#DejaVuSans-2e" transform="translate(63.623047 0)"/>
       <use xlink:href="#DejaVuSans-37" transform="translate(95.410156 0)"/>
       <use xlink:href="#DejaVuSans-30" transform="translate(159.033203 0)"/>
       <use xlink:href="#DejaVuSans-30" transform="translate(222.65625 0)"/>
       <use xlink:href="#DejaVuSans-30" transform="translate(286.279297 0)"/>
      </g>
     </g>
    </g>
    <g id="xtick_2">
     <g id="line2d_2">
      <g>
       <use xlink:href="#m66bea28206" x="110.113775" y="266.153639" style="stroke: #000000; stroke-width: 0.8"/>
      </g>
     </g>
     <g id="text_2">
      <!-- 0.7839 -->
      <g transform="translate(85.039684 292.414241) rotate(-30) scale(0.08 -0.08)">
       <defs>
        <path id="DejaVuSans-38" d="M 2034 2216 
Q 1584 2216 1326 1975 
Q 1069 1734 1069 1313 
Q 1069 891 1326 650 
Q 1584 409 2034 409 
Q 2484 409 2743 651 
Q 3003 894 3003 1313 
Q 3003 1734 2745 1975 
Q 2488 2216 2034 2216 
z
M 1403 2484 
Q 997 2584 770 2862 
Q 544 3141 544 3541 
Q 544 4100 942 4425 
Q 1341 4750 2034 4750 
Q 2731 4750 3128 4425 
Q 3525 4100 3525 3541 
Q 3525 3141 3298 2862 
Q 3072 2584 2669 2484 
Q 3125 2378 3379 2068 
Q 3634 1759 3634 1313 
Q 3634 634 3220 271 
Q 2806 -91 2034 -91 
Q 1263 -91 848 271 
Q 434 634 434 1313 
Q 434 1759 690 2068 
Q 947 2378 1403 2484 
z
M 1172 3481 
Q 1172 3119 1398 2916 
Q 1625 2713 2034 2713 
Q 2441 2713 2670 2916 
Q 2900 3119 2900 3481 
Q 2900 3844 2670 4047 
Q 2441 4250 2034 4250 
Q 1625 4250 1398 4047 
Q 1172 3844 1172 3481 
z
" transform="scale(0.015625)"/>
        <path id="DejaVuSans-33" d="M 2597 2516 
Q 3050 2419 3304 2112 
Q 3559 1806 3559 1356 
Q 3559 666 3084 287 
Q 2609 -91 1734 -91 
Q 1441 -91 1130 -33 
Q 819 25 488 141 
L 488 750 
Q 750 597 1062 519 
Q 1375 441 1716 441 
Q 2309 441 2620 675 
Q 2931 909 2931 1356 
Q 2931 1769 2642 2001 
Q 2353 2234 1838 2234 
L 1294 2234 
L 1294 2753 
L 1863 2753 
Q 2328 2753 2575 2939 
Q 2822 3125 2822 3475 
Q 2822 3834 2567 4026 
Q 2313 4219 1838 4219 
Q 1578 4219 1281 4162 
Q 984 4106 628 3988 
L 628 4550 
Q 988 4650 1302 4700 
Q 1616 4750 1894 4750 
Q 2613 4750 3031 4423 
Q 3450 4097 3450 3541 
Q 3450 3153 3228 2886 
Q 3006 2619 2597 2516 
z
" transform="scale(0.015625)"/>
        <path id="DejaVuSans-39" d="M 703 97 
L 703 672 
Q 941 559 1184 500 
Q 1428 441 1663 441 
Q 2288 441 2617 861 
Q 2947 1281 2994 2138 
Q 2813 1869 2534 1725 
Q 2256 1581 1919 1581 
Q 1219 1581 811 2004 
Q 403 2428 403 3163 
Q 403 3881 828 4315 
Q 1253 4750 1959 4750 
Q 2769 4750 3195 4129 
Q 3622 3509 3622 2328 
Q 3622 1225 3098 567 
Q 2575 -91 1691 -91 
Q 1453 -91 1209 -44 
Q 966 3 703 97 
z
M 1959 2075 
Q 2384 2075 2632 2365 
Q 2881 2656 2881 3163 
Q 2881 3666 2632 3958 
Q 2384 4250 1959 4250 
Q 1534 4250 1286 3958 
Q 1038 3666 1038 3163 
Q 1038 2656 1286 2365 
Q 1534 2075 1959 2075 
z
" transform="scale(0.015625)"/>
       </defs>
       <use xlink:href="#DejaVuSans-30"/>
       <use xlink:href="#DejaVuSans-2e" transform="translate(63.623047 0)"/>
       <use xlink:href="#DejaVuSans-37" transform="translate(95.410156 0)"/>
       <use xlink:href="#DejaVuSans-38" transform="translate(159.033203 0)"/>
       <use xlink:href="#DejaVuSans-33" transform="translate(222.65625 0)"/>
       <use xlink:href="#DejaVuSans-39" transform="translate(286.279297 0)"/>
      </g>
     </g>
    </g>
    <g id="xtick_3">
     <g id="line2d_3">
      <g>
       <use xlink:href="#m66bea28206" x="147.084482" y="266.153639" style="stroke: #000000; stroke-width: 0.8"/>
      </g>
     </g>
     <g id="text_3">
      <!-- 0.8678 -->
      <g transform="translate(122.010391 292.414241) rotate(-30) scale(0.08 -0.08)">
       <defs>
        <path id="DejaVuSans-36" d="M 2113 2584 
Q 1688 2584 1439 2293 
Q 1191 2003 1191 1497 
Q 1191 994 1439 701 
Q 1688 409 2113 409 
Q 2538 409 2786 701 
Q 3034 994 3034 1497 
Q 3034 2003 2786 2293 
Q 2538 2584 2113 2584 
z
M 3366 4563 
L 3366 3988 
Q 3128 4100 2886 4159 
Q 2644 4219 2406 4219 
Q 1781 4219 1451 3797 
Q 1122 3375 1075 2522 
Q 1259 2794 1537 2939 
Q 1816 3084 2150 3084 
Q 2853 3084 3261 2657 
Q 3669 2231 3669 1497 
Q 3669 778 3244 343 
Q 2819 -91 2113 -91 
Q 1303 -91 875 529 
Q 447 1150 447 2328 
Q 447 3434 972 4092 
Q 1497 4750 2381 4750 
Q 2619 4750 2861 4703 
Q 3103 4656 3366 4563 
z
" transform="scale(0.015625)"/>
       </defs>
       <use xlink:href="#DejaVuSans-30"/>
       <use xlink:href="#DejaVuSans-2e" transform="translate(63.623047 0)"/>
       <use xlink:href="#DejaVuSans-38" transform="translate(95.410156 0)"/>
       <use xlink:href="#DejaVuSans-36" transform="translate(159.033203 0)"/>
       <use xlink:href="#DejaVuSans-37" transform="translate(222.65625 0)"/>
       <use xlink:href="#DejaVuSans-38" transform="translate(286.279297 0)"/>
      </g>
     </g>
    </g>
    <g id="xtick_4">
     <g id="line2d_4">
      <g>
       <use xlink:href="#m66bea28206" x="184.055189" y="266.153639" style="stroke: #000000; stroke-width: 0.8"/>
      </g>
     </g>
     <g id="text_4">
      <!-- 0.9517 -->
      <g transform="translate(158.981098 292.414241) rotate(-30) scale(0.08 -0.08)">
       <defs>
        <path id="DejaVuSans-35" d="M 691 4666 
L 3169 4666 
L 3169 4134 
L 1269 4134 
L 1269 2991 
Q 1406 3038 1543 3061 
Q 1681 3084 1819 3084 
Q 2600 3084 3056 2656 
Q 3513 2228 3513 1497 
Q 3513 744 3044 326 
Q 2575 -91 1722 -91 
Q 1428 -91 1123 -41 
Q 819 9 494 109 
L 494 744 
Q 775 591 1075 516 
Q 1375 441 1709 441 
Q 2250 441 2565 725 
Q 2881 1009 2881 1497 
Q 2881 1984 2565 2268 
Q 2250 2553 1709 2553 
Q 1456 2553 1204 2497 
Q 953 2441 691 2322 
L 691 4666 
z
" transform="scale(0.015625)"/>
        <path id="DejaVuSans-31" d="M 794 531 
L 1825 531 
L 1825 4091 
L 703 3866 
L 703 4441 
L 1819 4666 
L 2450 4666 
L 2450 531 
L 3481 531 
L 3481 0 
L 794 0 
L 794 531 
z
" transform="scale(0.015625)"/>
       </defs>
       <use xlink:href="#DejaVuSans-30"/>
       <use xlink:href="#DejaVuSans-2e" transform="translate(63.623047 0)"/>
       <use xlink:href="#DejaVuSans-39" transform="translate(95.410156 0)"/>
       <use xlink:href="#DejaVuSans-35" transform="translate(159.033203 0)"/>
       <use xlink:href="#DejaVuSans-31" transform="translate(222.65625 0)"/>
       <use xlink:href="#DejaVuSans-37" transform="translate(286.279297 0)"/>
      </g>
     </g>
    </g>
    <g id="xtick_5">
     <g id="line2d_5">
      <g>
       <use xlink:href="#m66bea28206" x="221.025896" y="266.153639" style="stroke: #000000; stroke-width: 0.8"/>
      </g>
     </g>
     <g id="text_5">
      <!-- 0.9598 -->
      <g transform="translate(195.951805 292.414241) rotate(-30) scale(0.08 -0.08)">
       <use xlink:href="#DejaVuSans-30"/>
       <use xlink:href="#DejaVuSans-2e" transform="translate(63.623047 0)"/>
       <use xlink:href="#DejaVuSans-39" transform="translate(95.410156 0)"/>
       <use xlink:href="#DejaVuSans-35" transform="translate(159.033203 0)"/>
       <use xlink:href="#DejaVuSans-39" transform="translate(222.65625 0)"/>
       <use xlink:href="#DejaVuSans-38" transform="translate(286.279297 0)"/>
      </g>
     </g>
    </g>
    <g id="xtick_6">
     <g id="line2d_6">
      <g>
       <use xlink:href="#m66bea28206" x="257.996604" y="266.153639" style="stroke: #000000; stroke-width: 0.8"/>
      </g>
     </g>
     <g id="text_6">
      <!-- 0.9678 -->
      <g transform="translate(232.922512 292.414241) rotate(-30) scale(0.08 -0.08)">
       <use xlink:href="#DejaVuSans-30"/>
       <use xlink:href="#DejaVuSans-2e" transform="translate(63.623047 0)"/>
       <use xlink:href="#DejaVuSans-39" transform="translate(95.410156 0)"/>
       <use xlink:href="#DejaVuSans-36" transform="translate(159.033203 0)"/>
       <use xlink:href="#DejaVuSans-37" transform="translate(222.65625 0)"/>
       <use xlink:href="#DejaVuSans-38" transform="translate(286.279297 0)"/>
      </g>
     </g>
    </g>
    <g id="xtick_7">
     <g id="line2d_7">
      <g>
       <use xlink:href="#m66bea28206" x="294.967311" y="266.153639" style="stroke: #000000; stroke-width: 0.8"/>
      </g>
     </g>
     <g id="text_7">
      <!-- 0.9758 -->
      <g transform="translate(269.893219 292.414241) rotate(-30) scale(0.08 -0.08)">
       <use xlink:href="#DejaVuSans-30"/>
       <use xlink:href="#DejaVuSans-2e" transform="translate(63.623047 0)"/>
       <use xlink:href="#DejaVuSans-39" transform="translate(95.410156 0)"/>
       <use xlink:href="#DejaVuSans-37" transform="translate(159.033203 0)"/>
       <use xlink:href="#DejaVuSans-35" transform="translate(222.65625 0)"/>
       <use xlink:href="#DejaVuSans-38" transform="translate(286.279297 0)"/>
      </g>
     </g>
    </g>
    <g id="xtick_8">
     <g id="line2d_8">
      <g>
       <use xlink:href="#m66bea28206" x="331.938018" y="266.153639" style="stroke: #000000; stroke-width: 0.8"/>
      </g>
     </g>
     <g id="text_8">
      <!-- 0.9838 -->
      <g transform="translate(306.863927 292.414241) rotate(-30) scale(0.08 -0.08)">
       <use xlink:href="#DejaVuSans-30"/>
       <use xlink:href="#DejaVuSans-2e" transform="translate(63.623047 0)"/>
       <use xlink:href="#DejaVuSans-39" transform="translate(95.410156 0)"/>
       <use xlink:href="#DejaVuSans-38" transform="translate(159.033203 0)"/>
       <use xlink:href="#DejaVuSans-33" transform="translate(222.65625 0)"/>
       <use xlink:href="#DejaVuSans-38" transform="translate(286.279297 0)"/>
      </g>
     </g>
    </g>
    <g id="xtick_9">
     <g id="line2d_9">
      <g>
       <use xlink:href="#m66bea28206" x="368.908725" y="266.153639" style="stroke: #000000; stroke-width: 0.8"/>
      </g>
     </g>
     <g id="text_9">
      <!-- 0.9919 -->
      <g transform="translate(343.834634 292.414241) rotate(-30) scale(0.08 -0.08)">
       <use xlink:href="#DejaVuSans-30"/>
       <use xlink:href="#DejaVuSans-2e" transform="translate(63.623047 0)"/>
       <use xlink:href="#DejaVuSans-39" transform="translate(95.410156 0)"/>
       <use xlink:href="#DejaVuSans-39" transform="translate(159.033203 0)"/>
       <use xlink:href="#DejaVuSans-31" transform="translate(222.65625 0)"/>
       <use xlink:href="#DejaVuSans-39" transform="translate(286.279297 0)"/>
      </g>
     </g>
    </g>
    <g id="xtick_10">
     <g id="line2d_10">
      <g>
       <use xlink:href="#m66bea28206" x="405.879432" y="266.153639" style="stroke: #000000; stroke-width: 0.8"/>
      </g>
     </g>
     <g id="text_10">
      <!-- 0.9999 -->
      <g transform="translate(380.805341 292.414241) rotate(-30) scale(0.08 -0.08)">
       <use xlink:href="#DejaVuSans-30"/>
       <use xlink:href="#DejaVuSans-2e" transform="translate(63.623047 0)"/>
       <use xlink:href="#DejaVuSans-39" transform="translate(95.410156 0)"/>
       <use xlink:href="#DejaVuSans-39" transform="translate(159.033203 0)"/>
       <use xlink:href="#DejaVuSans-39" transform="translate(222.65625 0)"/>
       <use xlink:href="#DejaVuSans-39" transform="translate(286.279297 0)"/>
      </g>
     </g>
    </g>
    <g id="text_11">
     <!-- $\beta_2$ -->
     <g transform="translate(233.91125 305.555091) scale(0.1 -0.1)">
      <defs>
       <path id="DejaVuSans-Oblique-3b2" d="M 872 216 
L 572 -1331 
L -6 -1331 
L 928 3478 
Q 1206 4903 2538 4903 
Q 3888 4903 3659 3700 
Q 3503 2844 2894 2531 
Q 3713 2250 3553 1416 
Q 3272 -69 1759 -66 
Q 1097 -63 872 216 
z
M 1019 966 
Q 1259 422 1875 425 
Q 2775 425 2966 1406 
Q 3138 2288 1675 2219 
L 1778 2750 
Q 2909 2731 3106 3750 
Q 3241 4438 2509 4434 
Q 1691 4434 1503 3459 
L 1019 966 
z
" transform="scale(0.015625)"/>
       <path id="DejaVuSans-32" d="M 1228 531 
L 3431 531 
L 3431 0 
L 469 0 
L 469 531 
Q 828 903 1448 1529 
Q 2069 2156 2228 2338 
Q 2531 2678 2651 2914 
Q 2772 3150 2772 3378 
Q 2772 3750 2511 3984 
Q 2250 4219 1831 4219 
Q 1534 4219 1204 4116 
Q 875 4013 500 3803 
L 500 4441 
Q 881 4594 1212 4672 
Q 1544 4750 1819 4750 
Q 2544 4750 2975 4387 
Q 3406 4025 3406 3419 
Q 3406 3131 3298 2873 
Q 3191 2616 2906 2266 
Q 2828 2175 2409 1742 
Q 1991 1309 1228 531 
z
" transform="scale(0.015625)"/>
      </defs>
      <use xlink:href="#DejaVuSans-Oblique-3b2" transform="translate(0 0.390625)"/>
      <use xlink:href="#DejaVuSans-32" transform="translate(63.818359 -16.015625) scale(0.7)"/>
     </g>
    </g>
   </g>
   <g id="matplotlib.axis_2">
    <g id="ytick_1">
     <g id="line2d_11">
      <defs>
       <path id="m06ebb689f9" d="M 0 0 
L -3.5 0 
" style="stroke: #000000; stroke-width: 0.8"/>
      </defs>
      <g>
       <use xlink:href="#m06ebb689f9" x="56.50625" y="264.070678" style="stroke: #000000; stroke-width: 0.8"/>
      </g>
     </g>
     <g id="text_12">
      <!-- 0.950 -->
      <g transform="translate(20.878125 267.869896) scale(0.1 -0.1)">
       <use xlink:href="#DejaVuSans-30"/>
       <use xlink:href="#DejaVuSans-2e" transform="translate(63.623047 0)"/>
       <use xlink:href="#DejaVuSans-39" transform="translate(95.410156 0)"/>
       <use xlink:href="#DejaVuSans-35" transform="translate(159.033203 0)"/>
       <use xlink:href="#DejaVuSans-30" transform="translate(222.65625 0)"/>
      </g>
     </g>
    </g>
    <g id="ytick_2">
     <g id="line2d_12">
      <g>
       <use xlink:href="#m06ebb689f9" x="56.50625" y="236.169173" style="stroke: #000000; stroke-width: 0.8"/>
      </g>
     </g>
     <g id="text_13">
      <!-- 0.975 -->
      <g transform="translate(20.878125 239.968392) scale(0.1 -0.1)">
       <use xlink:href="#DejaVuSans-30"/>
       <use xlink:href="#DejaVuSans-2e" transform="translate(63.623047 0)"/>
       <use xlink:href="#DejaVuSans-39" transform="translate(95.410156 0)"/>
       <use xlink:href="#DejaVuSans-37" transform="translate(159.033203 0)"/>
       <use xlink:href="#DejaVuSans-35" transform="translate(222.65625 0)"/>
      </g>
     </g>
    </g>
    <g id="ytick_3">
     <g id="line2d_13">
      <g>
       <use xlink:href="#m06ebb689f9" x="56.50625" y="208.267669" style="stroke: #000000; stroke-width: 0.8"/>
      </g>
     </g>
     <g id="text_14">
      <!-- 1.000 -->
      <g transform="translate(20.878125 212.066888) scale(0.1 -0.1)">
       <use xlink:href="#DejaVuSans-31"/>
       <use xlink:href="#DejaVuSans-2e" transform="translate(63.623047 0)"/>
       <use xlink:href="#DejaVuSans-30" transform="translate(95.410156 0)"/>
       <use xlink:href="#DejaVuSans-30" transform="translate(159.033203 0)"/>
       <use xlink:href="#DejaVuSans-30" transform="translate(222.65625 0)"/>
      </g>
     </g>
    </g>
    <g id="ytick_4">
     <g id="line2d_14">
      <g>
       <use xlink:href="#m06ebb689f9" x="56.50625" y="180.366165" style="stroke: #000000; stroke-width: 0.8"/>
      </g>
     </g>
     <g id="text_15">
      <!-- 1.025 -->
      <g transform="translate(20.878125 184.165384) scale(0.1 -0.1)">
       <use xlink:href="#DejaVuSans-31"/>
       <use xlink:href="#DejaVuSans-2e" transform="translate(63.623047 0)"/>
       <use xlink:href="#DejaVuSans-30" transform="translate(95.410156 0)"/>
       <use xlink:href="#DejaVuSans-32" transform="translate(159.033203 0)"/>
       <use xlink:href="#DejaVuSans-35" transform="translate(222.65625 0)"/>
      </g>
     </g>
    </g>
    <g id="ytick_5">
     <g id="line2d_15">
      <g>
       <use xlink:href="#m06ebb689f9" x="56.50625" y="152.464661" style="stroke: #000000; stroke-width: 0.8"/>
      </g>
     </g>
     <g id="text_16">
      <!-- 1.050 -->
      <g transform="translate(20.878125 156.26388) scale(0.1 -0.1)">
       <use xlink:href="#DejaVuSans-31"/>
       <use xlink:href="#DejaVuSans-2e" transform="translate(63.623047 0)"/>
       <use xlink:href="#DejaVuSans-30" transform="translate(95.410156 0)"/>
       <use xlink:href="#DejaVuSans-35" transform="translate(159.033203 0)"/>
       <use xlink:href="#DejaVuSans-30" transform="translate(222.65625 0)"/>
      </g>
     </g>
    </g>
    <g id="ytick_6">
     <g id="line2d_16">
      <g>
       <use xlink:href="#m06ebb689f9" x="56.50625" y="124.563157" style="stroke: #000000; stroke-width: 0.8"/>
      </g>
     </g>
     <g id="text_17">
      <!-- 1.075 -->
      <g transform="translate(20.878125 128.362376) scale(0.1 -0.1)">
       <use xlink:href="#DejaVuSans-31"/>
       <use xlink:href="#DejaVuSans-2e" transform="translate(63.623047 0)"/>
       <use xlink:href="#DejaVuSans-30" transform="translate(95.410156 0)"/>
       <use xlink:href="#DejaVuSans-37" transform="translate(159.033203 0)"/>
       <use xlink:href="#DejaVuSans-35" transform="translate(222.65625 0)"/>
      </g>
     </g>
    </g>
    <g id="ytick_7">
     <g id="line2d_17">
      <g>
       <use xlink:href="#m06ebb689f9" x="56.50625" y="96.661653" style="stroke: #000000; stroke-width: 0.8"/>
      </g>
     </g>
     <g id="text_18">
      <!-- 1.100 -->
      <g transform="translate(20.878125 100.460872) scale(0.1 -0.1)">
       <use xlink:href="#DejaVuSans-31"/>
       <use xlink:href="#DejaVuSans-2e" transform="translate(63.623047 0)"/>
       <use xlink:href="#DejaVuSans-31" transform="translate(95.410156 0)"/>
       <use xlink:href="#DejaVuSans-30" transform="translate(159.033203 0)"/>
       <use xlink:href="#DejaVuSans-30" transform="translate(222.65625 0)"/>
      </g>
     </g>
    </g>
    <g id="ytick_8">
     <g id="line2d_18">
      <g>
       <use xlink:href="#m06ebb689f9" x="56.50625" y="68.760149" style="stroke: #000000; stroke-width: 0.8"/>
      </g>
     </g>
     <g id="text_19">
      <!-- 1.125 -->
      <g transform="translate(20.878125 72.559368) scale(0.1 -0.1)">
       <use xlink:href="#DejaVuSans-31"/>
       <use xlink:href="#DejaVuSans-2e" transform="translate(63.623047 0)"/>
       <use xlink:href="#DejaVuSans-31" transform="translate(95.410156 0)"/>
       <use xlink:href="#DejaVuSans-32" transform="translate(159.033203 0)"/>
       <use xlink:href="#DejaVuSans-35" transform="translate(222.65625 0)"/>
      </g>
     </g>
    </g>
    <g id="ytick_9">
     <g id="line2d_19">
      <g>
       <use xlink:href="#m06ebb689f9" x="56.50625" y="40.858645" style="stroke: #000000; stroke-width: 0.8"/>
      </g>
     </g>
     <g id="text_20">
      <!-- 1.150 -->
      <g transform="translate(20.878125 44.657864) scale(0.1 -0.1)">
       <use xlink:href="#DejaVuSans-31"/>
       <use xlink:href="#DejaVuSans-2e" transform="translate(63.623047 0)"/>
       <use xlink:href="#DejaVuSans-31" transform="translate(95.410156 0)"/>
       <use xlink:href="#DejaVuSans-35" transform="translate(159.033203 0)"/>
       <use xlink:href="#DejaVuSans-30" transform="translate(222.65625 0)"/>
      </g>
     </g>
    </g>
    <g id="text_21">
     <!-- loss -->
     <g transform="translate(14.798438 156.234632) rotate(-90) scale(0.1 -0.1)">
      <defs>
       <path id="DejaVuSans-6c" d="M 603 4863 
L 1178 4863 
L 1178 0 
L 603 0 
L 603 4863 
z
" transform="scale(0.015625)"/>
       <path id="DejaVuSans-6f" d="M 1959 3097 
Q 1497 3097 1228 2736 
Q 959 2375 959 1747 
Q 959 1119 1226 758 
Q 1494 397 1959 397 
Q 2419 397 2687 759 
Q 2956 1122 2956 1747 
Q 2956 2369 2687 2733 
Q 2419 3097 1959 3097 
z
M 1959 3584 
Q 2709 3584 3137 3096 
Q 3566 2609 3566 1747 
Q 3566 888 3137 398 
Q 2709 -91 1959 -91 
Q 1206 -91 779 398 
Q 353 888 353 1747 
Q 353 2609 779 3096 
Q 1206 3584 1959 3584 
z
" transform="scale(0.015625)"/>
       <path id="DejaVuSans-73" d="M 2834 3397 
L 2834 2853 
Q 2591 2978 2328 3040 
Q 2066 3103 1784 3103 
Q 1356 3103 1142 2972 
Q 928 2841 928 2578 
Q 928 2378 1081 2264 
Q 1234 2150 1697 2047 
L 1894 2003 
Q 2506 1872 2764 1633 
Q 3022 1394 3022 966 
Q 3022 478 2636 193 
Q 2250 -91 1575 -91 
Q 1294 -91 989 -36 
Q 684 19 347 128 
L 347 722 
Q 666 556 975 473 
Q 1284 391 1588 391 
Q 1994 391 2212 530 
Q 2431 669 2431 922 
Q 2431 1156 2273 1281 
Q 2116 1406 1581 1522 
L 1381 1569 
Q 847 1681 609 1914 
Q 372 2147 372 2553 
Q 372 3047 722 3315 
Q 1072 3584 1716 3584 
Q 2034 3584 2315 3537 
Q 2597 3491 2834 3397 
z
" transform="scale(0.015625)"/>
      </defs>
      <use xlink:href="#DejaVuSans-6c"/>
      <use xlink:href="#DejaVuSans-6f" transform="translate(27.783203 0)"/>
      <use xlink:href="#DejaVuSans-73" transform="translate(88.964844 0)"/>
      <use xlink:href="#DejaVuSans-73" transform="translate(141.064453 0)"/>
     </g>
    </g>
   </g>
   <g id="line2d_20">
    <path d="M 73.143068 108.560483 
L 110.113775 114.005073 
L 147.084482 112.508186 
L 184.055189 115.596022 
L 221.025896 116.088287 
L 257.996604 108.147113 
L 294.967311 108.824444 
L 331.938018 109.459067 
L 368.908725 105.767741 
L 405.879432 37.87062 
" clip-path="url(#p2d7cdac3f4)" style="fill: none; stroke: #463480; stroke-opacity: 0.6; stroke-linecap: square"/>
   </g>
   <g id="line2d_21">
    <path d="M 73.143068 177.238842 
L 110.113775 174.326493 
L 147.084482 170.586871 
L 184.055189 173.468354 
L 221.025896 177.211967 
L 257.996604 166.401417 
L 294.967311 174.077566 
L 331.938018 172.861537 
L 368.908725 160.953634 
L 405.879432 67.560219 
" clip-path="url(#p2d7cdac3f4)" style="fill: none; stroke: #21918c; stroke-opacity: 0.6; stroke-linecap: square"/>
   </g>
   <g id="line2d_22">
    <path d="M 73.143068 246.633382 
L 110.113775 255.283019 
L 147.084482 244.600392 
L 184.055189 244.10154 
L 221.025896 231.455505 
L 257.996604 225.150249 
L 294.967311 231.312216 
L 331.938018 205.098278 
L 368.908725 206.472497 
L 405.879432 83.121531 
" clip-path="url(#p2d7cdac3f4)" style="fill: none; stroke: #9bd93c; stroke-opacity: 0.6; stroke-linecap: square"/>
   </g>
   <g id="patch_3">
    <path d="M 56.50625 266.153639 
L 56.50625 27 
" style="fill: none; stroke: #000000; stroke-width: 0.8; stroke-linejoin: miter; stroke-linecap: square"/>
   </g>
   <g id="patch_4">
    <path d="M 422.51625 266.153639 
L 422.51625 27 
" style="fill: none; stroke: #000000; stroke-width: 0.8; stroke-linejoin: miter; stroke-linecap: square"/>
   </g>
   <g id="patch_5">
    <path d="M 56.50625 266.153639 
L 422.51625 266.153639 
" style="fill: none; stroke: #000000; stroke-width: 0.8; stroke-linejoin: miter; stroke-linecap: square"/>
   </g>
   <g id="patch_6">
    <path d="M 56.50625 27 
L 422.51625 27 
" style="fill: none; stroke: #000000; stroke-width: 0.8; stroke-linejoin: miter; stroke-linecap: square"/>
   </g>
   <g id="PathCollection_1">
    <defs>
     <path id="m36e05db130" d="M 0 3.872983 
C 1.027127 3.872983 2.012324 3.464901 2.738613 2.738613 
C 3.464901 2.012324 3.872983 1.027127 3.872983 0 
C 3.872983 -1.027127 3.464901 -2.012324 2.738613 -2.738613 
C 2.012324 -3.464901 1.027127 -3.872983 0 -3.872983 
C -1.027127 -3.872983 -2.012324 -3.464901 -2.738613 -2.738613 
C -3.464901 -2.012324 -3.872983 -1.027127 -3.872983 0 
C -3.872983 1.027127 -3.464901 2.012324 -2.738613 2.738613 
C -2.012324 3.464901 -1.027127 3.872983 0 3.872983 
z
" style="stroke: #000000; stroke-width: 0.4"/>
    </defs>
    <g clip-path="url(#p2d7cdac3f4)">
     <use xlink:href="#m36e05db130" x="184.055189" y="115.596022" style="fill: #463480; stroke: #000000; stroke-width: 0.4"/>
     <use xlink:href="#m36e05db130" x="221.025896" y="116.088287" style="fill: #463480; stroke: #000000; stroke-width: 0.4"/>
     <use xlink:href="#m36e05db130" x="257.996604" y="108.147113" style="fill: #463480; stroke: #000000; stroke-width: 0.4"/>
     <use xlink:href="#m36e05db130" x="331.938018" y="109.459067" style="fill: #463480; stroke: #000000; stroke-width: 0.4"/>
     <use xlink:href="#m36e05db130" x="368.908725" y="105.767741" style="fill: #463480; stroke: #000000; stroke-width: 0.4"/>
     <use xlink:href="#m36e05db130" x="405.879432" y="37.87062" style="fill: #463480; stroke: #000000; stroke-width: 0.4"/>
     <use xlink:href="#m36e05db130" x="73.143068" y="108.560483" style="fill: #463480; stroke: #000000; stroke-width: 0.4"/>
     <use xlink:href="#m36e05db130" x="110.113775" y="114.005073" style="fill: #463480; stroke: #000000; stroke-width: 0.4"/>
     <use xlink:href="#m36e05db130" x="147.084482" y="112.508186" style="fill: #463480; stroke: #000000; stroke-width: 0.4"/>
    </g>
   </g>
   <g id="PathCollection_2">
    <defs>
     <path id="mb218ef5fde" d="M 0 3.872983 
C 1.027127 3.872983 2.012324 3.464901 2.738613 2.738613 
C 3.464901 2.012324 3.872983 1.027127 3.872983 0 
C 3.872983 -1.027127 3.464901 -2.012324 2.738613 -2.738613 
C 2.012324 -3.464901 1.027127 -3.872983 0 -3.872983 
C -1.027127 -3.872983 -2.012324 -3.464901 -2.738613 -2.738613 
C -3.464901 -2.012324 -3.872983 -1.027127 -3.872983 0 
C -3.872983 1.027127 -3.464901 2.012324 -2.738613 2.738613 
C -2.012324 3.464901 -1.027127 3.872983 0 3.872983 
z
" style="stroke: #000000; stroke-width: 0.4"/>
    </defs>
    <g clip-path="url(#p2d7cdac3f4)">
     <use xlink:href="#mb218ef5fde" x="184.055189" y="173.468354" style="fill: #21918c; stroke: #000000; stroke-width: 0.4"/>
     <use xlink:href="#mb218ef5fde" x="221.025896" y="177.211967" style="fill: #21918c; stroke: #000000; stroke-width: 0.4"/>
     <use xlink:href="#mb218ef5fde" x="257.996604" y="166.401417" style="fill: #21918c; stroke: #000000; stroke-width: 0.4"/>
     <use xlink:href="#mb218ef5fde" x="331.938018" y="172.861537" style="fill: #21918c; stroke: #000000; stroke-width: 0.4"/>
     <use xlink:href="#mb218ef5fde" x="368.908725" y="160.953634" style="fill: #21918c; stroke: #000000; stroke-width: 0.4"/>
     <use xlink:href="#mb218ef5fde" x="405.879432" y="67.560219" style="fill: #21918c; stroke: #000000; stroke-width: 0.4"/>
     <use xlink:href="#mb218ef5fde" x="73.143068" y="177.238842" style="fill: #21918c; stroke: #000000; stroke-width: 0.4"/>
     <use xlink:href="#mb218ef5fde" x="110.113775" y="174.326493" style="fill: #21918c; stroke: #000000; stroke-width: 0.4"/>
     <use xlink:href="#mb218ef5fde" x="147.084482" y="170.586871" style="fill: #21918c; stroke: #000000; stroke-width: 0.4"/>
    </g>
   </g>
   <g id="PathCollection_3">
    <defs>
     <path id="made5695bf3" d="M 0 3.872983 
C 1.027127 3.872983 2.012324 3.464901 2.738613 2.738613 
C 3.464901 2.012324 3.872983 1.027127 3.872983 0 
C 3.872983 -1.027127 3.464901 -2.012324 2.738613 -2.738613 
C 2.012324 -3.464901 1.027127 -3.872983 0 -3.872983 
C -1.027127 -3.872983 -2.012324 -3.464901 -2.738613 -2.738613 
C -3.464901 -2.012324 -3.872983 -1.027127 -3.872983 0 
C -3.872983 1.027127 -3.464901 2.012324 -2.738613 2.738613 
C -2.012324 3.464901 -1.027127 3.872983 0 3.872983 
z
" style="stroke: #000000; stroke-width: 0.4"/>
    </defs>
    <g clip-path="url(#p2d7cdac3f4)">
     <use xlink:href="#made5695bf3" x="184.055189" y="244.10154" style="fill: #9bd93c; stroke: #000000; stroke-width: 0.4"/>
     <use xlink:href="#made5695bf3" x="221.025896" y="231.455505" style="fill: #9bd93c; stroke: #000000; stroke-width: 0.4"/>
     <use xlink:href="#made5695bf3" x="257.996604" y="225.150249" style="fill: #9bd93c; stroke: #000000; stroke-width: 0.4"/>
     <use xlink:href="#made5695bf3" x="331.938018" y="205.098278" style="fill: #9bd93c; stroke: #000000; stroke-width: 0.4"/>
     <use xlink:href="#made5695bf3" x="368.908725" y="206.472497" style="fill: #9bd93c; stroke: #000000; stroke-width: 0.4"/>
     <use xlink:href="#made5695bf3" x="405.879432" y="83.121531" style="fill: #9bd93c; stroke: #000000; stroke-width: 0.4"/>
     <use xlink:href="#made5695bf3" x="73.143068" y="246.633382" style="fill: #9bd93c; stroke: #000000; stroke-width: 0.4"/>
     <use xlink:href="#made5695bf3" x="110.113775" y="255.283019" style="fill: #9bd93c; stroke: #000000; stroke-width: 0.4"/>
     <use xlink:href="#made5695bf3" x="147.084482" y="244.600392" style="fill: #9bd93c; stroke: #000000; stroke-width: 0.4"/>
    </g>
   </g>
   <g id="PathCollection_4">
    <defs>
     <path id="m4ed4f4ef1e" d="M -3.872983 3.872983 
L 3.872983 3.872983 
L 3.872983 -3.872983 
L -3.872983 -3.872983 
z
" style="stroke: #000000; stroke-width: 0.6"/>
    </defs>
    <g clip-path="url(#p2d7cdac3f4)">
     <use xlink:href="#m4ed4f4ef1e" x="294.967311" y="108.824444" style="fill: #463480; stroke: #000000; stroke-width: 0.6"/>
    </g>
   </g>
   <g id="PathCollection_5">
    <defs>
     <path id="m80076efb61" d="M -3.872983 3.872983 
L 3.872983 3.872983 
L 3.872983 -3.872983 
L -3.872983 -3.872983 
z
" style="stroke: #000000; stroke-width: 0.6"/>
    </defs>
    <g clip-path="url(#p2d7cdac3f4)">
     <use xlink:href="#m80076efb61" x="294.967311" y="174.077566" style="fill: #21918c; stroke: #000000; stroke-width: 0.6"/>
    </g>
   </g>
   <g id="PathCollection_6">
    <defs>
     <path id="mf2b738cdc5" d="M -3.872983 3.872983 
L 3.872983 3.872983 
L 3.872983 -3.872983 
L -3.872983 -3.872983 
z
" style="stroke: #000000; stroke-width: 0.6"/>
    </defs>
    <g clip-path="url(#p2d7cdac3f4)">
     <use xlink:href="#mf2b738cdc5" x="294.967311" y="231.312216" style="fill: #9bd93c; stroke: #000000; stroke-width: 0.6"/>
    </g>
   </g>
  </g>
  <g id="axes_2">
   <g id="patch_7">
    <path d="M 483.10625 266.153639 
L 849.11625 266.153639 
L 849.11625 27 
L 483.10625 27 
L 483.10625 266.153639 
z
" style="fill: none"/>
   </g>
   <g id="matplotlib.axis_3">
    <g id="xtick_11">
     <g id="line2d_23">
      <g>
       <use xlink:href="#m66bea28206" x="499.743068" y="266.153639" style="stroke: #000000; stroke-width: 0.8"/>
      </g>
     </g>
     <g id="text_22">
      <!-- $8.0\times 10^{-21}$ -->
      <g transform="translate(460.043973 300.857991) rotate(-30) scale(0.08 -0.08)">
       <defs>
        <path id="DejaVuSans-d7" d="M 4488 3438 
L 3059 2003 
L 4488 575 
L 4116 197 
L 2681 1631 
L 1247 197 
L 878 575 
L 2303 2003 
L 878 3438 
L 1247 3816 
L 2681 2381 
L 4116 3816 
L 4488 3438 
z
" transform="scale(0.015625)"/>
        <path id="DejaVuSans-2212" d="M 678 2272 
L 4684 2272 
L 4684 1741 
L 678 1741 
L 678 2272 
z
" transform="scale(0.015625)"/>
       </defs>
       <use xlink:href="#DejaVuSans-38" transform="translate(0 0.765625)"/>
       <use xlink:href="#DejaVuSans-2e" transform="translate(63.623047 0.765625)"/>
       <use xlink:href="#DejaVuSans-30" transform="translate(95.410156 0.765625)"/>
       <use xlink:href="#DejaVuSans-d7" transform="translate(178.515625 0.765625)"/>
       <use xlink:href="#DejaVuSans-31" transform="translate(281.787109 0.765625)"/>
       <use xlink:href="#DejaVuSans-30" transform="translate(345.410156 0.765625)"/>
       <use xlink:href="#DejaVuSans-2212" transform="translate(409.990234 39.046875) scale(0.7)"/>
       <use xlink:href="#DejaVuSans-32" transform="translate(468.642578 39.046875) scale(0.7)"/>
       <use xlink:href="#DejaVuSans-31" transform="translate(513.178711 39.046875) scale(0.7)"/>
      </g>
     </g>
    </g>
    <g id="xtick_12">
     <g id="line2d_24">
      <g>
       <use xlink:href="#m66bea28206" x="536.713775" y="266.153639" style="stroke: #000000; stroke-width: 0.8"/>
      </g>
     </g>
     <g id="text_23">
      <!-- $6.3\times 10^{-19}$ -->
      <g transform="translate(497.01468 300.857991) rotate(-30) scale(0.08 -0.08)">
       <use xlink:href="#DejaVuSans-36" transform="translate(0 0.765625)"/>
       <use xlink:href="#DejaVuSans-2e" transform="translate(63.623047 0.765625)"/>
       <use xlink:href="#DejaVuSans-33" transform="translate(95.410156 0.765625)"/>
       <use xlink:href="#DejaVuSans-d7" transform="translate(178.515625 0.765625)"/>
       <use xlink:href="#DejaVuSans-31" transform="translate(281.787109 0.765625)"/>
       <use xlink:href="#DejaVuSans-30" transform="translate(345.410156 0.765625)"/>
       <use xlink:href="#DejaVuSans-2212" transform="translate(409.990234 39.046875) scale(0.7)"/>
       <use xlink:href="#DejaVuSans-31" transform="translate(468.642578 39.046875) scale(0.7)"/>
       <use xlink:href="#DejaVuSans-39" transform="translate(513.178711 39.046875) scale(0.7)"/>
      </g>
     </g>
    </g>
    <g id="xtick_13">
     <g id="line2d_25">
      <g>
       <use xlink:href="#m66bea28206" x="573.684482" y="266.153639" style="stroke: #000000; stroke-width: 0.8"/>
      </g>
     </g>
     <g id="text_24">
      <!-- $5.0\times 10^{-17}$ -->
      <g transform="translate(533.985387 300.857991) rotate(-30) scale(0.08 -0.08)">
       <use xlink:href="#DejaVuSans-35" transform="translate(0 0.684375)"/>
       <use xlink:href="#DejaVuSans-2e" transform="translate(63.623047 0.684375)"/>
       <use xlink:href="#DejaVuSans-30" transform="translate(95.410156 0.684375)"/>
       <use xlink:href="#DejaVuSans-d7" transform="translate(178.515625 0.684375)"/>
       <use xlink:href="#DejaVuSans-31" transform="translate(281.787109 0.684375)"/>
       <use xlink:href="#DejaVuSans-30" transform="translate(345.410156 0.684375)"/>
       <use xlink:href="#DejaVuSans-2212" transform="translate(409.990234 38.965625) scale(0.7)"/>
       <use xlink:href="#DejaVuSans-31" transform="translate(468.642578 38.965625) scale(0.7)"/>
       <use xlink:href="#DejaVuSans-37" transform="translate(513.178711 38.965625) scale(0.7)"/>
      </g>
     </g>
    </g>
    <g id="xtick_14">
     <g id="line2d_26">
      <g>
       <use xlink:href="#m66bea28206" x="610.655189" y="266.153639" style="stroke: #000000; stroke-width: 0.8"/>
      </g>
     </g>
     <g id="text_25">
      <!-- $4.0\times 10^{-15}$ -->
      <g transform="translate(570.956094 300.857991) rotate(-30) scale(0.08 -0.08)">
       <defs>
        <path id="DejaVuSans-34" d="M 2419 4116 
L 825 1625 
L 2419 1625 
L 2419 4116 
z
M 2253 4666 
L 3047 4666 
L 3047 1625 
L 3713 1625 
L 3713 1100 
L 3047 1100 
L 3047 0 
L 2419 0 
L 2419 1100 
L 313 1100 
L 313 1709 
L 2253 4666 
z
" transform="scale(0.015625)"/>
       </defs>
       <use xlink:href="#DejaVuSans-34" transform="translate(0 0.684375)"/>
       <use xlink:href="#DejaVuSans-2e" transform="translate(63.623047 0.684375)"/>
       <use xlink:href="#DejaVuSans-30" transform="translate(95.410156 0.684375)"/>
       <use xlink:href="#DejaVuSans-d7" transform="translate(178.515625 0.684375)"/>
       <use xlink:href="#DejaVuSans-31" transform="translate(281.787109 0.684375)"/>
       <use xlink:href="#DejaVuSans-30" transform="translate(345.410156 0.684375)"/>
       <use xlink:href="#DejaVuSans-2212" transform="translate(409.990234 38.965625) scale(0.7)"/>
       <use xlink:href="#DejaVuSans-31" transform="translate(468.642578 38.965625) scale(0.7)"/>
       <use xlink:href="#DejaVuSans-35" transform="translate(513.178711 38.965625) scale(0.7)"/>
      </g>
     </g>
    </g>
    <g id="xtick_15">
     <g id="line2d_27">
      <g>
       <use xlink:href="#m66bea28206" x="647.625896" y="266.153639" style="stroke: #000000; stroke-width: 0.8"/>
      </g>
     </g>
     <g id="text_26">
      <!-- $3.2\times 10^{-13}$ -->
      <g transform="translate(608.342494 300.617991) rotate(-30) scale(0.08 -0.08)">
       <use xlink:href="#DejaVuSans-33" transform="translate(0 0.765625)"/>
       <use xlink:href="#DejaVuSans-2e" transform="translate(63.623047 0.765625)"/>
       <use xlink:href="#DejaVuSans-32" transform="translate(89.910156 0.765625)"/>
       <use xlink:href="#DejaVuSans-d7" transform="translate(173.015625 0.765625)"/>
       <use xlink:href="#DejaVuSans-31" transform="translate(276.287109 0.765625)"/>
       <use xlink:href="#DejaVuSans-30" transform="translate(339.910156 0.765625)"/>
       <use xlink:href="#DejaVuSans-2212" transform="translate(404.490234 39.046875) scale(0.7)"/>
       <use xlink:href="#DejaVuSans-31" transform="translate(463.142578 39.046875) scale(0.7)"/>
       <use xlink:href="#DejaVuSans-33" transform="translate(507.678711 39.046875) scale(0.7)"/>
      </g>
     </g>
    </g>
    <g id="xtick_16">
     <g id="line2d_28">
      <g>
       <use xlink:href="#m66bea28206" x="684.596604" y="266.153639" style="stroke: #000000; stroke-width: 0.8"/>
      </g>
     </g>
     <g id="text_27">
      <!-- $2.5\times 10^{-11}$ -->
      <g transform="translate(644.897508 300.857991) rotate(-30) scale(0.08 -0.08)">
       <use xlink:href="#DejaVuSans-32" transform="translate(0 0.684375)"/>
       <use xlink:href="#DejaVuSans-2e" transform="translate(63.623047 0.684375)"/>
       <use xlink:href="#DejaVuSans-35" transform="translate(95.410156 0.684375)"/>
       <use xlink:href="#DejaVuSans-d7" transform="translate(178.515625 0.684375)"/>
       <use xlink:href="#DejaVuSans-31" transform="translate(281.787109 0.684375)"/>
       <use xlink:href="#DejaVuSans-30" transform="translate(345.410156 0.684375)"/>
       <use xlink:href="#DejaVuSans-2212" transform="translate(409.990234 38.965625) scale(0.7)"/>
       <use xlink:href="#DejaVuSans-31" transform="translate(468.642578 38.965625) scale(0.7)"/>
       <use xlink:href="#DejaVuSans-31" transform="translate(513.178711 38.965625) scale(0.7)"/>
      </g>
     </g>
    </g>
    <g id="xtick_17">
     <g id="line2d_29">
      <g>
       <use xlink:href="#m66bea28206" x="721.567311" y="266.153639" style="stroke: #000000; stroke-width: 0.8"/>
      </g>
     </g>
     <g id="text_28">
      <!-- $2.0\times 10^{-9}$ -->
      <g transform="translate(684.985907 299.057991) rotate(-30) scale(0.08 -0.08)">
       <use xlink:href="#DejaVuSans-32" transform="translate(0 0.765625)"/>
       <use xlink:href="#DejaVuSans-2e" transform="translate(63.623047 0.765625)"/>
       <use xlink:href="#DejaVuSans-30" transform="translate(95.410156 0.765625)"/>
       <use xlink:href="#DejaVuSans-d7" transform="translate(178.515625 0.765625)"/>
       <use xlink:href="#DejaVuSans-31" transform="translate(281.787109 0.765625)"/>
       <use xlink:href="#DejaVuSans-30" transform="translate(345.410156 0.765625)"/>
       <use xlink:href="#DejaVuSans-2212" transform="translate(409.990234 39.046875) scale(0.7)"/>
       <use xlink:href="#DejaVuSans-39" transform="translate(468.642578 39.046875) scale(0.7)"/>
      </g>
     </g>
    </g>
    <g id="xtick_18">
     <g id="line2d_30">
      <g>
       <use xlink:href="#m66bea28206" x="758.538018" y="266.153639" style="stroke: #000000; stroke-width: 0.8"/>
      </g>
     </g>
     <g id="text_29">
      <!-- $1.6\times 10^{-7}$ -->
      <g transform="translate(721.956614 299.057991) rotate(-30) scale(0.08 -0.08)">
       <use xlink:href="#DejaVuSans-31" transform="translate(0 0.684375)"/>
       <use xlink:href="#DejaVuSans-2e" transform="translate(63.623047 0.684375)"/>
       <use xlink:href="#DejaVuSans-36" transform="translate(95.410156 0.684375)"/>
       <use xlink:href="#DejaVuSans-d7" transform="translate(178.515625 0.684375)"/>
       <use xlink:href="#DejaVuSans-31" transform="translate(281.787109 0.684375)"/>
       <use xlink:href="#DejaVuSans-30" transform="translate(345.410156 0.684375)"/>
       <use xlink:href="#DejaVuSans-2212" transform="translate(409.990234 38.965625) scale(0.7)"/>
       <use xlink:href="#DejaVuSans-37" transform="translate(468.642578 38.965625) scale(0.7)"/>
      </g>
     </g>
    </g>
    <g id="xtick_19">
     <g id="line2d_31">
      <g>
       <use xlink:href="#m66bea28206" x="795.508725" y="266.153639" style="stroke: #000000; stroke-width: 0.8"/>
      </g>
     </g>
     <g id="text_30">
      <!-- $1.3\times 10^{-5}$ -->
      <g transform="translate(758.927321 299.057991) rotate(-30) scale(0.08 -0.08)">
       <use xlink:href="#DejaVuSans-31" transform="translate(0 0.684375)"/>
       <use xlink:href="#DejaVuSans-2e" transform="translate(63.623047 0.684375)"/>
       <use xlink:href="#DejaVuSans-33" transform="translate(95.410156 0.684375)"/>
       <use xlink:href="#DejaVuSans-d7" transform="translate(178.515625 0.684375)"/>
       <use xlink:href="#DejaVuSans-31" transform="translate(281.787109 0.684375)"/>
       <use xlink:href="#DejaVuSans-30" transform="translate(345.410156 0.684375)"/>
       <use xlink:href="#DejaVuSans-2212" transform="translate(409.990234 38.965625) scale(0.7)"/>
       <use xlink:href="#DejaVuSans-35" transform="translate(468.642578 38.965625) scale(0.7)"/>
      </g>
     </g>
    </g>
    <g id="xtick_20">
     <g id="line2d_32">
      <g>
       <use xlink:href="#m66bea28206" x="832.479432" y="266.153639" style="stroke: #000000; stroke-width: 0.8"/>
      </g>
     </g>
     <g id="text_31">
      <!-- $1.0\times 10^{-3}$ -->
      <g transform="translate(795.898028 299.057991) rotate(-30) scale(0.08 -0.08)">
       <use xlink:href="#DejaVuSans-31" transform="translate(0 0.765625)"/>
       <use xlink:href="#DejaVuSans-2e" transform="translate(63.623047 0.765625)"/>
       <use xlink:href="#DejaVuSans-30" transform="translate(95.410156 0.765625)"/>
       <use xlink:href="#DejaVuSans-d7" transform="translate(178.515625 0.765625)"/>
       <use xlink:href="#DejaVuSans-31" transform="translate(281.787109 0.765625)"/>
       <use xlink:href="#DejaVuSans-30" transform="translate(345.410156 0.765625)"/>
       <use xlink:href="#DejaVuSans-2212" transform="translate(409.990234 39.046875) scale(0.7)"/>
       <use xlink:href="#DejaVuSans-33" transform="translate(468.642578 39.046875) scale(0.7)"/>
      </g>
     </g>
    </g>
    <g id="text_32">
     <!-- $\epsilon$ -->
     <g transform="translate(663.36125 305.897278) scale(0.1 -0.1)">
      <defs>
       <path id="DejaVuSans-Oblique-3b5" d="M 1263 1888 
Q 925 1963 778 2166 
Q 669 2309 669 2503 
Q 669 3034 1175 3344 
Q 1575 3588 2188 3588 
Q 2425 3588 2684 3550 
Q 2944 3513 3234 3438 
L 3134 2916 
Q 2847 3006 2606 3047 
Q 2359 3088 2138 3088 
Q 1766 3088 1522 2944 
Q 1228 2772 1228 2522 
Q 1228 2356 1381 2241 
Q 1563 2103 1925 2103 
L 2409 2103 
L 2319 1628 
L 1856 1628 
Q 1425 1628 1172 1469 
Q 828 1253 828 916 
Q 828 703 1013 563 
Q 1244 388 1716 388 
Q 2006 388 2284 444 
Q 2563 503 2806 619 
L 2700 84 
Q 2403 -3 2131 -47 
Q 1859 -91 1609 -91 
Q 866 -91 516 194 
Q 250 413 250 781 
Q 250 1278 600 1584 
Q 859 1813 1263 1888 
z
" transform="scale(0.015625)"/>
      </defs>
      <use xlink:href="#DejaVuSans-Oblique-3b5" transform="translate(0 0.9375)"/>
     </g>
    </g>
   </g>
   <g id="matplotlib.axis_4">
    <g id="ytick_10">
     <g id="line2d_33">
      <g>
       <use xlink:href="#m06ebb689f9" x="483.10625" y="260.005819" style="stroke: #000000; stroke-width: 0.8"/>
      </g>
     </g>
     <g id="text_33">
      <!-- 0.975 -->
      <g transform="translate(447.478125 263.805037) scale(0.1 -0.1)">
       <use xlink:href="#DejaVuSans-30"/>
       <use xlink:href="#DejaVuSans-2e" transform="translate(63.623047 0)"/>
       <use xlink:href="#DejaVuSans-39" transform="translate(95.410156 0)"/>
       <use xlink:href="#DejaVuSans-37" transform="translate(159.033203 0)"/>
       <use xlink:href="#DejaVuSans-35" transform="translate(222.65625 0)"/>
      </g>
     </g>
    </g>
    <g id="ytick_11">
     <g id="line2d_34">
      <g>
       <use xlink:href="#m06ebb689f9" x="483.10625" y="232.875007" style="stroke: #000000; stroke-width: 0.8"/>
      </g>
     </g>
     <g id="text_34">
      <!-- 1.000 -->
      <g transform="translate(447.478125 236.674226) scale(0.1 -0.1)">
       <use xlink:href="#DejaVuSans-31"/>
       <use xlink:href="#DejaVuSans-2e" transform="translate(63.623047 0)"/>
       <use xlink:href="#DejaVuSans-30" transform="translate(95.410156 0)"/>
       <use xlink:href="#DejaVuSans-30" transform="translate(159.033203 0)"/>
       <use xlink:href="#DejaVuSans-30" transform="translate(222.65625 0)"/>
      </g>
     </g>
    </g>
    <g id="ytick_12">
     <g id="line2d_35">
      <g>
       <use xlink:href="#m06ebb689f9" x="483.10625" y="205.744196" style="stroke: #000000; stroke-width: 0.8"/>
      </g>
     </g>
     <g id="text_35">
      <!-- 1.025 -->
      <g transform="translate(447.478125 209.543415) scale(0.1 -0.1)">
       <use xlink:href="#DejaVuSans-31"/>
       <use xlink:href="#DejaVuSans-2e" transform="translate(63.623047 0)"/>
       <use xlink:href="#DejaVuSans-30" transform="translate(95.410156 0)"/>
       <use xlink:href="#DejaVuSans-32" transform="translate(159.033203 0)"/>
       <use xlink:href="#DejaVuSans-35" transform="translate(222.65625 0)"/>
      </g>
     </g>
    </g>
    <g id="ytick_13">
     <g id="line2d_36">
      <g>
       <use xlink:href="#m06ebb689f9" x="483.10625" y="178.613385" style="stroke: #000000; stroke-width: 0.8"/>
      </g>
     </g>
     <g id="text_36">
      <!-- 1.050 -->
      <g transform="translate(447.478125 182.412604) scale(0.1 -0.1)">
       <use xlink:href="#DejaVuSans-31"/>
       <use xlink:href="#DejaVuSans-2e" transform="translate(63.623047 0)"/>
       <use xlink:href="#DejaVuSans-30" transform="translate(95.410156 0)"/>
       <use xlink:href="#DejaVuSans-35" transform="translate(159.033203 0)"/>
       <use xlink:href="#DejaVuSans-30" transform="translate(222.65625 0)"/>
      </g>
     </g>
    </g>
    <g id="ytick_14">
     <g id="line2d_37">
      <g>
       <use xlink:href="#m06ebb689f9" x="483.10625" y="151.482574" style="stroke: #000000; stroke-width: 0.8"/>
      </g>
     </g>
     <g id="text_37">
      <!-- 1.075 -->
      <g transform="translate(447.478125 155.281793) scale(0.1 -0.1)">
       <use xlink:href="#DejaVuSans-31"/>
       <use xlink:href="#DejaVuSans-2e" transform="translate(63.623047 0)"/>
       <use xlink:href="#DejaVuSans-30" transform="translate(95.410156 0)"/>
       <use xlink:href="#DejaVuSans-37" transform="translate(159.033203 0)"/>
       <use xlink:href="#DejaVuSans-35" transform="translate(222.65625 0)"/>
      </g>
     </g>
    </g>
    <g id="ytick_15">
     <g id="line2d_38">
      <g>
       <use xlink:href="#m06ebb689f9" x="483.10625" y="124.351763" style="stroke: #000000; stroke-width: 0.8"/>
      </g>
     </g>
     <g id="text_38">
      <!-- 1.100 -->
      <g transform="translate(447.478125 128.150981) scale(0.1 -0.1)">
       <use xlink:href="#DejaVuSans-31"/>
       <use xlink:href="#DejaVuSans-2e" transform="translate(63.623047 0)"/>
       <use xlink:href="#DejaVuSans-31" transform="translate(95.410156 0)"/>
       <use xlink:href="#DejaVuSans-30" transform="translate(159.033203 0)"/>
       <use xlink:href="#DejaVuSans-30" transform="translate(222.65625 0)"/>
      </g>
     </g>
    </g>
    <g id="ytick_16">
     <g id="line2d_39">
      <g>
       <use xlink:href="#m06ebb689f9" x="483.10625" y="97.220951" style="stroke: #000000; stroke-width: 0.8"/>
      </g>
     </g>
     <g id="text_39">
      <!-- 1.125 -->
      <g transform="translate(447.478125 101.02017) scale(0.1 -0.1)">
       <use xlink:href="#DejaVuSans-31"/>
       <use xlink:href="#DejaVuSans-2e" transform="translate(63.623047 0)"/>
       <use xlink:href="#DejaVuSans-31" transform="translate(95.410156 0)"/>
       <use xlink:href="#DejaVuSans-32" transform="translate(159.033203 0)"/>
       <use xlink:href="#DejaVuSans-35" transform="translate(222.65625 0)"/>
      </g>
     </g>
    </g>
    <g id="ytick_17">
     <g id="line2d_40">
      <g>
       <use xlink:href="#m06ebb689f9" x="483.10625" y="70.09014" style="stroke: #000000; stroke-width: 0.8"/>
      </g>
     </g>
     <g id="text_40">
      <!-- 1.150 -->
      <g transform="translate(447.478125 73.889359) scale(0.1 -0.1)">
       <use xlink:href="#DejaVuSans-31"/>
       <use xlink:href="#DejaVuSans-2e" transform="translate(63.623047 0)"/>
       <use xlink:href="#DejaVuSans-31" transform="translate(95.410156 0)"/>
       <use xlink:href="#DejaVuSans-35" transform="translate(159.033203 0)"/>
       <use xlink:href="#DejaVuSans-30" transform="translate(222.65625 0)"/>
      </g>
     </g>
    </g>
    <g id="ytick_18">
     <g id="line2d_41">
      <g>
       <use xlink:href="#m06ebb689f9" x="483.10625" y="42.959329" style="stroke: #000000; stroke-width: 0.8"/>
      </g>
     </g>
     <g id="text_41">
      <!-- 1.175 -->
      <g transform="translate(447.478125 46.758548) scale(0.1 -0.1)">
       <use xlink:href="#DejaVuSans-31"/>
       <use xlink:href="#DejaVuSans-2e" transform="translate(63.623047 0)"/>
       <use xlink:href="#DejaVuSans-31" transform="translate(95.410156 0)"/>
       <use xlink:href="#DejaVuSans-37" transform="translate(159.033203 0)"/>
       <use xlink:href="#DejaVuSans-35" transform="translate(222.65625 0)"/>
      </g>
     </g>
    </g>
    <g id="text_42">
     <!-- loss -->
     <g transform="translate(441.398437 156.234632) rotate(-90) scale(0.1 -0.1)">
      <use xlink:href="#DejaVuSans-6c"/>
      <use xlink:href="#DejaVuSans-6f" transform="translate(27.783203 0)"/>
      <use xlink:href="#DejaVuSans-73" transform="translate(88.964844 0)"/>
      <use xlink:href="#DejaVuSans-73" transform="translate(141.064453 0)"/>
     </g>
    </g>
   </g>
   <g id="line2d_42">
    <path d="M 499.743068 138.10077 
L 536.713775 138.619025 
L 573.684482 138.210475 
L 610.655189 136.178593 
L 647.625896 135.00107 
L 684.596604 136.290369 
L 721.567311 133.166477 
L 758.538018 126.332906 
L 795.508725 56.870773 
L 832.479432 41.184168 
" clip-path="url(#pfd981d34a9)" style="fill: none; stroke: #463480; stroke-opacity: 0.6; stroke-linecap: square"/>
   </g>
   <g id="line2d_43">
    <path d="M 499.743068 203.357996 
L 536.713775 204.091006 
L 573.684482 203.45373 
L 610.655189 199.6293 
L 647.625896 201.200496 
L 684.596604 186.629706 
L 721.567311 189.581149 
L 758.538018 165.200248 
L 795.508725 76.684662 
L 832.479432 37.87062 
" clip-path="url(#pfd981d34a9)" style="fill: none; stroke: #21918c; stroke-opacity: 0.6; stroke-linecap: square"/>
   </g>
   <g id="line2d_44">
    <path d="M 499.743068 238.479048 
L 536.713775 240.056324 
L 573.684482 239.530372 
L 610.655189 255.283019 
L 647.625896 246.172475 
L 684.596604 245.955069 
L 721.567311 235.564799 
L 758.538018 203.564988 
L 795.508725 75.498729 
L 832.479432 47.171143 
" clip-path="url(#pfd981d34a9)" style="fill: none; stroke: #9bd93c; stroke-opacity: 0.6; stroke-linecap: square"/>
   </g>
   <g id="patch_8">
    <path d="M 483.10625 266.153639 
L 483.10625 27 
" style="fill: none; stroke: #000000; stroke-width: 0.8; stroke-linejoin: miter; stroke-linecap: square"/>
   </g>
   <g id="patch_9">
    <path d="M 849.11625 266.153639 
L 849.11625 27 
" style="fill: none; stroke: #000000; stroke-width: 0.8; stroke-linejoin: miter; stroke-linecap: square"/>
   </g>
   <g id="patch_10">
    <path d="M 483.10625 266.153639 
L 849.11625 266.153639 
" style="fill: none; stroke: #000000; stroke-width: 0.8; stroke-linejoin: miter; stroke-linecap: square"/>
   </g>
   <g id="patch_11">
    <path d="M 483.10625 27 
L 849.11625 27 
" style="fill: none; stroke: #000000; stroke-width: 0.8; stroke-linejoin: miter; stroke-linecap: square"/>
   </g>
   <g id="PathCollection_7">
    <g clip-path="url(#pfd981d34a9)">
     <use xlink:href="#m36e05db130" x="647.625896" y="135.00107" style="fill: #463480; stroke: #000000; stroke-width: 0.4"/>
     <use xlink:href="#m36e05db130" x="684.596604" y="136.290369" style="fill: #463480; stroke: #000000; stroke-width: 0.4"/>
     <use xlink:href="#m36e05db130" x="721.567311" y="133.166477" style="fill: #463480; stroke: #000000; stroke-width: 0.4"/>
     <use xlink:href="#m36e05db130" x="758.538018" y="126.332906" style="fill: #463480; stroke: #000000; stroke-width: 0.4"/>
     <use xlink:href="#m36e05db130" x="795.508725" y="56.870773" style="fill: #463480; stroke: #000000; stroke-width: 0.4"/>
     <use xlink:href="#m36e05db130" x="832.479432" y="41.184168" style="fill: #463480; stroke: #000000; stroke-width: 0.4"/>
     <use xlink:href="#m36e05db130" x="573.684482" y="138.210475" style="fill: #463480; stroke: #000000; stroke-width: 0.4"/>
     <use xlink:href="#m36e05db130" x="536.713775" y="138.619025" style="fill: #463480; stroke: #000000; stroke-width: 0.4"/>
     <use xlink:href="#m36e05db130" x="499.743068" y="138.10077" style="fill: #463480; stroke: #000000; stroke-width: 0.4"/>
    </g>
   </g>
   <g id="PathCollection_8">
    <g clip-path="url(#pfd981d34a9)">
     <use xlink:href="#mb218ef5fde" x="647.625896" y="201.200496" style="fill: #21918c; stroke: #000000; stroke-width: 0.4"/>
     <use xlink:href="#mb218ef5fde" x="684.596604" y="186.629706" style="fill: #21918c; stroke: #000000; stroke-width: 0.4"/>
     <use xlink:href="#mb218ef5fde" x="721.567311" y="189.581149" style="fill: #21918c; stroke: #000000; stroke-width: 0.4"/>
     <use xlink:href="#mb218ef5fde" x="758.538018" y="165.200248" style="fill: #21918c; stroke: #000000; stroke-width: 0.4"/>
     <use xlink:href="#mb218ef5fde" x="795.508725" y="76.684662" style="fill: #21918c; stroke: #000000; stroke-width: 0.4"/>
     <use xlink:href="#mb218ef5fde" x="832.479432" y="37.87062" style="fill: #21918c; stroke: #000000; stroke-width: 0.4"/>
     <use xlink:href="#mb218ef5fde" x="573.684482" y="203.45373" style="fill: #21918c; stroke: #000000; stroke-width: 0.4"/>
     <use xlink:href="#mb218ef5fde" x="536.713775" y="204.091006" style="fill: #21918c; stroke: #000000; stroke-width: 0.4"/>
     <use xlink:href="#mb218ef5fde" x="499.743068" y="203.357996" style="fill: #21918c; stroke: #000000; stroke-width: 0.4"/>
    </g>
   </g>
   <g id="PathCollection_9">
    <g clip-path="url(#pfd981d34a9)">
     <use xlink:href="#made5695bf3" x="647.625896" y="246.172475" style="fill: #9bd93c; stroke: #000000; stroke-width: 0.4"/>
     <use xlink:href="#made5695bf3" x="684.596604" y="245.955069" style="fill: #9bd93c; stroke: #000000; stroke-width: 0.4"/>
     <use xlink:href="#made5695bf3" x="721.567311" y="235.564799" style="fill: #9bd93c; stroke: #000000; stroke-width: 0.4"/>
     <use xlink:href="#made5695bf3" x="758.538018" y="203.564988" style="fill: #9bd93c; stroke: #000000; stroke-width: 0.4"/>
     <use xlink:href="#made5695bf3" x="795.508725" y="75.498729" style="fill: #9bd93c; stroke: #000000; stroke-width: 0.4"/>
     <use xlink:href="#made5695bf3" x="832.479432" y="47.171143" style="fill: #9bd93c; stroke: #000000; stroke-width: 0.4"/>
     <use xlink:href="#made5695bf3" x="573.684482" y="239.530372" style="fill: #9bd93c; stroke: #000000; stroke-width: 0.4"/>
     <use xlink:href="#made5695bf3" x="536.713775" y="240.056324" style="fill: #9bd93c; stroke: #000000; stroke-width: 0.4"/>
     <use xlink:href="#made5695bf3" x="499.743068" y="238.479048" style="fill: #9bd93c; stroke: #000000; stroke-width: 0.4"/>
    </g>
   </g>
   <g id="PathCollection_10">
    <g clip-path="url(#pfd981d34a9)">
     <use xlink:href="#m4ed4f4ef1e" x="610.655189" y="136.178593" style="fill: #463480; stroke: #000000; stroke-width: 0.6"/>
    </g>
   </g>
   <g id="PathCollection_11">
    <g clip-path="url(#pfd981d34a9)">
     <use xlink:href="#m80076efb61" x="610.655189" y="199.6293" style="fill: #21918c; stroke: #000000; stroke-width: 0.6"/>
    </g>
   </g>
   <g id="PathCollection_12">
    <g clip-path="url(#pfd981d34a9)">
     <use xlink:href="#mf2b738cdc5" x="610.655189" y="255.283019" style="fill: #9bd93c; stroke: #000000; stroke-width: 0.6"/>
    </g>
   </g>
  </g>
  <g id="text_43">
   <!-- Transfer validation — loss vs $\beta_2$ and $\epsilon$ -->
   <g transform="translate(323.96625 15.67) scale(0.11 -0.11)">
    <defs>
     <path id="DejaVuSans-54" d="M -19 4666 
L 3928 4666 
L 3928 4134 
L 2272 4134 
L 2272 0 
L 1638 0 
L 1638 4134 
L -19 4134 
L -19 4666 
z
" transform="scale(0.015625)"/>
     <path id="DejaVuSans-72" d="M 2631 2963 
Q 2534 3019 2420 3045 
Q 2306 3072 2169 3072 
Q 1681 3072 1420 2755 
Q 1159 2438 1159 1844 
L 1159 0 
L 581 0 
L 581 3500 
L 1159 3500 
L 1159 2956 
Q 1341 3275 1631 3429 
Q 1922 3584 2338 3584 
Q 2397 3584 2469 3576 
Q 2541 3569 2628 3553 
L 2631 2963 
z
" transform="scale(0.015625)"/>
     <path id="DejaVuSans-61" d="M 2194 1759 
Q 1497 1759 1228 1600 
Q 959 1441 959 1056 
Q 959 750 1161 570 
Q 1363 391 1709 391 
Q 2188 391 2477 730 
Q 2766 1069 2766 1631 
L 2766 1759 
L 2194 1759 
z
M 3341 1997 
L 3341 0 
L 2766 0 
L 2766 531 
Q 2569 213 2275 61 
Q 1981 -91 1556 -91 
Q 1019 -91 701 211 
Q 384 513 384 1019 
Q 384 1609 779 1909 
Q 1175 2209 1959 2209 
L 2766 2209 
L 2766 2266 
Q 2766 2663 2505 2880 
Q 2244 3097 1772 3097 
Q 1472 3097 1187 3025 
Q 903 2953 641 2809 
L 641 3341 
Q 956 3463 1253 3523 
Q 1550 3584 1831 3584 
Q 2591 3584 2966 3190 
Q 3341 2797 3341 1997 
z
" transform="scale(0.015625)"/>
     <path id="DejaVuSans-6e" d="M 3513 2113 
L 3513 0 
L 2938 0 
L 2938 2094 
Q 2938 2591 2744 2837 
Q 2550 3084 2163 3084 
Q 1697 3084 1428 2787 
Q 1159 2491 1159 1978 
L 1159 0 
L 581 0 
L 581 3500 
L 1159 3500 
L 1159 2956 
Q 1366 3272 1645 3428 
Q 1925 3584 2291 3584 
Q 2894 3584 3203 3211 
Q 3513 2838 3513 2113 
z
" transform="scale(0.015625)"/>
     <path id="DejaVuSans-66" d="M 2375 4863 
L 2375 4384 
L 1825 4384 
Q 1516 4384 1395 4259 
Q 1275 4134 1275 3809 
L 1275 3500 
L 2222 3500 
L 2222 3053 
L 1275 3053 
L 1275 0 
L 697 0 
L 697 3053 
L 147 3053 
L 147 3500 
L 697 3500 
L 697 3744 
Q 697 4328 969 4595 
Q 1241 4863 1831 4863 
L 2375 4863 
z
" transform="scale(0.015625)"/>
     <path id="DejaVuSans-65" d="M 3597 1894 
L 3597 1613 
L 953 1613 
Q 991 1019 1311 708 
Q 1631 397 2203 397 
Q 2534 397 2845 478 
Q 3156 559 3463 722 
L 3463 178 
Q 3153 47 2828 -22 
Q 2503 -91 2169 -91 
Q 1331 -91 842 396 
Q 353 884 353 1716 
Q 353 2575 817 3079 
Q 1281 3584 2069 3584 
Q 2775 3584 3186 3129 
Q 3597 2675 3597 1894 
z
M 3022 2063 
Q 3016 2534 2758 2815 
Q 2500 3097 2075 3097 
Q 1594 3097 1305 2825 
Q 1016 2553 972 2059 
L 3022 2063 
z
" transform="scale(0.015625)"/>
     <path id="DejaVuSans-20" transform="scale(0.015625)"/>
     <path id="DejaVuSans-76" d="M 191 3500 
L 800 3500 
L 1894 563 
L 2988 3500 
L 3597 3500 
L 2284 0 
L 1503 0 
L 191 3500 
z
" transform="scale(0.015625)"/>
     <path id="DejaVuSans-69" d="M 603 3500 
L 1178 3500 
L 1178 0 
L 603 0 
L 603 3500 
z
M 603 4863 
L 1178 4863 
L 1178 4134 
L 603 4134 
L 603 4863 
z
" transform="scale(0.015625)"/>
     <path id="DejaVuSans-64" d="M 2906 2969 
L 2906 4863 
L 3481 4863 
L 3481 0 
L 2906 0 
L 2906 525 
Q 2725 213 2448 61 
Q 2172 -91 1784 -91 
Q 1150 -91 751 415 
Q 353 922 353 1747 
Q 353 2572 751 3078 
Q 1150 3584 1784 3584 
Q 2172 3584 2448 3432 
Q 2725 3281 2906 2969 
z
M 947 1747 
Q 947 1113 1208 752 
Q 1469 391 1925 391 
Q 2381 391 2643 752 
Q 2906 1113 2906 1747 
Q 2906 2381 2643 2742 
Q 2381 3103 1925 3103 
Q 1469 3103 1208 2742 
Q 947 2381 947 1747 
z
" transform="scale(0.015625)"/>
     <path id="DejaVuSans-74" d="M 1172 4494 
L 1172 3500 
L 2356 3500 
L 2356 3053 
L 1172 3053 
L 1172 1153 
Q 1172 725 1289 603 
Q 1406 481 1766 481 
L 2356 481 
L 2356 0 
L 1766 0 
Q 1100 0 847 248 
Q 594 497 594 1153 
L 594 3053 
L 172 3053 
L 172 3500 
L 594 3500 
L 594 4494 
L 1172 4494 
z
" transform="scale(0.015625)"/>
     <path id="DejaVuSansDisplay-2014" d="M 313 1978 
L 6088 1978 
L 6088 1528 
L 313 1528 
L 313 1978 
z
" transform="scale(0.015625)"/>
    </defs>
    <use xlink:href="#DejaVuSans-54" transform="translate(0 0.390625)"/>
    <use xlink:href="#DejaVuSans-72" transform="translate(61.083984 0.390625)"/>
    <use xlink:href="#DejaVuSans-61" transform="translate(102.197266 0.390625)"/>
    <use xlink:href="#DejaVuSans-6e" transform="translate(163.476562 0.390625)"/>
    <use xlink:href="#DejaVuSans-73" transform="translate(226.855469 0.390625)"/>
    <use xlink:href="#DejaVuSans-66" transform="translate(278.955078 0.390625)"/>
    <use xlink:href="#DejaVuSans-65" transform="translate(314.160156 0.390625)"/>
    <use xlink:href="#DejaVuSans-72" transform="translate(375.683594 0.390625)"/>
    <use xlink:href="#DejaVuSans-20" transform="translate(416.796875 0.390625)"/>
    <use xlink:href="#DejaVuSans-76" transform="translate(448.583984 0.390625)"/>
    <use xlink:href="#DejaVuSans-61" transform="translate(507.763672 0.390625)"/>
    <use xlink:href="#DejaVuSans-6c" transform="translate(569.042969 0.390625)"/>
    <use xlink:href="#DejaVuSans-69" transform="translate(596.826172 0.390625)"/>
    <use xlink:href="#DejaVuSans-64" transform="translate(624.609375 0.390625)"/>
    <use xlink:href="#DejaVuSans-61" transform="translate(688.085938 0.390625)"/>
    <use xlink:href="#DejaVuSans-74" transform="translate(749.365234 0.390625)"/>
    <use xlink:href="#DejaVuSans-69" transform="translate(788.574219 0.390625)"/>
    <use xlink:href="#DejaVuSans-6f" transform="translate(816.357422 0.390625)"/>
    <use xlink:href="#DejaVuSans-6e" transform="translate(877.539062 0.390625)"/>
    <use xlink:href="#DejaVuSans-20" transform="translate(940.917969 0.390625)"/>
    <use xlink:href="#DejaVuSansDisplay-2014" transform="translate(972.705078 0.390625)"/>
    <use xlink:href="#DejaVuSans-20" transform="translate(1072.705078 0.390625)"/>
    <use xlink:href="#DejaVuSans-6c" transform="translate(1104.492188 0.390625)"/>
    <use xlink:href="#DejaVuSans-6f" transform="translate(1132.275391 0.390625)"/>
    <use xlink:href="#DejaVuSans-73" transform="translate(1193.457031 0.390625)"/>
    <use xlink:href="#DejaVuSans-73" transform="translate(1245.556641 0.390625)"/>
    <use xlink:href="#DejaVuSans-20" transform="translate(1297.65625 0.390625)"/>
    <use xlink:href="#DejaVuSans-76" transform="translate(1329.443359 0.390625)"/>
    <use xlink:href="#DejaVuSans-73" transform="translate(1388.623047 0.390625)"/>
    <use xlink:href="#DejaVuSans-20" transform="translate(1440.722656 0.390625)"/>
    <use xlink:href="#DejaVuSans-Oblique-3b2" transform="translate(1472.509766 0.390625)"/>
    <use xlink:href="#DejaVuSans-32" transform="translate(1536.328125 -16.015625) scale(0.7)"/>
    <use xlink:href="#DejaVuSans-20" transform="translate(1583.598633 0.390625)"/>
    <use xlink:href="#DejaVuSans-61" transform="translate(1615.385742 0.390625)"/>
    <use xlink:href="#DejaVuSans-6e" transform="translate(1676.665039 0.390625)"/>
    <use xlink:href="#DejaVuSans-64" transform="translate(1740.043945 0.390625)"/>
    <use xlink:href="#DejaVuSans-20" transform="translate(1803.520508 0.390625)"/>
    <use xlink:href="#DejaVuSans-Oblique-3b5" transform="translate(1835.307617 0.390625)"/>
   </g>
  </g>
  <g id="legend_1">
   <g id="text_44">
    <!-- model params -->
    <g transform="translate(227.919375 328.138594) scale(0.09 -0.09)">
     <defs>
      <path id="DejaVuSans-6d" d="M 3328 2828 
Q 3544 3216 3844 3400 
Q 4144 3584 4550 3584 
Q 5097 3584 5394 3201 
Q 5691 2819 5691 2113 
L 5691 0 
L 5113 0 
L 5113 2094 
Q 5113 2597 4934 2840 
Q 4756 3084 4391 3084 
Q 3944 3084 3684 2787 
Q 3425 2491 3425 1978 
L 3425 0 
L 2847 0 
L 2847 2094 
Q 2847 2600 2669 2842 
Q 2491 3084 2119 3084 
Q 1678 3084 1418 2786 
Q 1159 2488 1159 1978 
L 1159 0 
L 581 0 
L 581 3500 
L 1159 3500 
L 1159 2956 
Q 1356 3278 1631 3431 
Q 1906 3584 2284 3584 
Q 2666 3584 2933 3390 
Q 3200 3197 3328 2828 
z
" transform="scale(0.015625)"/>
      <path id="DejaVuSans-70" d="M 1159 525 
L 1159 -1331 
L 581 -1331 
L 581 3500 
L 1159 3500 
L 1159 2969 
Q 1341 3281 1617 3432 
Q 1894 3584 2278 3584 
Q 2916 3584 3314 3078 
Q 3713 2572 3713 1747 
Q 3713 922 3314 415 
Q 2916 -91 2278 -91 
Q 1894 -91 1617 61 
Q 1341 213 1159 525 
z
M 3116 1747 
Q 3116 2381 2855 2742 
Q 2594 3103 2138 3103 
Q 1681 3103 1420 2742 
Q 1159 2381 1159 1747 
Q 1159 1113 1420 752 
Q 1681 391 2138 391 
Q 2594 391 2855 752 
Q 3116 1113 3116 1747 
z
" transform="scale(0.015625)"/>
     </defs>
     <use xlink:href="#DejaVuSans-6d"/>
     <use xlink:href="#DejaVuSans-6f" transform="translate(97.412109 0)"/>
     <use xlink:href="#DejaVuSans-64" transform="translate(158.59375 0)"/>
     <use xlink:href="#DejaVuSans-65" transform="translate(222.070312 0)"/>
     <use xlink:href="#DejaVuSans-6c" transform="translate(283.59375 0)"/>
     <use xlink:href="#DejaVuSans-20" transform="translate(311.376953 0)"/>
     <use xlink:href="#DejaVuSans-70" transform="translate(343.164062 0)"/>
     <use xlink:href="#DejaVuSans-61" transform="translate(406.640625 0)"/>
     <use xlink:href="#DejaVuSans-72" transform="translate(467.919922 0)"/>
     <use xlink:href="#DejaVuSans-61" transform="translate(509.033203 0)"/>
     <use xlink:href="#DejaVuSans-6d" transform="translate(570.3125 0)"/>
     <use xlink:href="#DejaVuSans-73" transform="translate(667.724609 0)"/>
    </g>
   </g>
   <g id="line2d_45">
    <defs>
     <path id="mf5db41580e" d="M -4 4 
L 4 4 
L 4 -4 
L -4 -4 
z
" style="stroke: #000000; stroke-width: 0.6; stroke-linejoin: miter"/>
    </defs>
    <g>
     <use xlink:href="#mf5db41580e" x="187.567031" y="338.198906" style="fill: #463480; stroke: #000000; stroke-width: 0.6; stroke-linejoin: miter"/>
    </g>
   </g>
   <g id="text_45">
    <!-- 255M -->
    <g transform="translate(199.267031 341.348906) scale(0.09 -0.09)">
     <defs>
      <path id="DejaVuSans-4d" d="M 628 4666 
L 1569 4666 
L 2759 1491 
L 3956 4666 
L 4897 4666 
L 4897 0 
L 4281 0 
L 4281 4097 
L 3078 897 
L 2444 897 
L 1241 4097 
L 1241 0 
L 628 0 
L 628 4666 
z
" transform="scale(0.015625)"/>
     </defs>
     <use xlink:href="#DejaVuSans-32"/>
     <use xlink:href="#DejaVuSans-35" transform="translate(63.623047 0)"/>
     <use xlink:href="#DejaVuSans-35" transform="translate(127.246094 0)"/>
     <use xlink:href="#DejaVuSans-4d" transform="translate(190.869141 0)"/>
    </g>
   </g>
   <g id="line2d_46">
    <defs>
     <path id="m7ab8295e77" d="M -4 4 
L 4 4 
L 4 -4 
L -4 -4 
z
" style="stroke: #000000; stroke-width: 0.6; stroke-linejoin: miter"/>
    </defs>
    <g>
     <use xlink:href="#m7ab8295e77" x="253.011094" y="338.198906" style="fill: #21918c; stroke: #000000; stroke-width: 0.6; stroke-linejoin: miter"/>
    </g>
   </g>
   <g id="text_46">
    <!-- 476M -->
    <g transform="translate(264.711094 341.348906) scale(0.09 -0.09)">
     <use xlink:href="#DejaVuSans-34"/>
     <use xlink:href="#DejaVuSans-37" transform="translate(63.623047 0)"/>
     <use xlink:href="#DejaVuSans-36" transform="translate(127.246094 0)"/>
     <use xlink:href="#DejaVuSans-4d" transform="translate(190.869141 0)"/>
    </g>
   </g>
   <g id="line2d_47">
    <defs>
     <path id="mcf97df9891" d="M -4 4 
L 4 4 
L 4 -4 
L -4 -4 
z
" style="stroke: #000000; stroke-width: 0.6; stroke-linejoin: miter"/>
    </defs>
    <g>
     <use xlink:href="#mcf97df9891" x="318.455156" y="338.198906" style="fill: #9bd93c; stroke: #000000; stroke-width: 0.6; stroke-linejoin: miter"/>
    </g>
   </g>
   <g id="text_47">
    <!-- 1B -->
    <g transform="translate(330.155156 341.348906) scale(0.09 -0.09)">
     <defs>
      <path id="DejaVuSans-42" d="M 1259 2228 
L 1259 519 
L 2272 519 
Q 2781 519 3026 730 
Q 3272 941 3272 1375 
Q 3272 1813 3026 2020 
Q 2781 2228 2272 2228 
L 1259 2228 
z
M 1259 4147 
L 1259 2741 
L 2194 2741 
Q 2656 2741 2882 2914 
Q 3109 3088 3109 3444 
Q 3109 3797 2882 3972 
Q 2656 4147 2194 4147 
L 1259 4147 
z
M 628 4666 
L 2241 4666 
Q 2963 4666 3353 4366 
Q 3744 4066 3744 3513 
Q 3744 3084 3544 2831 
Q 3344 2578 2956 2516 
Q 3422 2416 3680 2098 
Q 3938 1781 3938 1306 
Q 3938 681 3513 340 
Q 3088 0 2303 0 
L 628 0 
L 628 4666 
z
" transform="scale(0.015625)"/>
     </defs>
     <use xlink:href="#DejaVuSans-31"/>
     <use xlink:href="#DejaVuSans-42" transform="translate(63.623047 0)"/>
    </g>
   </g>
  </g>
  <g id="legend_2">
   <g id="text_48">
    <!-- model params -->
    <g transform="translate(227.919375 328.138594) scale(0.09 -0.09)">
     <use xlink:href="#DejaVuSans-6d"/>
     <use xlink:href="#DejaVuSans-6f" transform="translate(97.412109 0)"/>
     <use xlink:href="#DejaVuSans-64" transform="translate(158.59375 0)"/>
     <use xlink:href="#DejaVuSans-65" transform="translate(222.070312 0)"/>
     <use xlink:href="#DejaVuSans-6c" transform="translate(283.59375 0)"/>
     <use xlink:href="#DejaVuSans-20" transform="translate(311.376953 0)"/>
     <use xlink:href="#DejaVuSans-70" transform="translate(343.164062 0)"/>
     <use xlink:href="#DejaVuSans-61" transform="translate(406.640625 0)"/>
     <use xlink:href="#DejaVuSans-72" transform="translate(467.919922 0)"/>
     <use xlink:href="#DejaVuSans-61" transform="translate(509.033203 0)"/>
     <use xlink:href="#DejaVuSans-6d" transform="translate(570.3125 0)"/>
     <use xlink:href="#DejaVuSans-73" transform="translate(667.724609 0)"/>
    </g>
   </g>
   <g id="line2d_48">
    <g>
     <use xlink:href="#mf5db41580e" x="187.567031" y="338.198906" style="fill: #463480; stroke: #000000; stroke-width: 0.6; stroke-linejoin: miter"/>
    </g>
   </g>
   <g id="text_49">
    <!-- 255M -->
    <g transform="translate(199.267031 341.348906) scale(0.09 -0.09)">
     <use xlink:href="#DejaVuSans-32"/>
     <use xlink:href="#DejaVuSans-35" transform="translate(63.623047 0)"/>
     <use xlink:href="#DejaVuSans-35" transform="translate(127.246094 0)"/>
     <use xlink:href="#DejaVuSans-4d" transform="translate(190.869141 0)"/>
    </g>
   </g>
   <g id="line2d_49">
    <g>
     <use xlink:href="#m7ab8295e77" x="253.011094" y="338.198906" style="fill: #21918c; stroke: #000000; stroke-width: 0.6; stroke-linejoin: miter"/>
    </g>
   </g>
   <g id="text_50">
    <!-- 476M -->
    <g transform="translate(264.711094 341.348906) scale(0.09 -0.09)">
     <use xlink:href="#DejaVuSans-34"/>
     <use xlink:href="#DejaVuSans-37" transform="translate(63.623047 0)"/>
     <use xlink:href="#DejaVuSans-36" transform="translate(127.246094 0)"/>
     <use xlink:href="#DejaVuSans-4d" transform="translate(190.869141 0)"/>
    </g>
   </g>
   <g id="line2d_50">
    <g>
     <use xlink:href="#mcf97df9891" x="318.455156" y="338.198906" style="fill: #9bd93c; stroke: #000000; stroke-width: 0.6; stroke-linejoin: miter"/>
    </g>
   </g>
   <g id="text_51">
    <!-- 1B -->
    <g transform="translate(330.155156 341.348906) scale(0.09 -0.09)">
     <use xlink:href="#DejaVuSans-31"/>
     <use xlink:href="#DejaVuSans-42" transform="translate(63.623047 0)"/>
    </g>
   </g>
  </g>
  <g id="legend_3">
   <g id="text_52">
    <!-- run type -->
    <g transform="translate(444.820781 328.138594) scale(0.09 -0.09)">
     <defs>
      <path id="DejaVuSans-75" d="M 544 1381 
L 544 3500 
L 1119 3500 
L 1119 1403 
Q 1119 906 1312 657 
Q 1506 409 1894 409 
Q 2359 409 2629 706 
Q 2900 1003 2900 1516 
L 2900 3500 
L 3475 3500 
L 3475 0 
L 2900 0 
L 2900 538 
Q 2691 219 2414 64 
Q 2138 -91 1772 -91 
Q 1169 -91 856 284 
Q 544 659 544 1381 
z
M 1991 3584 
L 1991 3584 
z
" transform="scale(0.015625)"/>
      <path id="DejaVuSans-79" d="M 2059 -325 
Q 1816 -950 1584 -1140 
Q 1353 -1331 966 -1331 
L 506 -1331 
L 506 -850 
L 844 -850 
Q 1081 -850 1212 -737 
Q 1344 -625 1503 -206 
L 1606 56 
L 191 3500 
L 800 3500 
L 1894 763 
L 2988 3500 
L 3597 3500 
L 2059 -325 
z
" transform="scale(0.015625)"/>
     </defs>
     <use xlink:href="#DejaVuSans-72"/>
     <use xlink:href="#DejaVuSans-75" transform="translate(41.113281 0)"/>
     <use xlink:href="#DejaVuSans-6e" transform="translate(104.492188 0)"/>
     <use xlink:href="#DejaVuSans-20" transform="translate(167.871094 0)"/>
     <use xlink:href="#DejaVuSans-74" transform="translate(199.658203 0)"/>
     <use xlink:href="#DejaVuSans-79" transform="translate(238.867188 0)"/>
     <use xlink:href="#DejaVuSans-70" transform="translate(298.046875 0)"/>
     <use xlink:href="#DejaVuSans-65" transform="translate(361.523438 0)"/>
    </g>
   </g>
   <g id="line2d_51">
    <defs>
     <path id="mf5d26bdb73" d="M 0 4 
C 1.060812 4 2.078319 3.578535 2.828427 2.828427 
C 3.578535 2.078319 4 1.060812 4 0 
C 4 -1.060812 3.578535 -2.078319 2.828427 -2.828427 
C 2.078319 -3.578535 1.060812 -4 0 -4 
C -1.060812 -4 -2.078319 -3.578535 -2.828427 -2.828427 
C -3.578535 -2.078319 -4 -1.060812 -4 0 
C -4 1.060812 -3.578535 2.078319 -2.828427 2.828427 
C -2.078319 3.578535 -1.060812 4 0 4 
z
" style="stroke: #000000; stroke-width: 0.6"/>
    </defs>
    <g>
     <use xlink:href="#mf5d26bdb73" x="384.53625" y="338.198906" style="fill: #d3d3d3; stroke: #000000; stroke-width: 0.6"/>
    </g>
   </g>
   <g id="text_53">
    <!-- sweep -->
    <g transform="translate(396.23625 341.348906) scale(0.09 -0.09)">
     <defs>
      <path id="DejaVuSans-77" d="M 269 3500 
L 844 3500 
L 1563 769 
L 2278 3500 
L 2956 3500 
L 3675 769 
L 4391 3500 
L 4966 3500 
L 4050 0 
L 3372 0 
L 2619 2869 
L 1863 0 
L 1184 0 
L 269 3500 
z
" transform="scale(0.015625)"/>
     </defs>
     <use xlink:href="#DejaVuSans-73"/>
     <use xlink:href="#DejaVuSans-77" transform="translate(52.099609 0)"/>
     <use xlink:href="#DejaVuSans-65" transform="translate(133.886719 0)"/>
     <use xlink:href="#DejaVuSans-65" transform="translate(195.410156 0)"/>
     <use xlink:href="#DejaVuSans-70" transform="translate(256.933594 0)"/>
    </g>
   </g>
   <g id="line2d_52">
    <defs>
     <path id="mc51d9aafe1" d="M -4 4 
L 4 4 
L 4 -4 
L -4 -4 
z
" style="stroke: #000000; stroke-width: 0.6; stroke-linejoin: miter"/>
    </defs>
    <g>
     <use xlink:href="#mc51d9aafe1" x="453.874219" y="338.198906" style="fill: #d3d3d3; stroke: #000000; stroke-width: 0.6; stroke-linejoin: miter"/>
    </g>
   </g>
   <g id="text_54">
    <!-- optimal (predicted) -->
    <g transform="translate(465.574219 341.348906) scale(0.09 -0.09)">
     <defs>
      <path id="DejaVuSans-28" d="M 1984 4856 
Q 1566 4138 1362 3434 
Q 1159 2731 1159 2009 
Q 1159 1288 1364 580 
Q 1569 -128 1984 -844 
L 1484 -844 
Q 1016 -109 783 600 
Q 550 1309 550 2009 
Q 550 2706 781 3412 
Q 1013 4119 1484 4856 
L 1984 4856 
z
" transform="scale(0.015625)"/>
      <path id="DejaVuSans-63" d="M 3122 3366 
L 3122 2828 
Q 2878 2963 2633 3030 
Q 2388 3097 2138 3097 
Q 1578 3097 1268 2742 
Q 959 2388 959 1747 
Q 959 1106 1268 751 
Q 1578 397 2138 397 
Q 2388 397 2633 464 
Q 2878 531 3122 666 
L 3122 134 
Q 2881 22 2623 -34 
Q 2366 -91 2075 -91 
Q 1284 -91 818 406 
Q 353 903 353 1747 
Q 353 2603 823 3093 
Q 1294 3584 2113 3584 
Q 2378 3584 2631 3529 
Q 2884 3475 3122 3366 
z
" transform="scale(0.015625)"/>
      <path id="DejaVuSans-29" d="M 513 4856 
L 1013 4856 
Q 1481 4119 1714 3412 
Q 1947 2706 1947 2009 
Q 1947 1309 1714 600 
Q 1481 -109 1013 -844 
L 513 -844 
Q 928 -128 1133 580 
Q 1338 1288 1338 2009 
Q 1338 2731 1133 3434 
Q 928 4138 513 4856 
z
" transform="scale(0.015625)"/>
     </defs>
     <use xlink:href="#DejaVuSans-6f"/>
     <use xlink:href="#DejaVuSans-70" transform="translate(61.181641 0)"/>
     <use xlink:href="#DejaVuSans-74" transform="translate(124.658203 0)"/>
     <use xlink:href="#DejaVuSans-69" transform="translate(163.867188 0)"/>
     <use xlink:href="#DejaVuSans-6d" transform="translate(191.650391 0)"/>
     <use xlink:href="#DejaVuSans-61" transform="translate(289.0625 0)"/>
     <use xlink:href="#DejaVuSans-6c" transform="translate(350.341797 0)"/>
     <use xlink:href="#DejaVuSans-20" transform="translate(378.125 0)"/>
     <use xlink:href="#DejaVuSans-28" transform="translate(409.912109 0)"/>
     <use xlink:href="#DejaVuSans-70" transform="translate(448.925781 0)"/>
     <use xlink:href="#DejaVuSans-72" transform="translate(512.402344 0)"/>
     <use xlink:href="#DejaVuSans-65" transform="translate(551.265625 0)"/>
     <use xlink:href="#DejaVuSans-64" transform="translate(612.789062 0)"/>
     <use xlink:href="#DejaVuSans-69" transform="translate(676.265625 0)"/>
     <use xlink:href="#DejaVuSans-63" transform="translate(704.048828 0)"/>
     <use xlink:href="#DejaVuSans-74" transform="translate(759.029297 0)"/>
     <use xlink:href="#DejaVuSans-65" transform="translate(798.238281 0)"/>
     <use xlink:href="#DejaVuSans-64" transform="translate(859.761719 0)"/>
     <use xlink:href="#DejaVuSans-29" transform="translate(923.238281 0)"/>
    </g>
   </g>
  </g>
 </g>
 <defs>
  <clipPath id="p2d7cdac3f4">
   <rect x="56.50625" y="27" width="366.01" height="239.153639"/>
  </clipPath>
  <clipPath id="pfd981d34a9">
   <rect x="483.10625" y="27" width="366.01" height="239.153639"/>
  </clipPath>
 </defs>
</svg>
