<?xml version="1.0" encoding="utf-8" standalone="no"?>
<!DOCTYPE svg PUBLIC "-//W3C//DTD SVG 1.1//EN"
  "http://www.w3.org/Graphics/SVG/1.1/DTD/svg11.dtd">
<svg xmlns:xlink="http://www.w3.org/1999/xlink" width="856.34375pt" height="350.420625pt" viewBox="0 0 856.34375 350.420625" xmlns="http://www.w3.org/2000/svg" version="1.1">
 <metadata>
  <rdf:RDF xmlns:dc="http://purl.org/dc/elements/1.1/" xmlns:cc="http://creativecommons.org/ns#" xmlns:rdf="http://www.w3.org/1999/02/22-rdf-syntax-ns#">
   <cc:Work>
    <dc:type rdf:resource="http://purl.org/dc/dcmitype/StillImage"/>
    <dc:date>2026-06-04T12:57:37.359299</dc:date>
    <dc:format>image/svg+xml</dc:format>
    <dc:creator>
     <cc:Agent>
      <dc:title>Matplotlib v3.10.9, https://matplotlib.org/</dc:title>
     </cc:Agent>
    </dc:creator>
   </cc:Work>
  </rdf:RDF>
 </metadata>
 <defs>
  <style type="text/css">*{stroke-linejoin: round; stroke-linecap: butt}</style>
 </defs>
 <g id="figure_1">
  <g id="patch_1">
   <path d="M 0 350.420625 
L 856.34375 350.420625 
L 856.34375 0 
L 0 0 
L 0 350.420625 
z
" style="fill: none"/>
  </g>
  <g id="axes_1">
   <g id="patch_2">
    <path d="M 50.14375 278.156 
L 422.54375 278.156 
L 422.54375 43.7328 
L 50.14375 43.7328 
L 50.14375 278.156 
z
" style="fill: none"/>
   </g>
   <g id="matplotlib.axis_1">
    <g id="xtick_1">
     <g id="line2d_1">
      <defs>
       <path id="m1a30a2f16b" d="M 0 0 
L 0 3.5 
" style="stroke: #000000; stroke-width: 0.8"/>
      </defs>
      <g>
       <use xlink:href="#m1a30a2f16b" x="105.666554" y="278.156" style="stroke: #000000; stroke-width: 0.8"/>
      </g>
     </g>
     <g id="text_1">
      <!-- $\mathdefault{10^{4}}$ -->
      <g transform="translate(96.866554 292.754437) scale(0.1 -0.1)">
       <defs>
        <path id="DejaVuSans-31" d="M 794 531 
L 1825 531 
L 1825 4091 
L 703 3866 
L 703 4441 
L 1819 4666 
L 2450 4666 
L 2450 531 
L 3481 531 
L 3481 0 
L 794 0 
L 794 531 
z
" transform="scale(0.015625)"/>
        <path id="DejaVuSans-30" d="M 2034 4250 
Q 1547 4250 1301 3770 
Q 1056 3291 1056 2328 
Q 1056 1369 1301 889 
Q 1547 409 2034 409 
Q 2525 409 2770 889 
Q 3016 1369 3016 2328 
Q 3016 3291 2770 3770 
Q 2525 4250 2034 4250 
z
M 2034 4750 
Q 2819 4750 3233 4129 
Q 3647 3509 3647 2328 
Q 3647 1150 3233 529 
Q 2819 -91 2034 -91 
Q 1250 -91 836 529 
Q 422 1150 422 2328 
Q 422 3509 836 4129 
Q 1250 4750 2034 4750 
z
" transform="scale(0.015625)"/>
        <path id="DejaVuSans-34" d="M 2419 4116 
L 825 1625 
L 2419 1625 
L 2419 4116 
z
M 2253 4666 
L 3047 4666 
L 3047 1625 
L 3713 1625 
L 3713 1100 
L 3047 1100 
L 3047 0 
L 2419 0 
L 2419 1100 
L 313 1100 
L 313 1709 
L 2253 4666 
z
" transform="scale(0.015625)"/>
       </defs>
       <use xlink:href="#DejaVuSans-31" transform="translate(0 0.684375)"/>
       <use xlink:href="#DejaVuSans-30" transform="translate(63.623047 0.684375)"/>
       <use xlink:href="#DejaVuSans-34" transform="translate(128.203125 38.965625) scale(0.7)"/>
      </g>
     </g>
    </g>
    <g id="xtick_2">
     <g id="line2d_2">
      <g>
       <use xlink:href="#m1a30a2f16b" x="330.584963" y="278.156" style="stroke: #000000; stroke-width: 0.8"/>
      </g>
     </g>
     <g id="text_2">
      <!-- $\mathdefault{10^{5}}$ -->
      <g transform="translate(321.784963 292.754437) scale(0.1 -0.1)">
       <defs>
        <path id="DejaVuSans-35" d="M 691 4666 
L 3169 4666 
L 3169 4134 
L 1269 4134 
L 1269 2991 
Q 1406 3038 1543 3061 
Q 1681 3084 1819 3084 
Q 2600 3084 3056 2656 
Q 3513 2228 3513 1497 
Q 3513 744 3044 326 
Q 2575 -91 1722 -91 
Q 1428 -91 1123 -41 
Q 819 9 494 109 
L 494 744 
Q 775 591 1075 516 
Q 1375 441 1709 441 
Q 2250 441 2565 725 
Q 2881 1009 2881 1497 
Q 2881 1984 2565 2268 
Q 2250 2553 1709 2553 
Q 1456 2553 1204 2497 
Q 953 2441 691 2322 
L 691 4666 
z
" transform="scale(0.015625)"/>
       </defs>
       <use xlink:href="#DejaVuSans-31" transform="translate(0 0.684375)"/>
       <use xlink:href="#DejaVuSans-30" transform="translate(63.623047 0.684375)"/>
       <use xlink:href="#DejaVuSans-35" transform="translate(128.203125 38.965625) scale(0.7)"/>
      </g>
     </g>
    </g>
    <g id="xtick_3">
     <g id="line2d_3">
      <defs>
       <path id="m4e130daac1" d="M 0 0 
L 0 2 
" style="stroke: #000000; stroke-width: 0.6"/>
      </defs>
      <g>
       <use xlink:href="#m4e130daac1" x="55.768686" y="278.156" style="stroke: #000000; stroke-width: 0.6"/>
      </g>
     </g>
    </g>
    <g id="xtick_4">
     <g id="line2d_4">
      <g>
       <use xlink:href="#m4e130daac1" x="70.826252" y="278.156" style="stroke: #000000; stroke-width: 0.6"/>
      </g>
     </g>
    </g>
    <g id="xtick_5">
     <g id="line2d_5">
      <g>
       <use xlink:href="#m4e130daac1" x="83.869708" y="278.156" style="stroke: #000000; stroke-width: 0.6"/>
      </g>
     </g>
    </g>
    <g id="xtick_6">
     <g id="line2d_6">
      <g>
       <use xlink:href="#m4e130daac1" x="95.374852" y="278.156" style="stroke: #000000; stroke-width: 0.6"/>
      </g>
     </g>
    </g>
    <g id="xtick_7">
     <g id="line2d_7">
      <g>
       <use xlink:href="#m4e130daac1" x="173.373742" y="278.156" style="stroke: #000000; stroke-width: 0.6"/>
      </g>
     </g>
    </g>
    <g id="xtick_8">
     <g id="line2d_8">
      <g>
       <use xlink:href="#m4e130daac1" x="212.979908" y="278.156" style="stroke: #000000; stroke-width: 0.6"/>
      </g>
     </g>
    </g>
    <g id="xtick_9">
     <g id="line2d_9">
      <g>
       <use xlink:href="#m4e130daac1" x="241.08093" y="278.156" style="stroke: #000000; stroke-width: 0.6"/>
      </g>
     </g>
    </g>
    <g id="xtick_10">
     <g id="line2d_10">
      <g>
       <use xlink:href="#m4e130daac1" x="262.877776" y="278.156" style="stroke: #000000; stroke-width: 0.6"/>
      </g>
     </g>
    </g>
    <g id="xtick_11">
     <g id="line2d_11">
      <g>
       <use xlink:href="#m4e130daac1" x="280.687095" y="278.156" style="stroke: #000000; stroke-width: 0.6"/>
      </g>
     </g>
    </g>
    <g id="xtick_12">
     <g id="line2d_12">
      <g>
       <use xlink:href="#m4e130daac1" x="295.744661" y="278.156" style="stroke: #000000; stroke-width: 0.6"/>
      </g>
     </g>
    </g>
    <g id="xtick_13">
     <g id="line2d_13">
      <g>
       <use xlink:href="#m4e130daac1" x="308.788117" y="278.156" style="stroke: #000000; stroke-width: 0.6"/>
      </g>
     </g>
    </g>
    <g id="xtick_14">
     <g id="line2d_14">
      <g>
       <use xlink:href="#m4e130daac1" x="320.293261" y="278.156" style="stroke: #000000; stroke-width: 0.6"/>
      </g>
     </g>
    </g>
    <g id="xtick_15">
     <g id="line2d_15">
      <g>
       <use xlink:href="#m4e130daac1" x="398.292151" y="278.156" style="stroke: #000000; stroke-width: 0.6"/>
      </g>
     </g>
    </g>
    <g id="text_3">
     <!-- step -->
     <g transform="translate(225.528125 302.432563) scale(0.1 -0.1)">
      <defs>
       <path id="DejaVuSans-73" d="M 2834 3397 
L 2834 2853 
Q 2591 2978 2328 3040 
Q 2066 3103 1784 3103 
Q 1356 3103 1142 2972 
Q 928 2841 928 2578 
Q 928 2378 1081 2264 
Q 1234 2150 1697 2047 
L 1894 2003 
Q 2506 1872 2764 1633 
Q 3022 1394 3022 966 
Q 3022 478 2636 193 
Q 2250 -91 1575 -91 
Q 1294 -91 989 -36 
Q 684 19 347 128 
L 347 722 
Q 666 556 975 473 
Q 1284 391 1588 391 
Q 1994 391 2212 530 
Q 2431 669 2431 922 
Q 2431 1156 2273 1281 
Q 2116 1406 1581 1522 
L 1381 1569 
Q 847 1681 609 1914 
Q 372 2147 372 2553 
Q 372 3047 722 3315 
Q 1072 3584 1716 3584 
Q 2034 3584 2315 3537 
Q 2597 3491 2834 3397 
z
" transform="scale(0.015625)"/>
       <path id="DejaVuSans-74" d="M 1172 4494 
L 1172 3500 
L 2356 3500 
L 2356 3053 
L 1172 3053 
L 1172 1153 
Q 1172 725 1289 603 
Q 1406 481 1766 481 
L 2356 481 
L 2356 0 
L 1766 0 
Q 1100 0 847 248 
Q 594 497 594 1153 
L 594 3053 
L 172 3053 
L 172 3500 
L 594 3500 
L 594 4494 
L 1172 4494 
z
" transform="scale(0.015625)"/>
       <path id="DejaVuSans-65" d="M 3597 1894 
L 3597 1613 
L 953 1613 
Q 991 1019 1311 708 
Q 1631 397 2203 397 
Q 2534 397 2845 478 
Q 3156 559 3463 722 
L 3463 178 
Q 3153 47 2828 -22 
Q 2503 -91 2169 -91 
Q 1331 -91 842 396 
Q 353 884 353 1716 
Q 353 2575 817 3079 
Q 1281 3584 2069 3584 
Q 2775 3584 3186 3129 
Q 3597 2675 3597 1894 
z
M 3022 2063 
Q 3016 2534 2758 2815 
Q 2500 3097 2075 3097 
Q 1594 3097 1305 2825 
Q 1016 2553 972 2059 
L 3022 2063 
z
" transform="scale(0.015625)"/>
       <path id="DejaVuSans-70" d="M 1159 525 
L 1159 -1331 
L 581 -1331 
L 581 3500 
L 1159 3500 
L 1159 2969 
Q 1341 3281 1617 3432 
Q 1894 3584 2278 3584 
Q 2916 3584 3314 3078 
Q 3713 2572 3713 1747 
Q 3713 922 3314 415 
Q 2916 -91 2278 -91 
Q 1894 -91 1617 61 
Q 1341 213 1159 525 
z
M 3116 1747 
Q 3116 2381 2855 2742 
Q 2594 3103 2138 3103 
Q 1681 3103 1420 2742 
Q 1159 2381 1159 1747 
Q 1159 1113 1420 752 
Q 1681 391 2138 391 
Q 2594 391 2855 752 
Q 3116 1113 3116 1747 
z
" transform="scale(0.015625)"/>
      </defs>
      <use xlink:href="#DejaVuSans-73"/>
      <use xlink:href="#DejaVuSans-74" transform="translate(52.099609 0)"/>
      <use xlink:href="#DejaVuSans-65" transform="translate(91.308594 0)"/>
      <use xlink:href="#DejaVuSans-70" transform="translate(152.832031 0)"/>
     </g>
    </g>
   </g>
   <g id="matplotlib.axis_2">
    <g id="ytick_1">
     <g id="line2d_16">
      <defs>
       <path id="m43822bf700" d="M 0 0 
L -3.5 0 
" style="stroke: #000000; stroke-width: 0.8"/>
      </defs>
      <g>
       <use xlink:href="#m43822bf700" x="50.14375" y="274.927611" style="stroke: #000000; stroke-width: 0.8"/>
      </g>
     </g>
     <g id="text_4">
      <!-- 1.00 -->
      <g transform="translate(20.878125 278.72683) scale(0.1 -0.1)">
       <defs>
        <path id="DejaVuSans-2e" d="M 684 794 
L 1344 794 
L 1344 0 
L 684 0 
L 684 794 
z
" transform="scale(0.015625)"/>
       </defs>
       <use xlink:href="#DejaVuSans-31"/>
       <use xlink:href="#DejaVuSans-2e" transform="translate(63.623047 0)"/>
       <use xlink:href="#DejaVuSans-30" transform="translate(95.410156 0)"/>
       <use xlink:href="#DejaVuSans-30" transform="translate(159.033203 0)"/>
      </g>
     </g>
    </g>
    <g id="ytick_2">
     <g id="line2d_17">
      <defs>
       <path id="me9ce118f43" d="M 0 0 
L -2 0 
" style="stroke: #000000; stroke-width: 0.6"/>
      </defs>
      <g>
       <use xlink:href="#me9ce118f43" x="50.14375" y="235.784634" style="stroke: #000000; stroke-width: 0.6"/>
      </g>
     </g>
     <g id="text_5">
      <!-- 1.05 -->
      <g transform="translate(22.478125 239.583852) scale(0.1 -0.1)">
       <use xlink:href="#DejaVuSans-31"/>
       <use xlink:href="#DejaVuSans-2e" transform="translate(63.623047 0)"/>
       <use xlink:href="#DejaVuSans-30" transform="translate(95.410156 0)"/>
       <use xlink:href="#DejaVuSans-35" transform="translate(159.033203 0)"/>
      </g>
     </g>
    </g>
    <g id="ytick_3">
     <g id="line2d_18">
      <g>
       <use xlink:href="#me9ce118f43" x="50.14375" y="198.462932" style="stroke: #000000; stroke-width: 0.6"/>
      </g>
     </g>
     <g id="text_6">
      <!-- 1.10 -->
      <g transform="translate(22.478125 202.262151) scale(0.1 -0.1)">
       <use xlink:href="#DejaVuSans-31"/>
       <use xlink:href="#DejaVuSans-2e" transform="translate(63.623047 0)"/>
       <use xlink:href="#DejaVuSans-31" transform="translate(95.410156 0)"/>
       <use xlink:href="#DejaVuSans-30" transform="translate(159.033203 0)"/>
      </g>
     </g>
    </g>
    <g id="ytick_4">
     <g id="line2d_19">
      <g>
       <use xlink:href="#me9ce118f43" x="50.14375" y="162.800532" style="stroke: #000000; stroke-width: 0.6"/>
      </g>
     </g>
     <g id="text_7">
      <!-- 1.15 -->
      <g transform="translate(22.478125 166.599751) scale(0.1 -0.1)">
       <use xlink:href="#DejaVuSans-31"/>
       <use xlink:href="#DejaVuSans-2e" transform="translate(63.623047 0)"/>
       <use xlink:href="#DejaVuSans-31" transform="translate(95.410156 0)"/>
       <use xlink:href="#DejaVuSans-35" transform="translate(159.033203 0)"/>
      </g>
     </g>
    </g>
    <g id="ytick_5">
     <g id="line2d_20">
      <g>
       <use xlink:href="#me9ce118f43" x="50.14375" y="128.656149" style="stroke: #000000; stroke-width: 0.6"/>
      </g>
     </g>
     <g id="text_8">
      <!-- 1.20 -->
      <g transform="translate(22.478125 132.455368) scale(0.1 -0.1)">
       <defs>
        <path id="DejaVuSans-32" d="M 1228 531 
L 3431 531 
L 3431 0 
L 469 0 
L 469 531 
Q 828 903 1448 1529 
Q 2069 2156 2228 2338 
Q 2531 2678 2651 2914 
Q 2772 3150 2772 3378 
Q 2772 3750 2511 3984 
Q 2250 4219 1831 4219 
Q 1534 4219 1204 4116 
Q 875 4013 500 3803 
L 500 4441 
Q 881 4594 1212 4672 
Q 1544 4750 1819 4750 
Q 2544 4750 2975 4387 
Q 3406 4025 3406 3419 
Q 3406 3131 3298 2873 
Q 3191 2616 2906 2266 
Q 2828 2175 2409 1742 
Q 1991 1309 1228 531 
z
" transform="scale(0.015625)"/>
       </defs>
       <use xlink:href="#DejaVuSans-31"/>
       <use xlink:href="#DejaVuSans-2e" transform="translate(63.623047 0)"/>
       <use xlink:href="#DejaVuSans-32" transform="translate(95.410156 0)"/>
       <use xlink:href="#DejaVuSans-30" transform="translate(159.033203 0)"/>
      </g>
     </g>
    </g>
    <g id="ytick_6">
     <g id="line2d_21">
      <g>
       <use xlink:href="#me9ce118f43" x="50.14375" y="95.90581" style="stroke: #000000; stroke-width: 0.6"/>
      </g>
     </g>
     <g id="text_9">
      <!-- 1.25 -->
      <g transform="translate(22.478125 99.705029) scale(0.1 -0.1)">
       <use xlink:href="#DejaVuSans-31"/>
       <use xlink:href="#DejaVuSans-2e" transform="translate(63.623047 0)"/>
       <use xlink:href="#DejaVuSans-32" transform="translate(95.410156 0)"/>
       <use xlink:href="#DejaVuSans-35" transform="translate(159.033203 0)"/>
      </g>
     </g>
    </g>
    <g id="ytick_7">
     <g id="line2d_22">
      <g>
       <use xlink:href="#me9ce118f43" x="50.14375" y="64.440134" style="stroke: #000000; stroke-width: 0.6"/>
      </g>
     </g>
     <g id="text_10">
      <!-- 1.30 -->
      <g transform="translate(22.478125 68.239353) scale(0.1 -0.1)">
       <defs>
        <path id="DejaVuSans-33" d="M 2597 2516 
Q 3050 2419 3304 2112 
Q 3559 1806 3559 1356 
Q 3559 666 3084 287 
Q 2609 -91 1734 -91 
Q 1441 -91 1130 -33 
Q 819 25 488 141 
L 488 750 
Q 750 597 1062 519 
Q 1375 441 1716 441 
Q 2309 441 2620 675 
Q 2931 909 2931 1356 
Q 2931 1769 2642 2001 
Q 2353 2234 1838 2234 
L 1294 2234 
L 1294 2753 
L 1863 2753 
Q 2328 2753 2575 2939 
Q 2822 3125 2822 3475 
Q 2822 3834 2567 4026 
Q 2313 4219 1838 4219 
Q 1578 4219 1281 4162 
Q 984 4106 628 3988 
L 628 4550 
Q 988 4650 1302 4700 
Q 1616 4750 1894 4750 
Q 2613 4750 3031 4423 
Q 3450 4097 3450 3541 
Q 3450 3153 3228 2886 
Q 3006 2619 2597 2516 
z
" transform="scale(0.015625)"/>
       </defs>
       <use xlink:href="#DejaVuSans-31"/>
       <use xlink:href="#DejaVuSans-2e" transform="translate(63.623047 0)"/>
       <use xlink:href="#DejaVuSans-33" transform="translate(95.410156 0)"/>
       <use xlink:href="#DejaVuSans-30" transform="translate(159.033203 0)"/>
      </g>
     </g>
    </g>
    <g id="text_11">
     <!-- train loss -->
     <g transform="translate(14.798438 183.828775) rotate(-90) scale(0.1 -0.1)">
      <defs>
       <path id="DejaVuSans-72" d="M 2631 2963 
Q 2534 3019 2420 3045 
Q 2306 3072 2169 3072 
Q 1681 3072 1420 2755 
Q 1159 2438 1159 1844 
L 1159 0 
L 581 0 
L 581 3500 
L 1159 3500 
L 1159 2956 
Q 1341 3275 1631 3429 
Q 1922 3584 2338 3584 
Q 2397 3584 2469 3576 
Q 2541 3569 2628 3553 
L 2631 2963 
z
" transform="scale(0.015625)"/>
       <path id="DejaVuSans-61" d="M 2194 1759 
Q 1497 1759 1228 1600 
Q 959 1441 959 1056 
Q 959 750 1161 570 
Q 1363 391 1709 391 
Q 2188 391 2477 730 
Q 2766 1069 2766 1631 
L 2766 1759 
L 2194 1759 
z
M 3341 1997 
L 3341 0 
L 2766 0 
L 2766 531 
Q 2569 213 2275 61 
Q 1981 -91 1556 -91 
Q 1019 -91 701 211 
Q 384 513 384 1019 
Q 384 1609 779 1909 
Q 1175 2209 1959 2209 
L 2766 2209 
L 2766 2266 
Q 2766 2663 2505 2880 
Q 2244 3097 1772 3097 
Q 1472 3097 1187 3025 
Q 903 2953 641 2809 
L 641 3341 
Q 956 3463 1253 3523 
Q 1550 3584 1831 3584 
Q 2591 3584 2966 3190 
Q 3341 2797 3341 1997 
z
" transform="scale(0.015625)"/>
       <path id="DejaVuSans-69" d="M 603 3500 
L 1178 3500 
L 1178 0 
L 603 0 
L 603 3500 
z
M 603 4863 
L 1178 4863 
L 1178 4134 
L 603 4134 
L 603 4863 
z
" transform="scale(0.015625)"/>
       <path id="DejaVuSans-6e" d="M 3513 2113 
L 3513 0 
L 2938 0 
L 2938 2094 
Q 2938 2591 2744 2837 
Q 2550 3084 2163 3084 
Q 1697 3084 1428 2787 
Q 1159 2491 1159 1978 
L 1159 0 
L 581 0 
L 581 3500 
L 1159 3500 
L 1159 2956 
Q 1366 3272 1645 3428 
Q 1925 3584 2291 3584 
Q 2894 3584 3203 3211 
Q 3513 2838 3513 2113 
z
" transform="scale(0.015625)"/>
       <path id="DejaVuSans-20" transform="scale(0.015625)"/>
       <path id="DejaVuSans-6c" d="M 603 4863 
L 1178 4863 
L 1178 0 
L 603 0 
L 603 4863 
z
" transform="scale(0.015625)"/>
       <path id="DejaVuSans-6f" d="M 1959 3097 
Q 1497 3097 1228 2736 
Q 959 2375 959 1747 
Q 959 1119 1226 758 
Q 1494 397 1959 397 
Q 2419 397 2687 759 
Q 2956 1122 2956 1747 
Q 2956 2369 2687 2733 
Q 2419 3097 1959 3097 
z
M 1959 3584 
Q 2709 3584 3137 3096 
Q 3566 2609 3566 1747 
Q 3566 888 3137 398 
Q 2709 -91 1959 -91 
Q 1206 -91 779 398 
Q 353 888 353 1747 
Q 353 2609 779 3096 
Q 1206 3584 1959 3584 
z
" transform="scale(0.015625)"/>
      </defs>
      <use xlink:href="#DejaVuSans-74"/>
      <use xlink:href="#DejaVuSans-72" transform="translate(39.208984 0)"/>
      <use xlink:href="#DejaVuSans-61" transform="translate(80.322266 0)"/>
      <use xlink:href="#DejaVuSans-69" transform="translate(141.601562 0)"/>
      <use xlink:href="#DejaVuSans-6e" transform="translate(169.384766 0)"/>
      <use xlink:href="#DejaVuSans-20" transform="translate(232.763672 0)"/>
      <use xlink:href="#DejaVuSans-6c" transform="translate(264.550781 0)"/>
      <use xlink:href="#DejaVuSans-6f" transform="translate(292.333984 0)"/>
      <use xlink:href="#DejaVuSans-73" transform="translate(353.515625 0)"/>
      <use xlink:href="#DejaVuSans-73" transform="translate(405.615234 0)"/>
     </g>
    </g>
   </g>
   <g id="line2d_23">
    <path d="M 67.071023 54.3884 
L 134.77821 66.720918 
L 174.384376 68.474898 
L 202.485398 73.20753 
L 224.282244 75.321558 
L 242.091564 75.418434 
L 257.149129 78.139151 
L 270.192586 81.995967 
L 281.69773 86.005846 
L 291.989432 78.843058 
L 301.299409 85.975164 
L 309.798752 85.248818 
L 317.617389 89.147103 
L 324.856317 85.57452 
L 331.595598 87.942226 
L 337.899774 89.324504 
L 343.821637 92.801896 
L 349.404918 89.723002 
L 354.686248 94.140512 
L 359.696619 94.193266 
L 364.462483 92.174509 
L 369.006596 90.325224 
L 373.348681 92.894045 
L 377.505939 94.67249 
L 381.493465 93.651459 
L 385.324577 94.560887 
L 389.011083 93.0353 
L 392.563505 102.689532 
L 395.991254 102.405864 
L 399.302785 101.185853 
L 402.505722 108.148481 
L 405.606961 109.302964 
L 405.616477 103.017453 
" clip-path="url(#p9b8d1ca34d)" style="fill: none; stroke: #463480; stroke-width: 1.3; stroke-linecap: square"/>
   </g>
   <g id="line2d_24">
    <path d="M 67.071023 56.449273 
L 134.77821 67.935621 
L 174.384376 70.680935 
L 202.485398 75.308881 
L 224.282244 78.81512 
L 242.091564 80.005082 
L 257.149129 84.045781 
L 270.192586 89.652093 
L 281.69773 94.60603 
L 291.989432 86.201677 
L 301.299409 94.425472 
L 309.798752 93.585847 
L 317.617389 98.055806 
L 324.856317 95.695281 
L 331.595598 97.326186 
L 337.899774 98.683511 
L 343.821637 103.395551 
L 349.404918 98.592306 
L 354.686248 103.598146 
L 359.696619 104.520473 
L 364.462483 101.525411 
L 369.006596 100.088743 
L 373.348681 104.873979 
L 377.505939 104.67725 
L 381.493465 103.99893 
L 385.324577 105.198383 
L 389.011083 102.748639 
L 392.563505 114.619117 
L 395.991254 115.896767 
L 399.302785 112.694379 
L 402.505722 121.829891 
L 405.606961 123.228557 
L 405.616477 117.001978 
" clip-path="url(#p9b8d1ca34d)" style="fill: none; stroke: #3b528b; stroke-width: 1.3; stroke-linecap: square"/>
   </g>
   <g id="line2d_25">
    <path d="M 67.071023 58.543862 
L 134.77821 69.93289 
L 174.384376 74.101287 
L 202.485398 79.011302 
L 224.282244 84.697548 
L 242.091564 87.510615 
L 257.149129 94.006847 
L 270.192586 102.351564 
L 281.69773 109.78017 
L 291.989432 100.832582 
L 301.299409 109.492894 
L 309.798752 108.50833 
L 317.617389 113.785248 
L 324.856317 112.015572 
L 331.595598 114.393207 
L 337.899774 115.759271 
L 343.821637 121.658033 
L 349.404918 116.278002 
L 354.686248 123.442083 
L 359.696619 124.419946 
L 364.462483 122.414481 
L 369.006596 118.65006 
L 373.348681 125.135757 
L 377.505939 124.503431 
L 381.493465 122.462168 
L 385.324577 125.168767 
L 389.011083 123.153674 
L 392.563505 137.22387 
L 395.991254 138.286278 
L 399.302785 134.889746 
L 402.505722 144.85535 
L 405.606961 148.994511 
L 405.616477 142.33412 
" clip-path="url(#p9b8d1ca34d)" style="fill: none; stroke: #2f6c8e; stroke-width: 1.3; stroke-linecap: square"/>
   </g>
   <g id="line2d_26">
    <path d="M 67.071023 60.25486 
L 134.77821 71.491201 
L 174.384376 77.641355 
L 202.485398 84.956908 
L 224.282244 94.509101 
L 242.091564 99.922018 
L 257.149129 107.274433 
L 270.192586 117.428299 
L 281.69773 125.477033 
L 291.989432 115.283435 
L 301.299409 124.672727 
L 309.798752 123.20006 
L 317.617389 128.051832 
L 324.856317 125.887947 
L 331.595598 130.932506 
L 337.899774 131.539606 
L 343.821637 138.130779 
L 349.404918 131.872655 
L 354.686248 140.206936 
L 359.696619 140.25359 
L 364.462483 137.742324 
L 369.006596 134.56861 
L 373.348681 140.791806 
L 377.505939 142.087627 
L 381.493465 138.572837 
L 385.324577 142.949994 
L 389.011083 141.307552 
L 392.563505 157.637678 
L 395.991254 159.717365 
L 399.302785 154.932138 
L 402.505722 164.497385 
L 405.606961 170.940183 
L 405.616477 164.354553 
" clip-path="url(#p9b8d1ca34d)" style="fill: none; stroke: #25848e; stroke-width: 1.3; stroke-linecap: square"/>
   </g>
   <g id="line2d_27">
    <path d="M 67.071023 61.137739 
L 134.77821 73.820551 
L 174.384376 83.158429 
L 202.485398 95.314295 
L 224.282244 108.841127 
L 242.091564 114.524595 
L 257.149129 123.668181 
L 270.192586 134.695475 
L 281.69773 144.395187 
L 291.989432 131.809843 
L 301.299409 144.178043 
L 309.798752 142.402058 
L 317.617389 147.569005 
L 324.856317 145.117175 
L 331.595598 150.190512 
L 337.899774 151.16499 
L 343.821637 158.064577 
L 349.404918 151.891212 
L 354.686248 161.509557 
L 359.696619 160.275518 
L 364.462483 159.126651 
L 369.006596 155.056747 
L 373.348681 162.93986 
L 377.505939 162.447597 
L 381.493465 158.395838 
L 385.324577 164.770036 
L 389.011083 161.103394 
L 392.563505 179.73977 
L 395.991254 183.952796 
L 399.302785 176.887099 
L 402.505722 187.63503 
L 405.606961 198.362675 
L 405.616477 190.917783 
" clip-path="url(#p9b8d1ca34d)" style="fill: none; stroke: #1e9c89; stroke-width: 1.3; stroke-linecap: square"/>
   </g>
   <g id="line2d_28">
    <path d="M 67.071023 61.674956 
L 134.77821 76.72669 
L 174.384376 90.818335 
L 202.485398 109.150882 
L 224.282244 125.902641 
L 242.091564 132.361158 
L 257.149129 142.888336 
L 270.192586 152.853878 
L 281.69773 163.267316 
L 291.989432 149.27838 
L 301.299409 163.108563 
L 309.798752 162.382594 
L 317.617389 167.99167 
L 324.856317 167.019206 
L 331.595598 171.542353 
L 337.899774 171.208729 
L 343.821637 179.173941 
L 349.404918 174.806802 
L 354.686248 186.571056 
L 359.696619 183.951003 
L 364.462483 181.537464 
L 369.006596 177.79314 
L 373.348681 184.690353 
L 377.505939 186.156204 
L 381.493465 181.330031 
L 385.324577 188.566952 
L 389.011083 184.090449 
L 392.563505 207.681561 
L 395.991254 211.000564 
L 399.302785 202.95193 
L 402.505722 212.754793 
L 405.606961 227.218747 
L 405.616477 219.671397 
" clip-path="url(#p9b8d1ca34d)" style="fill: none; stroke: #2fb47c; stroke-width: 1.3; stroke-linecap: square"/>
   </g>
   <g id="line2d_29">
    <path d="M 67.071023 63.474578 
L 134.77821 82.018827 
L 174.384376 100.742595 
L 202.485398 122.903508 
L 224.282244 140.316986 
L 242.091564 147.264777 
L 257.149129 156.721997 
L 270.192586 165.406053 
L 281.69773 178.260914 
L 291.989432 165.312111 
L 301.299409 178.507159 
L 309.798752 179.186079 
L 317.617389 182.881496 
L 324.856317 182.961485 
L 331.595598 187.53013 
L 337.899774 186.19833 
L 343.821637 194.958396 
L 349.404918 192.312751 
L 354.686248 203.71636 
L 359.696619 201.083854 
L 364.462483 198.790325 
L 369.006596 195.525163 
L 373.348681 200.457886 
L 377.505939 202.461063 
L 381.493465 199.67104 
L 385.324577 205.508831 
L 389.011083 200.637195 
L 392.563505 226.737758 
L 395.991254 231.85855 
L 399.302785 221.651054 
L 402.505722 231.579248 
L 405.606961 249.775232 
L 405.616477 240.913028 
" clip-path="url(#p9b8d1ca34d)" style="fill: none; stroke: #5cc863; stroke-width: 1.3; stroke-linecap: square"/>
   </g>
   <g id="line2d_30">
    <path d="M 67.071023 64.057628 
L 134.77821 84.868987 
L 174.384376 106.849827 
L 202.485398 132.257317 
L 224.282244 149.516704 
L 242.091564 157.01208 
L 257.149129 166.771698 
L 270.192586 176.305939 
L 281.69773 189.630827 
L 291.989432 175.278159 
L 301.299409 190.331624 
L 309.798752 191.271683 
L 317.617389 195.979386 
L 324.856317 195.791669 
L 331.595598 199.252493 
L 337.899774 198.219422 
L 343.821637 207.897504 
L 349.404918 206.431729 
L 354.686248 218.803687 
L 359.696619 213.594806 
L 364.462483 211.390297 
L 369.006596 209.277657 
L 373.348681 215.084923 
L 377.505939 216.335517 
L 381.493465 213.384321 
L 385.324577 218.579172 
L 389.011083 213.989347 
L 392.563505 241.632579 
L 395.991254 249.233848 
L 399.302785 238.631172 
L 402.505722 248.566123 
L 405.606961 267.5004 
L 405.616477 258.657605 
" clip-path="url(#p9b8d1ca34d)" style="fill: none; stroke: #9bd93c; stroke-width: 1.3; stroke-linecap: square"/>
   </g>
   <g id="patch_3">
    <path d="M 50.14375 278.156 
L 50.14375 43.7328 
" style="fill: none; stroke: #000000; stroke-width: 0.8; stroke-linejoin: miter; stroke-linecap: square"/>
   </g>
   <g id="patch_4">
    <path d="M 422.54375 278.156 
L 422.54375 43.7328 
" style="fill: none; stroke: #000000; stroke-width: 0.8; stroke-linejoin: miter; stroke-linecap: square"/>
   </g>
   <g id="patch_5">
    <path d="M 50.14375 278.156 
L 422.54375 278.156 
" style="fill: none; stroke: #000000; stroke-width: 0.8; stroke-linejoin: miter; stroke-linecap: square"/>
   </g>
   <g id="patch_6">
    <path d="M 50.14375 43.7328 
L 422.54375 43.7328 
" style="fill: none; stroke: #000000; stroke-width: 0.8; stroke-linejoin: miter; stroke-linecap: square"/>
   </g>
  </g>
  <g id="axes_2">
   <g id="patch_7">
    <path d="M 476.74375 278.156 
L 849.14375 278.156 
L 849.14375 43.7328 
L 476.74375 43.7328 
L 476.74375 278.156 
z
" style="fill: none"/>
   </g>
   <g id="patch_8">
    <path d="M 527.01775 250.025216 
L 608.94575 250.025216 
Q 618.25575 250.025216 618.25575 244.164636 
L 618.25575 138.674196 
Q 618.25575 132.813616 608.94575 132.813616 
L 527.01775 132.813616 
Q 517.70775 132.813616 517.70775 138.674196 
L 517.70775 244.164636 
Q 517.70775 250.025216 527.01775 250.025216 
L 527.01775 250.025216 
z
" style="fill: none; stroke: #000000; stroke-width: 0.2; stroke-linejoin: miter"/>
   </g>
   <g id="axes_3">
    <g id="line2d_31">
     <path d="M 517.70775 245.723873 
L 618.25575 245.723873 
" clip-path="url(#pb3030ea89f)" style="fill: none; stroke-dasharray: 2.7,1.8; stroke-dashoffset: 0; stroke: #000000; stroke-opacity: 0.8; stroke-width: 0.9"/>
    </g>
    <g id="matplotlib.axis_3">
     <g id="xtick_16">
      <g id="line2d_32">
       <defs>
        <path id="md41f1f9da0" d="M 0 0 
L 0 2.5 
" style="stroke: #000000; stroke-width: 0.8"/>
       </defs>
       <g>
        <use xlink:href="#md41f1f9da0" x="539.287629" y="250.025216" style="stroke: #000000; stroke-width: 0.8"/>
       </g>
      </g>
      <g id="text_12">
       <!-- $\mathdefault{10^{8}}$ -->
       <g transform="translate(532.247629 259.603966) scale(0.08 -0.08)">
        <defs>
         <path id="DejaVuSans-38" d="M 2034 2216 
Q 1584 2216 1326 1975 
Q 1069 1734 1069 1313 
Q 1069 891 1326 650 
Q 1584 409 2034 409 
Q 2484 409 2743 651 
Q 3003 894 3003 1313 
Q 3003 1734 2745 1975 
Q 2488 2216 2034 2216 
z
M 1403 2484 
Q 997 2584 770 2862 
Q 544 3141 544 3541 
Q 544 4100 942 4425 
Q 1341 4750 2034 4750 
Q 2731 4750 3128 4425 
Q 3525 4100 3525 3541 
Q 3525 3141 3298 2862 
Q 3072 2584 2669 2484 
Q 3125 2378 3379 2068 
Q 3634 1759 3634 1313 
Q 3634 634 3220 271 
Q 2806 -91 2034 -91 
Q 1263 -91 848 271 
Q 434 634 434 1313 
Q 434 1759 690 2068 
Q 947 2378 1403 2484 
z
M 1172 3481 
Q 1172 3119 1398 2916 
Q 1625 2713 2034 2713 
Q 2441 2713 2670 2916 
Q 2900 3119 2900 3481 
Q 2900 3844 2670 4047 
Q 2441 4250 2034 4250 
Q 1625 4250 1398 4047 
Q 1172 3844 1172 3481 
z
" transform="scale(0.015625)"/>
        </defs>
        <use xlink:href="#DejaVuSans-31" transform="translate(0 0.765625)"/>
        <use xlink:href="#DejaVuSans-30" transform="translate(63.623047 0.765625)"/>
        <use xlink:href="#DejaVuSans-38" transform="translate(128.203125 39.046875) scale(0.7)"/>
       </g>
      </g>
     </g>
     <g id="xtick_17">
      <g id="line2d_33">
       <g>
        <use xlink:href="#md41f1f9da0" x="584.711927" y="250.025216" style="stroke: #000000; stroke-width: 0.8"/>
       </g>
      </g>
      <g id="text_13">
       <!-- $\mathdefault{10^{9}}$ -->
       <g transform="translate(577.671927 259.603966) scale(0.08 -0.08)">
        <defs>
         <path id="DejaVuSans-39" d="M 703 97 
L 703 672 
Q 941 559 1184 500 
Q 1428 441 1663 441 
Q 2288 441 2617 861 
Q 2947 1281 2994 2138 
Q 2813 1869 2534 1725 
Q 2256 1581 1919 1581 
Q 1219 1581 811 2004 
Q 403 2428 403 3163 
Q 403 3881 828 4315 
Q 1253 4750 1959 4750 
Q 2769 4750 3195 4129 
Q 3622 3509 3622 2328 
Q 3622 1225 3098 567 
Q 2575 -91 1691 -91 
Q 1453 -91 1209 -44 
Q 966 3 703 97 
z
M 1959 2075 
Q 2384 2075 2632 2365 
Q 2881 2656 2881 3163 
Q 2881 3666 2632 3958 
Q 2384 4250 1959 4250 
Q 1534 4250 1286 3958 
Q 1038 3666 1038 3163 
Q 1038 2656 1286 2365 
Q 1534 2075 1959 2075 
z
" transform="scale(0.015625)"/>
        </defs>
        <use xlink:href="#DejaVuSans-31" transform="translate(0 0.765625)"/>
        <use xlink:href="#DejaVuSans-30" transform="translate(63.623047 0.765625)"/>
        <use xlink:href="#DejaVuSans-39" transform="translate(128.203125 39.046875) scale(0.7)"/>
       </g>
      </g>
     </g>
     <g id="text_14">
      <!-- params (N) -->
      <g transform="translate(542.724094 270.10631) scale(0.09 -0.09)">
       <defs>
        <path id="DejaVuSans-6d" d="M 3328 2828 
Q 3544 3216 3844 3400 
Q 4144 3584 4550 3584 
Q 5097 3584 5394 3201 
Q 5691 2819 5691 2113 
L 5691 0 
L 5113 0 
L 5113 2094 
Q 5113 2597 4934 2840 
Q 4756 3084 4391 3084 
Q 3944 3084 3684 2787 
Q 3425 2491 3425 1978 
L 3425 0 
L 2847 0 
L 2847 2094 
Q 2847 2600 2669 2842 
Q 2491 3084 2119 3084 
Q 1678 3084 1418 2786 
Q 1159 2488 1159 1978 
L 1159 0 
L 581 0 
L 581 3500 
L 1159 3500 
L 1159 2956 
Q 1356 3278 1631 3431 
Q 1906 3584 2284 3584 
Q 2666 3584 2933 3390 
Q 3200 3197 3328 2828 
z
" transform="scale(0.015625)"/>
        <path id="DejaVuSans-28" d="M 1984 4856 
Q 1566 4138 1362 3434 
Q 1159 2731 1159 2009 
Q 1159 1288 1364 580 
Q 1569 -128 1984 -844 
L 1484 -844 
Q 1016 -109 783 600 
Q 550 1309 550 2009 
Q 550 2706 781 3412 
Q 1013 4119 1484 4856 
L 1984 4856 
z
" transform="scale(0.015625)"/>
        <path id="DejaVuSans-4e" d="M 628 4666 
L 1478 4666 
L 3547 763 
L 3547 4666 
L 4159 4666 
L 4159 0 
L 3309 0 
L 1241 3903 
L 1241 0 
L 628 0 
L 628 4666 
z
" transform="scale(0.015625)"/>
        <path id="DejaVuSans-29" d="M 513 4856 
L 1013 4856 
Q 1481 4119 1714 3412 
Q 1947 2706 1947 2009 
Q 1947 1309 1714 600 
Q 1481 -109 1013 -844 
L 513 -844 
Q 928 -128 1133 580 
Q 1338 1288 1338 2009 
Q 1338 2731 1133 3434 
Q 928 4138 513 4856 
z
" transform="scale(0.015625)"/>
       </defs>
       <use xlink:href="#DejaVuSans-70"/>
       <use xlink:href="#DejaVuSans-61" transform="translate(63.476562 0)"/>
       <use xlink:href="#DejaVuSans-72" transform="translate(124.755859 0)"/>
       <use xlink:href="#DejaVuSans-61" transform="translate(165.869141 0)"/>
       <use xlink:href="#DejaVuSans-6d" transform="translate(227.148438 0)"/>
       <use xlink:href="#DejaVuSans-73" transform="translate(324.560547 0)"/>
       <use xlink:href="#DejaVuSans-20" transform="translate(376.660156 0)"/>
       <use xlink:href="#DejaVuSans-28" transform="translate(408.447266 0)"/>
       <use xlink:href="#DejaVuSans-4e" transform="translate(447.460938 0)"/>
       <use xlink:href="#DejaVuSans-29" transform="translate(522.265625 0)"/>
      </g>
     </g>
    </g>
    <g id="matplotlib.axis_4">
     <g id="ytick_8">
      <g id="line2d_34">
       <defs>
        <path id="m8ba40cafe8" d="M 0 0 
L -2.5 0 
" style="stroke: #000000; stroke-width: 0.8"/>
       </defs>
       <g>
        <use xlink:href="#m8ba40cafe8" x="517.70775" y="244.725517" style="stroke: #000000; stroke-width: 0.8"/>
       </g>
      </g>
      <g id="text_15">
       <!-- 0.2 -->
       <g transform="translate(501.48525 247.764892) scale(0.08 -0.08)">
        <use xlink:href="#DejaVuSans-30"/>
        <use xlink:href="#DejaVuSans-2e" transform="translate(63.623047 0)"/>
        <use xlink:href="#DejaVuSans-32" transform="translate(95.410156 0)"/>
       </g>
      </g>
     </g>
     <g id="ytick_9">
      <g id="line2d_35">
       <g>
        <use xlink:href="#m8ba40cafe8" x="517.70775" y="220.139311" style="stroke: #000000; stroke-width: 0.8"/>
       </g>
      </g>
      <g id="text_16">
       <!-- 0.4 -->
       <g transform="translate(501.48525 223.178686) scale(0.08 -0.08)">
        <use xlink:href="#DejaVuSans-30"/>
        <use xlink:href="#DejaVuSans-2e" transform="translate(63.623047 0)"/>
        <use xlink:href="#DejaVuSans-34" transform="translate(95.410156 0)"/>
       </g>
      </g>
     </g>
     <g id="ytick_10">
      <g id="line2d_36">
       <g>
        <use xlink:href="#m8ba40cafe8" x="517.70775" y="195.553105" style="stroke: #000000; stroke-width: 0.8"/>
       </g>
      </g>
      <g id="text_17">
       <!-- 0.6 -->
       <g transform="translate(501.48525 198.59248) scale(0.08 -0.08)">
        <defs>
         <path id="DejaVuSans-36" d="M 2113 2584 
Q 1688 2584 1439 2293 
Q 1191 2003 1191 1497 
Q 1191 994 1439 701 
Q 1688 409 2113 409 
Q 2538 409 2786 701 
Q 3034 994 3034 1497 
Q 3034 2003 2786 2293 
Q 2538 2584 2113 2584 
z
M 3366 4563 
L 3366 3988 
Q 3128 4100 2886 4159 
Q 2644 4219 2406 4219 
Q 1781 4219 1451 3797 
Q 1122 3375 1075 2522 
Q 1259 2794 1537 2939 
Q 1816 3084 2150 3084 
Q 2853 3084 3261 2657 
Q 3669 2231 3669 1497 
Q 3669 778 3244 343 
Q 2819 -91 2113 -91 
Q 1303 -91 875 529 
Q 447 1150 447 2328 
Q 447 3434 972 4092 
Q 1497 4750 2381 4750 
Q 2619 4750 2861 4703 
Q 3103 4656 3366 4563 
z
" transform="scale(0.015625)"/>
        </defs>
        <use xlink:href="#DejaVuSans-30"/>
        <use xlink:href="#DejaVuSans-2e" transform="translate(63.623047 0)"/>
        <use xlink:href="#DejaVuSans-36" transform="translate(95.410156 0)"/>
       </g>
      </g>
     </g>
     <g id="ytick_11">
      <g id="line2d_37">
       <g>
        <use xlink:href="#m8ba40cafe8" x="517.70775" y="170.966898" style="stroke: #000000; stroke-width: 0.8"/>
       </g>
      </g>
      <g id="text_18">
       <!-- 0.8 -->
       <g transform="translate(501.48525 174.006273) scale(0.08 -0.08)">
        <use xlink:href="#DejaVuSans-30"/>
        <use xlink:href="#DejaVuSans-2e" transform="translate(63.623047 0)"/>
        <use xlink:href="#DejaVuSans-38" transform="translate(95.410156 0)"/>
       </g>
      </g>
     </g>
     <g id="ytick_12">
      <g id="line2d_38">
       <g>
        <use xlink:href="#m8ba40cafe8" x="517.70775" y="146.380692" style="stroke: #000000; stroke-width: 0.8"/>
       </g>
      </g>
      <g id="text_19">
       <!-- 1.0 -->
       <g transform="translate(501.48525 149.420067) scale(0.08 -0.08)">
        <use xlink:href="#DejaVuSans-31"/>
        <use xlink:href="#DejaVuSans-2e" transform="translate(63.623047 0)"/>
        <use xlink:href="#DejaVuSans-30" transform="translate(95.410156 0)"/>
       </g>
      </g>
     </g>
    </g>
    <g id="line2d_39">
     <path d="M 522.278114 135.857656 
L 528.249443 141.359021 
L 534.680105 146.975896 
L 541.110768 152.290473 
L 547.54143 157.319022 
L 553.972093 162.076936 
L 560.862088 166.890912 
L 567.752083 171.427838 
L 574.642079 175.703658 
L 581.991407 179.993652 
L 589.340736 184.020807 
L 596.690064 187.801227 
L 604.498726 191.564466 
L 612.307387 195.083208 
L 613.685386 195.679994 
L 613.685386 195.679994 
" clip-path="url(#pb3030ea89f)" style="fill: none; stroke: #333333; stroke-opacity: 0.92; stroke-width: 1.3; stroke-linecap: square"/>
    </g>
    <g id="text_20">
     <!-- $L_\infty = 0.192$ -->
     <g transform="translate(622.25575 247.931373) scale(0.08 -0.08)">
      <defs>
       <path id="DejaVuSans-Oblique-4c" d="M 1075 4666 
L 1709 4666 
L 909 525 
L 3181 525 
L 3078 0 
L 172 0 
L 1075 4666 
z
" transform="scale(0.015625)"/>
       <path id="DejaVuSans-221e" d="M 2916 1091 
Q 2819 1203 2666 1466 
Q 2456 1091 2272 925 
Q 2041 725 1681 725 
Q 1259 725 981 1041 
Q 688 1372 688 1919 
Q 688 2444 981 2800 
Q 1244 3116 1688 3116 
Q 1916 3116 2084 3022 
Q 2281 2919 2416 2741 
Q 2541 2581 2666 2366 
Q 2875 2741 3059 2906 
Q 3291 3106 3650 3106 
Q 4072 3106 4350 2791 
Q 4644 2459 4644 1913 
Q 4644 1388 4350 1031 
Q 4088 716 3644 716 
Q 3416 716 3247 809 
Q 3078 894 2916 1091 
z
M 1647 1134 
Q 2163 1134 2472 1884 
Q 2075 2703 1647 2703 
Q 1334 2703 1175 2478 
Q 1003 2238 1003 1919 
Q 1003 1569 1175 1353 
Q 1350 1134 1647 1134 
z
M 3684 2697 
Q 3219 2697 2859 1947 
Q 3253 1128 3684 1128 
Q 3997 1128 4156 1353 
Q 4328 1594 4328 1913 
Q 4328 2263 4156 2478 
Q 3981 2697 3684 2697 
z
" transform="scale(0.015625)"/>
       <path id="DejaVuSans-3d" d="M 678 2906 
L 4684 2906 
L 4684 2381 
L 678 2381 
L 678 2906 
z
M 678 1631 
L 4684 1631 
L 4684 1100 
L 678 1100 
L 678 1631 
z
" transform="scale(0.015625)"/>
      </defs>
      <use xlink:href="#DejaVuSans-Oblique-4c" transform="translate(0 0.78125)"/>
      <use xlink:href="#DejaVuSans-221e" transform="translate(55.712891 -15.625) scale(0.7)"/>
      <use xlink:href="#DejaVuSans-3d" transform="translate(136.240234 0.78125)"/>
      <use xlink:href="#DejaVuSans-30" transform="translate(239.511719 0.78125)"/>
      <use xlink:href="#DejaVuSans-2e" transform="translate(303.134766 0.78125)"/>
      <use xlink:href="#DejaVuSans-31" transform="translate(334.921875 0.78125)"/>
      <use xlink:href="#DejaVuSans-39" transform="translate(398.544922 0.78125)"/>
      <use xlink:href="#DejaVuSans-32" transform="translate(460.417969 0.78125)"/>
     </g>
    </g>
    <g id="PathCollection_1">
     <defs>
      <path id="mef9d382834" d="M 0 2.828427 
C 0.750108 2.828427 1.469594 2.530406 2 2 
C 2.530406 1.469594 2.828427 0.750108 2.828427 0 
C 2.828427 -0.750108 2.530406 -1.469594 2 -2 
C 1.469594 -2.530406 0.750108 -2.828427 0 -2.828427 
C -0.750108 -2.828427 -1.469594 -2.530406 -2 -2 
C -2.530406 -1.469594 -2.828427 -0.750108 -2.828427 0 
C -2.828427 0.750108 -2.530406 1.469594 -2 2 
C -1.469594 2.530406 -0.750108 2.828427 0 2.828427 
z
" style="stroke: #000000; stroke-width: 0.5"/>
     </defs>
     <g clip-path="url(#pb3030ea89f)">
      <use xlink:href="#mef9d382834" x="523.923026" y="138.190295" style="fill: #463480; stroke: #000000; stroke-width: 0.5"/>
     </g>
    </g>
    <g id="PathCollection_2">
     <defs>
      <path id="md7e15ef79a" d="M 0 2.828427 
C 0.750108 2.828427 1.469594 2.530406 2 2 
C 2.530406 1.469594 2.828427 0.750108 2.828427 0 
C 2.828427 -0.750108 2.530406 -1.469594 2 -2 
C 1.469594 -2.530406 0.750108 -2.828427 0 -2.828427 
C -0.750108 -2.828427 -1.469594 -2.530406 -2 -2 
C -2.530406 -1.469594 -2.828427 -0.750108 -2.828427 0 
C -2.828427 0.750108 -2.530406 1.469594 -2 2 
C -1.469594 2.530406 -0.750108 2.828427 0 2.828427 
z
" style="stroke: #000000; stroke-width: 0.5"/>
     </defs>
     <g clip-path="url(#pb3030ea89f)">
      <use xlink:href="#md7e15ef79a" x="533.749015" y="144.669528" style="fill: #3b528b; stroke: #000000; stroke-width: 0.5"/>
     </g>
    </g>
    <g id="PathCollection_3">
     <defs>
      <path id="m1efe5421c6" d="M 0 2.828427 
C 0.750108 2.828427 1.469594 2.530406 2 2 
C 2.530406 1.469594 2.828427 0.750108 2.828427 0 
C 2.828427 -0.750108 2.530406 -1.469594 2 -2 
C 1.469594 -2.530406 0.750108 -2.828427 0 -2.828427 
C -0.750108 -2.828427 -1.469594 -2.530406 -2 -2 
C -2.530406 -1.469594 -2.828427 -0.750108 -2.828427 0 
C -2.828427 0.750108 -2.530406 1.469594 -2 2 
C -1.469594 2.530406 -0.750108 2.828427 0 2.828427 
z
" style="stroke: #000000; stroke-width: 0.5"/>
     </defs>
     <g clip-path="url(#pb3030ea89f)">
      <use xlink:href="#m1efe5421c6" x="544.231702" y="155.485106" style="fill: #2f6c8e; stroke: #000000; stroke-width: 0.5"/>
     </g>
    </g>
    <g id="PathCollection_4">
     <defs>
      <path id="m11422e5a36" d="M 0 2.828427 
C 0.750108 2.828427 1.469594 2.530406 2 2 
C 2.530406 1.469594 2.828427 0.750108 2.828427 0 
C 2.828427 -0.750108 2.530406 -1.469594 2 -2 
C 1.469594 -2.530406 0.750108 -2.828427 0 -2.828427 
C -0.750108 -2.828427 -1.469594 -2.530406 -2 -2 
C -2.530406 -1.469594 -2.828427 -0.750108 -2.828427 0 
C -2.828427 0.750108 -2.530406 1.469594 -2 2 
C -1.469594 2.530406 -0.750108 2.828427 0 2.828427 
z
" style="stroke: #000000; stroke-width: 0.5"/>
     </defs>
     <g clip-path="url(#pb3030ea89f)">
      <use xlink:href="#m11422e5a36" x="557.742738" y="164.254958" style="fill: #25848e; stroke: #000000; stroke-width: 0.5"/>
     </g>
    </g>
    <g id="PathCollection_5">
     <defs>
      <path id="mfd4fefa704" d="M 0 2.828427 
C 0.750108 2.828427 1.469594 2.530406 2 2 
C 2.530406 1.469594 2.828427 0.750108 2.828427 0 
C 2.828427 -0.750108 2.530406 -1.469594 2 -2 
C 1.469594 -2.530406 0.750108 -2.828427 0 -2.828427 
C -0.750108 -2.828427 -1.469594 -2.530406 -2 -2 
C -2.530406 -1.469594 -2.828427 -0.750108 -2.828427 0 
C -2.828427 0.750108 -2.530406 1.469594 -2 2 
C -1.469594 2.530406 -0.750108 2.828427 0 2.828427 
z
" style="stroke: #000000; stroke-width: 0.5"/>
     </defs>
     <g clip-path="url(#pb3030ea89f)">
      <use xlink:href="#mfd4fefa704" x="570.061427" y="173.477641" style="fill: #1e9c89; stroke: #000000; stroke-width: 0.5"/>
     </g>
    </g>
    <g id="PathCollection_6">
     <defs>
      <path id="ma48fc05d12" d="M 0 2.828427 
C 0.750108 2.828427 1.469594 2.530406 2 2 
C 2.530406 1.469594 2.828427 0.750108 2.828427 0 
C 2.828427 -0.750108 2.530406 -1.469594 2 -2 
C 1.469594 -2.530406 0.750108 -2.828427 0 -2.828427 
C -0.750108 -2.828427 -1.469594 -2.530406 -2 -2 
C -2.530406 -1.469594 -2.828427 -0.750108 -2.828427 0 
C -2.828427 0.750108 -2.530406 1.469594 -2 2 
C -1.469594 2.530406 -0.750108 2.828427 0 2.828427 
z
" style="stroke: #000000; stroke-width: 0.5"/>
     </defs>
     <g clip-path="url(#pb3030ea89f)">
      <use xlink:href="#ma48fc05d12" x="586.961133" y="182.98441" style="fill: #2fb47c; stroke: #000000; stroke-width: 0.5"/>
     </g>
    </g>
    <g id="PathCollection_7">
     <defs>
      <path id="m6e97ad4cec" d="M 0 2.828427 
C 0.750108 2.828427 1.469594 2.530406 2 2 
C 2.530406 1.469594 2.828427 0.750108 2.828427 0 
C 2.828427 -0.750108 2.530406 -1.469594 2 -2 
C 1.469594 -2.530406 0.750108 -2.828427 0 -2.828427 
C -0.750108 -2.828427 -1.469594 -2.530406 -2 -2 
C -2.530406 -1.469594 -2.828427 -0.750108 -2.828427 0 
C -2.828427 0.750108 -2.530406 1.469594 -2 2 
C -1.469594 2.530406 -0.750108 2.828427 0 2.828427 
z
" style="stroke: #000000; stroke-width: 0.5"/>
     </defs>
     <g clip-path="url(#pb3030ea89f)">
      <use xlink:href="#m6e97ad4cec" x="600.896044" y="189.542814" style="fill: #5cc863; stroke: #000000; stroke-width: 0.5"/>
     </g>
    </g>
    <g id="PathCollection_8">
     <defs>
      <path id="m9e579c7fa4" d="M 0 2.828427 
C 0.750108 2.828427 1.469594 2.530406 2 2 
C 2.530406 1.469594 2.828427 0.750108 2.828427 0 
C 2.828427 -0.750108 2.530406 -1.469594 2 -2 
C 1.469594 -2.530406 0.750108 -2.828427 0 -2.828427 
C -0.750108 -2.828427 -1.469594 -2.530406 -2 -2 
C -2.530406 -1.469594 -2.828427 -0.750108 -2.828427 0 
C -2.828427 0.750108 -2.530406 1.469594 -2 2 
C -1.469594 2.530406 -0.750108 2.828427 0 2.828427 
z
" style="stroke: #000000; stroke-width: 0.5"/>
     </defs>
     <g clip-path="url(#pb3030ea89f)">
      <use xlink:href="#m9e579c7fa4" x="612.167136" y="195.006481" style="fill: #9bd93c; stroke: #000000; stroke-width: 0.5"/>
     </g>
    </g>
    <g id="text_21">
     <!-- $L(N) = A\,N^{-\alpha} + L_\infty$ -->
     <g style="fill: #262626" transform="translate(534.18175 229.725194) scale(0.08 -0.08)">
      <defs>
       <path id="DejaVuSans-Oblique-4e" d="M 1081 4666 
L 1931 4666 
L 3219 666 
L 4000 4666 
L 4616 4666 
L 3706 0 
L 2853 0 
L 1569 4025 
L 788 0 
L 172 0 
L 1081 4666 
z
" transform="scale(0.015625)"/>
       <path id="DejaVuSans-Oblique-41" d="M 2356 4666 
L 3072 4666 
L 3938 0 
L 3278 0 
L 3084 1197 
L 984 1197 
L 325 0 
L -341 0 
L 2356 4666 
z
M 2584 4044 
L 1275 1722 
L 2988 1722 
L 2584 4044 
z
" transform="scale(0.015625)"/>
       <path id="DejaVuSans-2212" d="M 678 2272 
L 4684 2272 
L 4684 1741 
L 678 1741 
L 678 2272 
z
" transform="scale(0.015625)"/>
       <path id="DejaVuSans-Oblique-3b1" d="M 2619 1628 
L 2622 2350 
Q 2625 3088 2069 3091 
Q 1653 3094 1394 2747 
Q 1069 2319 959 1747 
Q 825 1059 994 731 
Q 1169 397 1547 397 
Q 1966 397 2319 1063 
L 2619 1628 
z
M 2166 3578 
Q 3141 3594 3128 2584 
Q 3128 2584 3616 3500 
L 4128 3500 
L 3119 1603 
L 3109 919 
Q 3109 766 3194 638 
Q 3291 488 3391 488 
L 3669 488 
L 3575 0 
L 3228 0 
Q 2934 0 2722 263 
Q 2622 394 2619 669 
Q 2416 334 2066 50 
Q 1900 -81 1453 -78 
Q 722 -72 456 397 
Q 184 884 353 1747 
Q 534 2675 1009 3097 
Q 1544 3569 2166 3578 
z
" transform="scale(0.015625)"/>
       <path id="DejaVuSans-2b" d="M 2944 4013 
L 2944 2272 
L 4684 2272 
L 4684 1741 
L 2944 1741 
L 2944 0 
L 2419 0 
L 2419 1741 
L 678 1741 
L 678 2272 
L 2419 2272 
L 2419 4013 
L 2944 4013 
z
" transform="scale(0.015625)"/>
      </defs>
      <use xlink:href="#DejaVuSans-Oblique-4c" transform="translate(0 0.409375)"/>
      <use xlink:href="#DejaVuSans-28" transform="translate(55.712891 0.409375)"/>
      <use xlink:href="#DejaVuSans-Oblique-4e" transform="translate(94.726562 0.409375)"/>
      <use xlink:href="#DejaVuSans-29" transform="translate(169.53125 0.409375)"/>
      <use xlink:href="#DejaVuSans-3d" transform="translate(228.027344 0.409375)"/>
      <use xlink:href="#DejaVuSans-Oblique-41" transform="translate(331.298828 0.409375)"/>
      <use xlink:href="#DejaVuSans-Oblique-4e" transform="translate(415.942708 0.409375)"/>
      <use xlink:href="#DejaVuSans-2212" transform="translate(497.764166 38.690625) scale(0.7)"/>
      <use xlink:href="#DejaVuSans-Oblique-3b1" transform="translate(556.41651 38.690625) scale(0.7)"/>
      <use xlink:href="#DejaVuSans-2b" transform="translate(624.775885 0.409375)"/>
      <use xlink:href="#DejaVuSans-Oblique-4c" transform="translate(728.047369 0.409375)"/>
      <use xlink:href="#DejaVuSans-221e" transform="translate(783.76026 -15.996875) scale(0.7)"/>
     </g>
     <!-- $A = 17.6,\ \alpha = 0.170$ -->
     <g style="fill: #262626" transform="translate(529.06175 238.683444) scale(0.08 -0.08)">
      <defs>
       <path id="DejaVuSans-37" d="M 525 4666 
L 3525 4666 
L 3525 4397 
L 1831 0 
L 1172 0 
L 2766 4134 
L 525 4134 
L 525 4666 
z
" transform="scale(0.015625)"/>
       <path id="DejaVuSans-2c" d="M 750 794 
L 1409 794 
L 1409 256 
L 897 -744 
L 494 -744 
L 750 256 
L 750 794 
z
" transform="scale(0.015625)"/>
      </defs>
      <use xlink:href="#DejaVuSans-Oblique-41" transform="translate(0 0.78125)"/>
      <use xlink:href="#DejaVuSans-3d" transform="translate(87.890625 0.78125)"/>
      <use xlink:href="#DejaVuSans-31" transform="translate(191.162109 0.78125)"/>
      <use xlink:href="#DejaVuSans-37" transform="translate(254.785156 0.78125)"/>
      <use xlink:href="#DejaVuSans-2e" transform="translate(318.408203 0.78125)"/>
      <use xlink:href="#DejaVuSans-36" transform="translate(350.195312 0.78125)"/>
      <use xlink:href="#DejaVuSans-2c" transform="translate(413.818359 0.78125)"/>
      <use xlink:href="#DejaVuSans-Oblique-3b1" transform="translate(497.558269 0.78125)"/>
      <use xlink:href="#DejaVuSans-3d" transform="translate(582.95866 0.78125)"/>
      <use xlink:href="#DejaVuSans-30" transform="translate(686.230144 0.78125)"/>
      <use xlink:href="#DejaVuSans-2e" transform="translate(749.853191 0.78125)"/>
      <use xlink:href="#DejaVuSans-31" transform="translate(781.6403 0.78125)"/>
      <use xlink:href="#DejaVuSans-37" transform="translate(845.263347 0.78125)"/>
      <use xlink:href="#DejaVuSans-30" transform="translate(908.886394 0.78125)"/>
     </g>
    </g>
   </g>
   <g id="matplotlib.axis_5">
    <g id="xtick_18">
     <g id="line2d_40">
      <g>
       <use xlink:href="#m1a30a2f16b" x="532.266554" y="278.156" style="stroke: #000000; stroke-width: 0.8"/>
      </g>
     </g>
     <g id="text_22">
      <!-- $\mathdefault{10^{4}}$ -->
      <g transform="translate(523.466554 292.754437) scale(0.1 -0.1)">
       <use xlink:href="#DejaVuSans-31" transform="translate(0 0.684375)"/>
       <use xlink:href="#DejaVuSans-30" transform="translate(63.623047 0.684375)"/>
       <use xlink:href="#DejaVuSans-34" transform="translate(128.203125 38.965625) scale(0.7)"/>
      </g>
     </g>
    </g>
    <g id="xtick_19">
     <g id="line2d_41">
      <g>
       <use xlink:href="#m1a30a2f16b" x="757.184963" y="278.156" style="stroke: #000000; stroke-width: 0.8"/>
      </g>
     </g>
     <g id="text_23">
      <!-- $\mathdefault{10^{5}}$ -->
      <g transform="translate(748.384963 292.754437) scale(0.1 -0.1)">
       <use xlink:href="#DejaVuSans-31" transform="translate(0 0.684375)"/>
       <use xlink:href="#DejaVuSans-30" transform="translate(63.623047 0.684375)"/>
       <use xlink:href="#DejaVuSans-35" transform="translate(128.203125 38.965625) scale(0.7)"/>
      </g>
     </g>
    </g>
    <g id="xtick_20">
     <g id="line2d_42">
      <g>
       <use xlink:href="#m4e130daac1" x="482.368686" y="278.156" style="stroke: #000000; stroke-width: 0.6"/>
      </g>
     </g>
    </g>
    <g id="xtick_21">
     <g id="line2d_43">
      <g>
       <use xlink:href="#m4e130daac1" x="497.426252" y="278.156" style="stroke: #000000; stroke-width: 0.6"/>
      </g>
     </g>
    </g>
    <g id="xtick_22">
     <g id="line2d_44">
      <g>
       <use xlink:href="#m4e130daac1" x="510.469708" y="278.156" style="stroke: #000000; stroke-width: 0.6"/>
      </g>
     </g>
    </g>
    <g id="xtick_23">
     <g id="line2d_45">
      <g>
       <use xlink:href="#m4e130daac1" x="521.974852" y="278.156" style="stroke: #000000; stroke-width: 0.6"/>
      </g>
     </g>
    </g>
    <g id="xtick_24">
     <g id="line2d_46">
      <g>
       <use xlink:href="#m4e130daac1" x="599.973742" y="278.156" style="stroke: #000000; stroke-width: 0.6"/>
      </g>
     </g>
    </g>
    <g id="xtick_25">
     <g id="line2d_47">
      <g>
       <use xlink:href="#m4e130daac1" x="639.579908" y="278.156" style="stroke: #000000; stroke-width: 0.6"/>
      </g>
     </g>
    </g>
    <g id="xtick_26">
     <g id="line2d_48">
      <g>
       <use xlink:href="#m4e130daac1" x="667.68093" y="278.156" style="stroke: #000000; stroke-width: 0.6"/>
      </g>
     </g>
    </g>
    <g id="xtick_27">
     <g id="line2d_49">
      <g>
       <use xlink:href="#m4e130daac1" x="689.477776" y="278.156" style="stroke: #000000; stroke-width: 0.6"/>
      </g>
     </g>
    </g>
    <g id="xtick_28">
     <g id="line2d_50">
      <g>
       <use xlink:href="#m4e130daac1" x="707.287095" y="278.156" style="stroke: #000000; stroke-width: 0.6"/>
      </g>
     </g>
    </g>
    <g id="xtick_29">
     <g id="line2d_51">
      <g>
       <use xlink:href="#m4e130daac1" x="722.344661" y="278.156" style="stroke: #000000; stroke-width: 0.6"/>
      </g>
     </g>
    </g>
    <g id="xtick_30">
     <g id="line2d_52">
      <g>
       <use xlink:href="#m4e130daac1" x="735.388117" y="278.156" style="stroke: #000000; stroke-width: 0.6"/>
      </g>
     </g>
    </g>
    <g id="xtick_31">
     <g id="line2d_53">
      <g>
       <use xlink:href="#m4e130daac1" x="746.893261" y="278.156" style="stroke: #000000; stroke-width: 0.6"/>
      </g>
     </g>
    </g>
    <g id="xtick_32">
     <g id="line2d_54">
      <g>
       <use xlink:href="#m4e130daac1" x="824.892151" y="278.156" style="stroke: #000000; stroke-width: 0.6"/>
      </g>
     </g>
    </g>
    <g id="text_24">
     <!-- step -->
     <g transform="translate(652.128125 302.432563) scale(0.1 -0.1)">
      <use xlink:href="#DejaVuSans-73"/>
      <use xlink:href="#DejaVuSans-74" transform="translate(52.099609 0)"/>
      <use xlink:href="#DejaVuSans-65" transform="translate(91.308594 0)"/>
      <use xlink:href="#DejaVuSans-70" transform="translate(152.832031 0)"/>
     </g>
    </g>
   </g>
   <g id="matplotlib.axis_6">
    <g id="ytick_13">
     <g id="line2d_55">
      <g>
       <use xlink:href="#m43822bf700" x="476.74375" y="116.332429" style="stroke: #000000; stroke-width: 0.8"/>
      </g>
     </g>
     <g id="text_25">
      <!-- 1.00 -->
      <g transform="translate(447.478125 120.131648) scale(0.1 -0.1)">
       <use xlink:href="#DejaVuSans-31"/>
       <use xlink:href="#DejaVuSans-2e" transform="translate(63.623047 0)"/>
       <use xlink:href="#DejaVuSans-30" transform="translate(95.410156 0)"/>
       <use xlink:href="#DejaVuSans-30" transform="translate(159.033203 0)"/>
      </g>
     </g>
    </g>
    <g id="ytick_14">
     <g id="line2d_56">
      <g>
       <use xlink:href="#me9ce118f43" x="476.74375" y="269.717483" style="stroke: #000000; stroke-width: 0.6"/>
      </g>
     </g>
     <g id="text_26">
      <!-- 0.6 -->
      <g transform="translate(455.440625 273.516701) scale(0.1 -0.1)">
       <use xlink:href="#DejaVuSans-30"/>
       <use xlink:href="#DejaVuSans-2e" transform="translate(63.623047 0)"/>
       <use xlink:href="#DejaVuSans-36" transform="translate(95.410156 0)"/>
      </g>
     </g>
    </g>
    <g id="ytick_15">
     <g id="line2d_57">
      <g>
       <use xlink:href="#me9ce118f43" x="476.74375" y="223.430826" style="stroke: #000000; stroke-width: 0.6"/>
      </g>
     </g>
     <g id="text_27">
      <!-- 0.7 -->
      <g transform="translate(455.440625 227.230045) scale(0.1 -0.1)">
       <use xlink:href="#DejaVuSans-30"/>
       <use xlink:href="#DejaVuSans-2e" transform="translate(63.623047 0)"/>
       <use xlink:href="#DejaVuSans-37" transform="translate(95.410156 0)"/>
      </g>
     </g>
    </g>
    <g id="ytick_16">
     <g id="line2d_58">
      <g>
       <use xlink:href="#me9ce118f43" x="476.74375" y="183.3355" style="stroke: #000000; stroke-width: 0.6"/>
      </g>
     </g>
     <g id="text_28">
      <!-- 0.8 -->
      <g transform="translate(455.440625 187.134719) scale(0.1 -0.1)">
       <use xlink:href="#DejaVuSans-30"/>
       <use xlink:href="#DejaVuSans-2e" transform="translate(63.623047 0)"/>
       <use xlink:href="#DejaVuSans-38" transform="translate(95.410156 0)"/>
      </g>
     </g>
    </g>
    <g id="ytick_17">
     <g id="line2d_59">
      <g>
       <use xlink:href="#me9ce118f43" x="476.74375" y="147.968917" style="stroke: #000000; stroke-width: 0.6"/>
      </g>
     </g>
     <g id="text_29">
      <!-- 0.9 -->
      <g transform="translate(455.440625 151.768135) scale(0.1 -0.1)">
       <use xlink:href="#DejaVuSans-30"/>
       <use xlink:href="#DejaVuSans-2e" transform="translate(63.623047 0)"/>
       <use xlink:href="#DejaVuSans-39" transform="translate(95.410156 0)"/>
      </g>
     </g>
    </g>
    <g id="text_30">
     <!-- val loss -->
     <g transform="translate(441.398437 179.603775) rotate(-90) scale(0.1 -0.1)">
      <defs>
       <path id="DejaVuSans-76" d="M 191 3500 
L 800 3500 
L 1894 563 
L 2988 3500 
L 3597 3500 
L 2284 0 
L 1503 0 
L 191 3500 
z
" transform="scale(0.015625)"/>
      </defs>
      <use xlink:href="#DejaVuSans-76"/>
      <use xlink:href="#DejaVuSans-61" transform="translate(59.179688 0)"/>
      <use xlink:href="#DejaVuSans-6c" transform="translate(120.458984 0)"/>
      <use xlink:href="#DejaVuSans-20" transform="translate(148.242188 0)"/>
      <use xlink:href="#DejaVuSans-6c" transform="translate(180.029297 0)"/>
      <use xlink:href="#DejaVuSans-6f" transform="translate(207.8125 0)"/>
      <use xlink:href="#DejaVuSans-73" transform="translate(268.994141 0)"/>
      <use xlink:href="#DejaVuSans-73" transform="translate(321.09375 0)"/>
     </g>
    </g>
   </g>
   <g id="patch_9">
    <path d="M 476.74375 278.156 
L 476.74375 43.7328 
" style="fill: none; stroke: #000000; stroke-width: 0.8; stroke-linejoin: miter; stroke-linecap: square"/>
   </g>
   <g id="patch_10">
    <path d="M 849.14375 278.156 
L 849.14375 43.7328 
" style="fill: none; stroke: #000000; stroke-width: 0.8; stroke-linejoin: miter; stroke-linecap: square"/>
   </g>
   <g id="patch_11">
    <path d="M 476.74375 278.156 
L 849.14375 278.156 
" style="fill: none; stroke: #000000; stroke-width: 0.8; stroke-linejoin: miter; stroke-linecap: square"/>
   </g>
   <g id="patch_12">
    <path d="M 476.74375 43.7328 
L 849.14375 43.7328 
" style="fill: none; stroke: #000000; stroke-width: 0.8; stroke-linejoin: miter; stroke-linecap: square"/>
   </g>
   <g id="line2d_60">
    <path d="M 493.671023 54.3884 
L 561.37821 59.848546 
L 600.984376 62.041353 
L 629.085398 64.773223 
L 650.882244 66.317713 
L 668.691564 68.085403 
L 683.749129 69.939736 
L 696.792586 71.708549 
L 708.29773 73.092004 
L 718.589432 74.060488 
L 727.899409 75.333227 
L 736.398752 76.963319 
L 744.217389 78.562346 
L 751.456317 80.576745 
L 758.195598 80.670214 
L 764.499774 81.289032 
L 770.421637 82.104752 
L 776.004918 83.642756 
L 781.286248 83.970317 
L 786.296619 85.19452 
L 791.062483 84.879676 
L 795.606596 85.390876 
L 799.948681 85.861128 
L 804.105939 87.827686 
L 808.093465 87.83654 
L 811.924577 88.796269 
L 815.611083 90.643212 
L 819.163505 91.968477 
L 822.591254 93.167038 
L 825.902785 94.976332 
L 829.105722 96.067345 
L 832.206961 96.968536 
L 832.216477 96.964979 
" clip-path="url(#pebc299f6a2)" style="fill: none; stroke: #463480; stroke-width: 1.3; stroke-linecap: square"/>
   </g>
   <g id="line2d_61">
    <path d="M 493.671023 55.218838 
L 561.37821 60.659093 
L 600.984376 62.968525 
L 629.085398 66.746711 
L 650.882244 69.257022 
L 668.691564 72.597342 
L 683.749129 75.685792 
L 696.792586 78.42195 
L 708.29773 80.952737 
L 718.589432 82.38185 
L 727.899409 83.50879 
L 736.398752 87.121171 
L 744.217389 88.225814 
L 751.456317 90.803677 
L 758.195598 91.142702 
L 764.499774 91.733308 
L 770.421637 92.940234 
L 776.004918 94.045827 
L 781.286248 94.564697 
L 786.296619 96.272718 
L 791.062483 96.066341 
L 795.606596 98.128942 
L 799.948681 97.284899 
L 804.105939 98.821449 
L 808.093465 99.302542 
L 811.924577 100.303592 
L 815.611083 102.528598 
L 819.163505 104.654166 
L 822.591254 106.81344 
L 825.902785 109.398117 
L 829.105722 111.112817 
L 832.206961 112.187209 
L 832.216477 112.181596 
" clip-path="url(#pebc299f6a2)" style="fill: none; stroke: #3b528b; stroke-width: 1.3; stroke-linecap: square"/>
   </g>
   <g id="line2d_62">
    <path d="M 493.671023 56.466177 
L 561.37821 61.783739 
L 600.984376 65.164608 
L 629.085398 69.545052 
L 650.882244 74.392914 
L 668.691564 80.321784 
L 683.749129 86.127992 
L 696.792586 90.574018 
L 708.29773 94.304468 
L 718.589432 97.366546 
L 727.899409 99.797721 
L 736.398752 103.49908 
L 744.217389 105.673248 
L 751.456317 108.201644 
L 758.195598 109.765957 
L 764.499774 110.918381 
L 770.421637 112.770823 
L 776.004918 114.683601 
L 781.286248 115.606922 
L 786.296619 116.984621 
L 791.062483 117.623242 
L 795.606596 119.378234 
L 799.948681 120.131791 
L 804.105939 120.572033 
L 808.093465 120.91461 
L 811.924577 122.899831 
L 815.611083 126.16718 
L 819.163505 129.451049 
L 822.591254 132.150722 
L 825.902785 135.370576 
L 829.105722 137.956654 
L 832.206961 139.436436 
L 832.216477 139.437248 
" clip-path="url(#pebc299f6a2)" style="fill: none; stroke: #2f6c8e; stroke-width: 1.3; stroke-linecap: square"/>
   </g>
   <g id="line2d_63">
    <path d="M 493.671023 57.613082 
L 561.37821 62.828614 
L 600.984376 67.556768 
L 629.085398 75.849436 
L 650.882244 84.330635 
L 668.691564 93.365529 
L 683.749129 100.510832 
L 696.792586 105.885023 
L 708.29773 109.83443 
L 718.589432 113.378859 
L 727.899409 117.004119 
L 736.398752 120.280673 
L 744.217389 122.080555 
L 751.456317 125.960145 
L 758.195598 126.636278 
L 764.499774 128.736583 
L 770.421637 130.247198 
L 776.004918 132.32056 
L 781.286248 133.904063 
L 786.296619 135.503821 
L 791.062483 135.475378 
L 795.606596 137.337462 
L 799.948681 138.328444 
L 804.105939 139.447106 
L 808.093465 140.416016 
L 811.924577 142.915653 
L 815.611083 146.593085 
L 819.163505 150.612663 
L 822.591254 154.082841 
L 825.902785 158.409069 
L 829.105722 161.538947 
L 832.206961 163.508146 
L 832.216477 163.511476 
" clip-path="url(#pebc299f6a2)" style="fill: none; stroke: #25848e; stroke-width: 1.3; stroke-linecap: square"/>
   </g>
   <g id="line2d_64">
    <path d="M 493.671023 57.929931 
L 561.37821 64.301909 
L 600.984376 72.074518 
L 629.085398 85.973241 
L 650.882244 98.837556 
L 668.691564 109.656888 
L 683.749129 118.130407 
L 696.792586 124.241721 
L 708.29773 128.774449 
L 718.589432 133.50043 
L 727.899409 137.613045 
L 736.398752 141.699328 
L 744.217389 144.533535 
L 751.456317 147.460591 
L 758.195598 148.366789 
L 764.499774 150.402809 
L 770.421637 152.509111 
L 776.004918 154.325425 
L 781.286248 156.468093 
L 786.296619 157.82855 
L 791.062483 158.625976 
L 795.606596 159.714297 
L 799.948681 160.872065 
L 804.105939 162.299304 
L 808.093465 163.508167 
L 811.924577 165.917284 
L 815.611083 170.021881 
L 819.163505 175.341871 
L 822.591254 179.971883 
L 825.902785 184.817564 
L 829.105722 188.755562 
L 832.206961 191.09543 
L 832.216477 191.100917 
" clip-path="url(#pebc299f6a2)" style="fill: none; stroke: #1e9c89; stroke-width: 1.3; stroke-linecap: square"/>
   </g>
   <g id="line2d_65">
    <path d="M 493.671023 58.110741 
L 561.37821 65.649705 
L 600.984376 79.400591 
L 629.085398 100.182098 
L 650.882244 115.858879 
L 668.691564 129.396179 
L 683.749129 138.729079 
L 696.792586 145.515751 
L 708.29773 151.147327 
L 718.589432 155.847887 
L 727.899409 160.169421 
L 736.398752 164.121395 
L 744.217389 167.270161 
L 751.456317 170.150939 
L 758.195598 172.528263 
L 764.499774 174.615902 
L 770.421637 176.763876 
L 776.004918 179.105906 
L 781.286248 181.693409 
L 786.296619 183.299233 
L 791.062483 183.130506 
L 795.606596 185.649826 
L 799.948681 186.864608 
L 804.105939 188.275736 
L 808.093465 188.98914 
L 811.924577 192.737768 
L 815.611083 198.08857 
L 819.163505 203.617368 
L 822.591254 208.899747 
L 825.902785 214.891721 
L 829.105722 219.608216 
L 832.206961 222.472421 
L 832.216477 222.470714 
" clip-path="url(#pebc299f6a2)" style="fill: none; stroke: #2fb47c; stroke-width: 1.3; stroke-linecap: square"/>
   </g>
   <g id="line2d_66">
    <path d="M 493.671023 58.944131 
L 561.37821 70.768952 
L 600.984376 89.899925 
L 629.085398 113.847766 
L 650.882244 131.407266 
L 668.691564 144.939686 
L 683.749129 154.246403 
L 696.792586 161.171645 
L 708.29773 167.222365 
L 718.589432 172.301361 
L 727.899409 177.05821 
L 736.398752 181.947208 
L 744.217389 184.5886 
L 751.456317 188.198102 
L 758.195598 190.145416 
L 764.499774 192.83418 
L 770.421637 195.400878 
L 776.004918 198.307866 
L 781.286248 200.308047 
L 786.296619 202.192356 
L 791.062483 202.68907 
L 795.606596 204.493665 
L 799.948681 206.19892 
L 804.105939 208.280573 
L 808.093465 208.8721 
L 811.924577 212.465344 
L 815.611083 218.311342 
L 819.163505 224.951096 
L 822.591254 231.298839 
L 825.902785 237.992032 
L 829.105722 243.224835 
L 832.206961 246.191599 
L 832.216477 246.195626 
" clip-path="url(#pebc299f6a2)" style="fill: none; stroke: #5cc863; stroke-width: 1.3; stroke-linecap: square"/>
   </g>
   <g id="line2d_67">
    <path d="M 493.671023 59.808216 
L 561.37821 73.889363 
L 600.984376 98.822563 
L 629.085398 123.057083 
L 650.882244 141.910474 
L 668.691564 155.495714 
L 683.749129 165.253719 
L 696.792586 173.913039 
L 708.29773 179.439445 
L 718.589432 184.547693 
L 727.899409 190.473628 
L 736.398752 195.192141 
L 744.217389 198.312805 
L 751.456317 202.054532 
L 758.195598 205.108536 
L 764.499774 207.272369 
L 770.421637 210.323176 
L 776.004918 213.00077 
L 781.286248 215.617822 
L 786.296619 217.314315 
L 791.062483 218.434607 
L 795.606596 220.388521 
L 799.948681 222.641825 
L 804.105939 224.536214 
L 808.093465 225.098919 
L 811.924577 230.044724 
L 815.611083 236.439652 
L 819.163505 243.436016 
L 822.591254 250.653318 
L 825.902785 258.594769 
L 829.105722 264.185758 
L 832.206961 267.494981 
L 832.216477 267.5004 
" clip-path="url(#pebc299f6a2)" style="fill: none; stroke: #9bd93c; stroke-width: 1.3; stroke-linecap: square"/>
   </g>
  </g>
  <g id="text_31">
   <!-- Parameter scaling — loss curves &amp; scaling law -->
   <g transform="translate(300.423672 15.558281) scale(0.11 -0.11)">
    <defs>
     <path id="DejaVuSans-50" d="M 1259 4147 
L 1259 2394 
L 2053 2394 
Q 2494 2394 2734 2622 
Q 2975 2850 2975 3272 
Q 2975 3691 2734 3919 
Q 2494 4147 2053 4147 
L 1259 4147 
z
M 628 4666 
L 2053 4666 
Q 2838 4666 3239 4311 
Q 3641 3956 3641 3272 
Q 3641 2581 3239 2228 
Q 2838 1875 2053 1875 
L 1259 1875 
L 1259 0 
L 628 0 
L 628 4666 
z
" transform="scale(0.015625)"/>
     <path id="DejaVuSans-63" d="M 3122 3366 
L 3122 2828 
Q 2878 2963 2633 3030 
Q 2388 3097 2138 3097 
Q 1578 3097 1268 2742 
Q 959 2388 959 1747 
Q 959 1106 1268 751 
Q 1578 397 2138 397 
Q 2388 397 2633 464 
Q 2878 531 3122 666 
L 3122 134 
Q 2881 22 2623 -34 
Q 2366 -91 2075 -91 
Q 1284 -91 818 406 
Q 353 903 353 1747 
Q 353 2603 823 3093 
Q 1294 3584 2113 3584 
Q 2378 3584 2631 3529 
Q 2884 3475 3122 3366 
z
" transform="scale(0.015625)"/>
     <path id="DejaVuSans-67" d="M 2906 1791 
Q 2906 2416 2648 2759 
Q 2391 3103 1925 3103 
Q 1463 3103 1205 2759 
Q 947 2416 947 1791 
Q 947 1169 1205 825 
Q 1463 481 1925 481 
Q 2391 481 2648 825 
Q 2906 1169 2906 1791 
z
M 3481 434 
Q 3481 -459 3084 -895 
Q 2688 -1331 1869 -1331 
Q 1566 -1331 1297 -1286 
Q 1028 -1241 775 -1147 
L 775 -588 
Q 1028 -725 1275 -790 
Q 1522 -856 1778 -856 
Q 2344 -856 2625 -561 
Q 2906 -266 2906 331 
L 2906 616 
Q 2728 306 2450 153 
Q 2172 0 1784 0 
Q 1141 0 747 490 
Q 353 981 353 1791 
Q 353 2603 747 3093 
Q 1141 3584 1784 3584 
Q 2172 3584 2450 3431 
Q 2728 3278 2906 2969 
L 2906 3500 
L 3481 3500 
L 3481 434 
z
" transform="scale(0.015625)"/>
     <path id="DejaVuSans-2014" d="M 313 1978 
L 6088 1978 
L 6088 1528 
L 313 1528 
L 313 1978 
z
" transform="scale(0.015625)"/>
     <path id="DejaVuSans-75" d="M 544 1381 
L 544 3500 
L 1119 3500 
L 1119 1403 
Q 1119 906 1312 657 
Q 1506 409 1894 409 
Q 2359 409 2629 706 
Q 2900 1003 2900 1516 
L 2900 3500 
L 3475 3500 
L 3475 0 
L 2900 0 
L 2900 538 
Q 2691 219 2414 64 
Q 2138 -91 1772 -91 
Q 1169 -91 856 284 
Q 544 659 544 1381 
z
M 1991 3584 
L 1991 3584 
z
" transform="scale(0.015625)"/>
     <path id="DejaVuSans-26" d="M 1556 2509 
Q 1272 2256 1139 2004 
Q 1006 1753 1006 1478 
Q 1006 1022 1337 719 
Q 1669 416 2169 416 
Q 2466 416 2725 514 
Q 2984 613 3213 813 
L 1556 2509 
z
M 1997 2859 
L 3584 1234 
Q 3769 1513 3872 1830 
Q 3975 2147 3994 2503 
L 4575 2503 
Q 4538 2091 4375 1687 
Q 4213 1284 3922 891 
L 4794 0 
L 4006 0 
L 3559 459 
Q 3234 181 2878 45 
Q 2522 -91 2113 -91 
Q 1359 -91 881 339 
Q 403 769 403 1441 
Q 403 1841 612 2192 
Q 822 2544 1241 2853 
Q 1091 3050 1012 3245 
Q 934 3441 934 3628 
Q 934 4134 1281 4442 
Q 1628 4750 2203 4750 
Q 2463 4750 2720 4694 
Q 2978 4638 3244 4525 
L 3244 3956 
Q 2972 4103 2725 4179 
Q 2478 4256 2266 4256 
Q 1938 4256 1733 4082 
Q 1528 3909 1528 3634 
Q 1528 3475 1620 3314 
Q 1713 3153 1997 2859 
z
" transform="scale(0.015625)"/>
     <path id="DejaVuSans-77" d="M 269 3500 
L 844 3500 
L 1563 769 
L 2278 3500 
L 2956 3500 
L 3675 769 
L 4391 3500 
L 4966 3500 
L 4050 0 
L 3372 0 
L 2619 2869 
L 1863 0 
L 1184 0 
L 269 3500 
z
" transform="scale(0.015625)"/>
    </defs>
    <use xlink:href="#DejaVuSans-50"/>
    <use xlink:href="#DejaVuSans-61" transform="translate(55.802734 0)"/>
    <use xlink:href="#DejaVuSans-72" transform="translate(117.082031 0)"/>
    <use xlink:href="#DejaVuSans-61" transform="translate(158.195312 0)"/>
    <use xlink:href="#DejaVuSans-6d" transform="translate(219.474609 0)"/>
    <use xlink:href="#DejaVuSans-65" transform="translate(316.886719 0)"/>
    <use xlink:href="#DejaVuSans-74" transform="translate(378.410156 0)"/>
    <use xlink:href="#DejaVuSans-65" transform="translate(417.619141 0)"/>
    <use xlink:href="#DejaVuSans-72" transform="translate(479.142578 0)"/>
    <use xlink:href="#DejaVuSans-20" transform="translate(520.255859 0)"/>
    <use xlink:href="#DejaVuSans-73" transform="translate(552.042969 0)"/>
    <use xlink:href="#DejaVuSans-63" transform="translate(604.142578 0)"/>
    <use xlink:href="#DejaVuSans-61" transform="translate(659.123047 0)"/>
    <use xlink:href="#DejaVuSans-6c" transform="translate(720.402344 0)"/>
    <use xlink:href="#DejaVuSans-69" transform="translate(748.185547 0)"/>
    <use xlink:href="#DejaVuSans-6e" transform="translate(775.96875 0)"/>
    <use xlink:href="#DejaVuSans-67" transform="translate(839.347656 0)"/>
    <use xlink:href="#DejaVuSans-20" transform="translate(902.824219 0)"/>
    <use xlink:href="#DejaVuSans-2014" transform="translate(934.611328 0)"/>
    <use xlink:href="#DejaVuSans-20" transform="translate(1034.611328 0)"/>
    <use xlink:href="#DejaVuSans-6c" transform="translate(1066.398438 0)"/>
    <use xlink:href="#DejaVuSans-6f" transform="translate(1094.181641 0)"/>
    <use xlink:href="#DejaVuSans-73" transform="translate(1155.363281 0)"/>
    <use xlink:href="#DejaVuSans-73" transform="translate(1207.462891 0)"/>
    <use xlink:href="#DejaVuSans-20" transform="translate(1259.5625 0)"/>
    <use xlink:href="#DejaVuSans-63" transform="translate(1291.349609 0)"/>
    <use xlink:href="#DejaVuSans-75" transform="translate(1346.330078 0)"/>
    <use xlink:href="#DejaVuSans-72" transform="translate(1409.708984 0)"/>
    <use xlink:href="#DejaVuSans-76" transform="translate(1450.822266 0)"/>
    <use xlink:href="#DejaVuSans-65" transform="translate(1510.001953 0)"/>
    <use xlink:href="#DejaVuSans-73" transform="translate(1571.525391 0)"/>
    <use xlink:href="#DejaVuSans-20" transform="translate(1623.625 0)"/>
    <use xlink:href="#DejaVuSans-26" transform="translate(1655.412109 0)"/>
    <use xlink:href="#DejaVuSans-20" transform="translate(1733.390625 0)"/>
    <use xlink:href="#DejaVuSans-73" transform="translate(1765.177734 0)"/>
    <use xlink:href="#DejaVuSans-63" transform="translate(1817.277344 0)"/>
    <use xlink:href="#DejaVuSans-61" transform="translate(1872.257812 0)"/>
    <use xlink:href="#DejaVuSans-6c" transform="translate(1933.537109 0)"/>
    <use xlink:href="#DejaVuSans-69" transform="translate(1961.320312 0)"/>
    <use xlink:href="#DejaVuSans-6e" transform="translate(1989.103516 0)"/>
    <use xlink:href="#DejaVuSans-67" transform="translate(2052.482422 0)"/>
    <use xlink:href="#DejaVuSans-20" transform="translate(2115.958984 0)"/>
    <use xlink:href="#DejaVuSans-6c" transform="translate(2147.746094 0)"/>
    <use xlink:href="#DejaVuSans-61" transform="translate(2175.529297 0)"/>
    <use xlink:href="#DejaVuSans-77" transform="translate(2236.808594 0)"/>
   </g>
   <!-- $N{=}46\mathrm{M}{-}4\mathrm{B},\,D{=}84\mathrm{B},\,C{=}2.5{\times}10^{19}{-}2.1{\times}10^{21}$ -->
   <g transform="translate(298.14375 28.69675) scale(0.11 -0.11)">
    <defs>
     <path id="DejaVuSans-4d" d="M 628 4666 
L 1569 4666 
L 2759 1491 
L 3956 4666 
L 4897 4666 
L 4897 0 
L 4281 0 
L 4281 4097 
L 3078 897 
L 2444 897 
L 1241 4097 
L 1241 0 
L 628 0 
L 628 4666 
z
" transform="scale(0.015625)"/>
     <path id="DejaVuSans-42" d="M 1259 2228 
L 1259 519 
L 2272 519 
Q 2781 519 3026 730 
Q 3272 941 3272 1375 
Q 3272 1813 3026 2020 
Q 2781 2228 2272 2228 
L 1259 2228 
z
M 1259 4147 
L 1259 2741 
L 2194 2741 
Q 2656 2741 2882 2914 
Q 3109 3088 3109 3444 
Q 3109 3797 2882 3972 
Q 2656 4147 2194 4147 
L 1259 4147 
z
M 628 4666 
L 2241 4666 
Q 2963 4666 3353 4366 
Q 3744 4066 3744 3513 
Q 3744 3084 3544 2831 
Q 3344 2578 2956 2516 
Q 3422 2416 3680 2098 
Q 3938 1781 3938 1306 
Q 3938 681 3513 340 
Q 3088 0 2303 0 
L 628 0 
L 628 4666 
z
" transform="scale(0.015625)"/>
     <path id="DejaVuSans-Oblique-44" d="M 1081 4666 
L 2438 4666 
Q 3519 4666 4070 4208 
Q 4622 3750 4622 2847 
Q 4622 2250 4412 1698 
Q 4203 1147 3834 769 
Q 3463 381 2891 190 
Q 2319 0 1538 0 
L 172 0 
L 1081 4666 
z
M 1613 4147 
L 909 519 
L 1734 519 
Q 2794 519 3375 1128 
Q 3956 1738 3956 2847 
Q 3956 3519 3581 3833 
Q 3206 4147 2406 4147 
L 1613 4147 
z
" transform="scale(0.015625)"/>
     <path id="DejaVuSans-Oblique-43" d="M 4447 4306 
L 4319 3641 
Q 4019 3944 3683 4091 
Q 3347 4238 2956 4238 
Q 2422 4238 2017 3981 
Q 1613 3725 1319 3200 
Q 1131 2863 1032 2486 
Q 934 2109 934 1728 
Q 934 1091 1264 756 
Q 1594 422 2222 422 
Q 2656 422 3056 561 
Q 3456 700 3834 978 
L 3688 231 
Q 3316 72 2936 -9 
Q 2556 -91 2175 -91 
Q 1278 -91 773 396 
Q 269 884 269 1753 
Q 269 2309 461 2846 
Q 653 3384 1013 3828 
Q 1394 4300 1883 4525 
Q 2372 4750 3022 4750 
Q 3422 4750 3780 4639 
Q 4138 4528 4447 4306 
z
" transform="scale(0.015625)"/>
     <path id="DejaVuSans-d7" d="M 4488 3438 
L 3059 2003 
L 4488 575 
L 4116 197 
L 2681 1631 
L 1247 197 
L 878 575 
L 2303 2003 
L 878 3438 
L 1247 3816 
L 2681 2381 
L 4116 3816 
L 4488 3438 
z
" transform="scale(0.015625)"/>
    </defs>
    <use xlink:href="#DejaVuSans-Oblique-4e" transform="translate(0 0.765625)"/>
    <use xlink:href="#DejaVuSans-3d" transform="translate(94.287109 0.765625)"/>
    <use xlink:href="#DejaVuSans-34" transform="translate(197.558594 0.765625)"/>
    <use xlink:href="#DejaVuSans-36" transform="translate(261.181641 0.765625)"/>
    <use xlink:href="#DejaVuSans-4d" transform="translate(324.804688 0.765625)"/>
    <use xlink:href="#DejaVuSans-2212" transform="translate(411.083984 0.765625)"/>
    <use xlink:href="#DejaVuSans-34" transform="translate(494.873047 0.765625)"/>
    <use xlink:href="#DejaVuSans-42" transform="translate(558.496094 0.765625)"/>
    <use xlink:href="#DejaVuSans-2c" transform="translate(627.099609 0.765625)"/>
    <use xlink:href="#DejaVuSans-Oblique-44" transform="translate(694.604817 0.765625)"/>
    <use xlink:href="#DejaVuSans-3d" transform="translate(791.089192 0.765625)"/>
    <use xlink:href="#DejaVuSans-38" transform="translate(894.360676 0.765625)"/>
    <use xlink:href="#DejaVuSans-34" transform="translate(957.983723 0.765625)"/>
    <use xlink:href="#DejaVuSans-42" transform="translate(1021.60677 0.765625)"/>
    <use xlink:href="#DejaVuSans-2c" transform="translate(1090.210286 0.765625)"/>
    <use xlink:href="#DejaVuSans-Oblique-43" transform="translate(1157.715493 0.765625)"/>
    <use xlink:href="#DejaVuSans-3d" transform="translate(1247.022134 0.765625)"/>
    <use xlink:href="#DejaVuSans-32" transform="translate(1350.293618 0.765625)"/>
    <use xlink:href="#DejaVuSans-2e" transform="translate(1413.916665 0.765625)"/>
    <use xlink:href="#DejaVuSans-35" transform="translate(1445.703774 0.765625)"/>
    <use xlink:href="#DejaVuSans-d7" transform="translate(1509.326821 0.765625)"/>
    <use xlink:href="#DejaVuSans-31" transform="translate(1593.115884 0.765625)"/>
    <use xlink:href="#DejaVuSans-30" transform="translate(1656.738931 0.765625)"/>
    <use xlink:href="#DejaVuSans-31" transform="translate(1721.319009 39.046875) scale(0.7)"/>
    <use xlink:href="#DejaVuSans-39" transform="translate(1765.855142 39.046875) scale(0.7)"/>
    <use xlink:href="#DejaVuSans-2212" transform="translate(1813.125649 0.765625)"/>
    <use xlink:href="#DejaVuSans-32" transform="translate(1896.914712 0.765625)"/>
    <use xlink:href="#DejaVuSans-2e" transform="translate(1960.537759 0.765625)"/>
    <use xlink:href="#DejaVuSans-31" transform="translate(1992.324868 0.765625)"/>
    <use xlink:href="#DejaVuSans-d7" transform="translate(2055.947915 0.765625)"/>
    <use xlink:href="#DejaVuSans-31" transform="translate(2139.736978 0.765625)"/>
    <use xlink:href="#DejaVuSans-30" transform="translate(2203.360024 0.765625)"/>
    <use xlink:href="#DejaVuSans-32" transform="translate(2267.940103 39.046875) scale(0.7)"/>
    <use xlink:href="#DejaVuSans-31" transform="translate(2312.476235 39.046875) scale(0.7)"/>
   </g>
  </g>
  <g id="legend_1">
   <g id="text_32">
    <!-- model params -->
    <g transform="translate(395.551484 324.538594) scale(0.09 -0.09)">
     <defs>
      <path id="DejaVuSans-64" d="M 2906 2969 
L 2906 4863 
L 3481 4863 
L 3481 0 
L 2906 0 
L 2906 525 
Q 2725 213 2448 61 
Q 2172 -91 1784 -91 
Q 1150 -91 751 415 
Q 353 922 353 1747 
Q 353 2572 751 3078 
Q 1150 3584 1784 3584 
Q 2172 3584 2448 3432 
Q 2725 3281 2906 2969 
z
M 947 1747 
Q 947 1113 1208 752 
Q 1469 391 1925 391 
Q 2381 391 2643 752 
Q 2906 1113 2906 1747 
Q 2906 2381 2643 2742 
Q 2381 3103 1925 3103 
Q 1469 3103 1208 2742 
Q 947 2381 947 1747 
z
" transform="scale(0.015625)"/>
     </defs>
     <use xlink:href="#DejaVuSans-6d"/>
     <use xlink:href="#DejaVuSans-6f" transform="translate(97.412109 0)"/>
     <use xlink:href="#DejaVuSans-64" transform="translate(158.59375 0)"/>
     <use xlink:href="#DejaVuSans-65" transform="translate(222.070312 0)"/>
     <use xlink:href="#DejaVuSans-6c" transform="translate(283.59375 0)"/>
     <use xlink:href="#DejaVuSans-20" transform="translate(311.376953 0)"/>
     <use xlink:href="#DejaVuSans-70" transform="translate(343.164062 0)"/>
     <use xlink:href="#DejaVuSans-61" transform="translate(406.640625 0)"/>
     <use xlink:href="#DejaVuSans-72" transform="translate(467.919922 0)"/>
     <use xlink:href="#DejaVuSans-61" transform="translate(509.033203 0)"/>
     <use xlink:href="#DejaVuSans-6d" transform="translate(570.3125 0)"/>
     <use xlink:href="#DejaVuSans-73" transform="translate(667.724609 0)"/>
    </g>
   </g>
   <g id="line2d_68">
    <defs>
     <path id="mc02ea8c6e0" d="M -4 4 
L 4 4 
L 4 -4 
L -4 -4 
z
" style="stroke: #000000; stroke-width: 0.6; stroke-linejoin: miter"/>
    </defs>
    <g>
     <use xlink:href="#mc02ea8c6e0" x="241.543203" y="334.598906" style="fill: #463480; stroke: #000000; stroke-width: 0.6; stroke-linejoin: miter"/>
    </g>
   </g>
   <g id="text_33">
    <!-- 46M -->
    <g transform="translate(253.243203 337.748906) scale(0.09 -0.09)">
     <use xlink:href="#DejaVuSans-34"/>
     <use xlink:href="#DejaVuSans-36" transform="translate(63.623047 0)"/>
     <use xlink:href="#DejaVuSans-4d" transform="translate(127.246094 0)"/>
    </g>
   </g>
   <g id="line2d_69">
    <defs>
     <path id="m0781c73d62" d="M -4 4 
L 4 4 
L 4 -4 
L -4 -4 
z
" style="stroke: #000000; stroke-width: 0.6; stroke-linejoin: miter"/>
    </defs>
    <g>
     <use xlink:href="#m0781c73d62" x="292.351016" y="334.598906" style="fill: #3b528b; stroke: #000000; stroke-width: 0.6; stroke-linejoin: miter"/>
    </g>
   </g>
   <g id="text_34">
    <!-- 76M -->
    <g transform="translate(304.051016 337.748906) scale(0.09 -0.09)">
     <use xlink:href="#DejaVuSans-37"/>
     <use xlink:href="#DejaVuSans-36" transform="translate(63.623047 0)"/>
     <use xlink:href="#DejaVuSans-4d" transform="translate(127.246094 0)"/>
    </g>
   </g>
   <g id="line2d_70">
    <defs>
     <path id="m1710883d93" d="M -4 4 
L 4 4 
L 4 -4 
L -4 -4 
z
" style="stroke: #000000; stroke-width: 0.6; stroke-linejoin: miter"/>
    </defs>
    <g>
     <use xlink:href="#m1710883d93" x="343.158828" y="334.598906" style="fill: #2f6c8e; stroke: #000000; stroke-width: 0.6; stroke-linejoin: miter"/>
    </g>
   </g>
   <g id="text_35">
    <!-- 128M -->
    <g transform="translate(354.858828 337.748906) scale(0.09 -0.09)">
     <use xlink:href="#DejaVuSans-31"/>
     <use xlink:href="#DejaVuSans-32" transform="translate(63.623047 0)"/>
     <use xlink:href="#DejaVuSans-38" transform="translate(127.246094 0)"/>
     <use xlink:href="#DejaVuSans-4d" transform="translate(190.869141 0)"/>
    </g>
   </g>
   <g id="line2d_71">
    <defs>
     <path id="m9c709348da" d="M -4 4 
L 4 4 
L 4 -4 
L -4 -4 
z
" style="stroke: #000000; stroke-width: 0.6; stroke-linejoin: miter"/>
    </defs>
    <g>
     <use xlink:href="#m9c709348da" x="399.692891" y="334.598906" style="fill: #25848e; stroke: #000000; stroke-width: 0.6; stroke-linejoin: miter"/>
    </g>
   </g>
   <g id="text_36">
    <!-- 255M -->
    <g transform="translate(411.392891 337.748906) scale(0.09 -0.09)">
     <use xlink:href="#DejaVuSans-32"/>
     <use xlink:href="#DejaVuSans-35" transform="translate(63.623047 0)"/>
     <use xlink:href="#DejaVuSans-35" transform="translate(127.246094 0)"/>
     <use xlink:href="#DejaVuSans-4d" transform="translate(190.869141 0)"/>
    </g>
   </g>
   <g id="line2d_72">
    <defs>
     <path id="m39197a3690" d="M -4 4 
L 4 4 
L 4 -4 
L -4 -4 
z
" style="stroke: #000000; stroke-width: 0.6; stroke-linejoin: miter"/>
    </defs>
    <g>
     <use xlink:href="#m39197a3690" x="456.226953" y="334.598906" style="fill: #1e9c89; stroke: #000000; stroke-width: 0.6; stroke-linejoin: miter"/>
    </g>
   </g>
   <g id="text_37">
    <!-- 476M -->
    <g transform="translate(467.926953 337.748906) scale(0.09 -0.09)">
     <use xlink:href="#DejaVuSans-34"/>
     <use xlink:href="#DejaVuSans-37" transform="translate(63.623047 0)"/>
     <use xlink:href="#DejaVuSans-36" transform="translate(127.246094 0)"/>
     <use xlink:href="#DejaVuSans-4d" transform="translate(190.869141 0)"/>
    </g>
   </g>
   <g id="line2d_73">
    <defs>
     <path id="maa86d036f1" d="M -4 4 
L 4 4 
L 4 -4 
L -4 -4 
z
" style="stroke: #000000; stroke-width: 0.6; stroke-linejoin: miter"/>
    </defs>
    <g>
     <use xlink:href="#maa86d036f1" x="512.761016" y="334.598906" style="fill: #2fb47c; stroke: #000000; stroke-width: 0.6; stroke-linejoin: miter"/>
    </g>
   </g>
   <g id="text_38">
    <!-- 1B -->
    <g transform="translate(524.461016 337.748906) scale(0.09 -0.09)">
     <use xlink:href="#DejaVuSans-31"/>
     <use xlink:href="#DejaVuSans-42" transform="translate(63.623047 0)"/>
    </g>
   </g>
   <g id="line2d_74">
    <defs>
     <path id="m75df8f30fc" d="M -4 4 
L 4 4 
L 4 -4 
L -4 -4 
z
" style="stroke: #000000; stroke-width: 0.6; stroke-linejoin: miter"/>
    </defs>
    <g>
     <use xlink:href="#m75df8f30fc" x="556.252109" y="334.598906" style="fill: #5cc863; stroke: #000000; stroke-width: 0.6; stroke-linejoin: miter"/>
    </g>
   </g>
   <g id="text_39">
    <!-- 2B -->
    <g transform="translate(567.952109 337.748906) scale(0.09 -0.09)">
     <use xlink:href="#DejaVuSans-32"/>
     <use xlink:href="#DejaVuSans-42" transform="translate(63.623047 0)"/>
    </g>
   </g>
   <g id="line2d_75">
    <defs>
     <path id="m150907c1e6" d="M -4 4 
L 4 4 
L 4 -4 
L -4 -4 
z
" style="stroke: #000000; stroke-width: 0.6; stroke-linejoin: miter"/>
    </defs>
    <g>
     <use xlink:href="#m150907c1e6" x="599.743203" y="334.598906" style="fill: #9bd93c; stroke: #000000; stroke-width: 0.6; stroke-linejoin: miter"/>
    </g>
   </g>
   <g id="text_40">
    <!-- 4B -->
    <g transform="translate(611.443203 337.748906) scale(0.09 -0.09)">
     <use xlink:href="#DejaVuSans-34"/>
     <use xlink:href="#DejaVuSans-42" transform="translate(63.623047 0)"/>
    </g>
   </g>
  </g>
 </g>
 <defs>
  <clipPath id="p9b8d1ca34d">
   <rect x="50.14375" y="43.7328" width="372.4" height="234.4232"/>
  </clipPath>
  <clipPath id="pb3030ea89f">
   <rect x="517.70775" y="132.813616" width="100.548" height="117.2116"/>
  </clipPath>
  <clipPath id="pebc299f6a2">
   <rect x="476.74375" y="43.7328" width="372.4" height="234.4232"/>
  </clipPath>
 </defs>
</svg>
